<svg width="150" height="150" viewBox="0 0 150 150" fill="none" xmlns="http://www.w3.org/2000/svg">
<g clip-path="url(#clip0_213_682)">
<path d="M75 28.5625L105.813 13.1875L83.375 2C78.125 -0.625 71.875 -0.625 66.625 2L44.25 13.1875L75.0625 28.5625H75Z" fill="#262626"/>
<path d="M31.25 107L0 91.4375V121.063C0 127.75 3.5625 134 9.4375 137.312L31.25 149.812V106.938V107Z" fill="#262626"/>
<path d="M118.75 149.875L140.562 137.375C146.375 134.062 150 127.812 150 121.125V91.5L118.75 107.062V149.937V149.875Z" fill="#262626"/>
<path d="M30.5625 67.75L5.5 80.375L37.5 96.0625L61.8125 83.8125L30.5625 67.75Z" fill="#262626"/>
<path d="M68.75 73.3125V38.9375L37.5 23.375V57.25L68.75 73.3125Z" fill="#262626"/>
<path d="M112.5 57.25V23.375L81.25 38.9375V73.3125L112.5 57.25Z" fill="#262626"/>
<path d="M119.438 67.75L88.1875 83.8125L112.5 96.0625L144.5 80.375L119.438 67.75Z" fill="#262626"/>
<path d="M68.75 94.5L43.75 106.687V149.563L68.75 135.5V94.5Z" fill="#262626"/>
<path d="M81.25 94.5V135.438L106.25 149.438V106.562L81.25 94.5Z" fill="#262626"/>
</g>
<defs>
<clipPath id="clip0_213_682">
<rect width="150" height="150" fill="white"/>
</clipPath>
</defs>
</svg>
