<svg width="203" height="99" viewBox="0 0 203 99" fill="none" xmlns="http://www.w3.org/2000/svg">
<path d="M155.921 70.2079C154.945 71.0505 153.952 71.8818 152.941 72.6981C102.616 113.333 28.8782 105.477 -11.7568 55.152C-52.3915 4.8266 -44.536 -68.9112 5.78936 -109.546C6.80028 -110.362 7.82145 -111.158 8.85081 -111.935C-38.79 -70.8358 -45.5344 0.959349 -5.71559 50.2741C34.1033 99.5888 105.707 108.121 155.921 70.2079ZM176.529 -96.8779C217.164 -46.5525 209.308 27.1852 158.983 67.8202C157.972 68.6363 156.95 69.431 155.921 70.2079C203.561 29.1084 210.306 -42.6855 170.487 -92C130.669 -141.314 59.0646 -149.847 8.85081 -111.935C9.82716 -112.778 10.8199 -113.608 11.8305 -114.424C62.1559 -155.059 135.894 -147.203 176.529 -96.8779Z" fill="black"/>
</svg>
