<svg width="203" height="99" viewBox="0 0 203 99" fill="none" xmlns="http://www.w3.org/2000/svg">
<path d="M156.254 70.2079C155.277 71.0505 154.285 71.8818 153.274 72.6981C102.948 113.333 29.2107 105.477 -11.4242 55.152C-52.059 4.8266 -44.2035 -68.9112 6.12188 -109.546C7.1328 -110.362 8.15397 -111.158 9.18333 -111.935C-38.4575 -70.8358 -45.2019 0.959349 -5.38307 50.2741C34.4358 99.5888 106.04 108.121 156.254 70.2079ZM176.861 -96.8779C217.496 -46.5525 209.64 27.1852 159.315 67.8202C158.304 68.6363 157.283 69.431 156.254 70.2079C203.894 29.1084 210.639 -42.6855 170.82 -92C131.001 -141.314 59.3971 -149.847 9.18333 -111.935C10.1597 -112.778 11.1524 -113.608 12.1631 -114.424C62.4884 -155.059 136.226 -147.203 176.861 -96.8779Z" fill="white"/>
</svg>
