<svg width="36" height="36" viewBox="0 0 36 36" fill="none" xmlns="http://www.w3.org/2000/svg">
<path d="M18 0C20.5106 6.37799e-06 22.9012 0.513878 25.0723 1.44238C27.5739 7.09339 28.176 13.4409 26.7471 19.4648C27.2536 18.9124 27.7429 18.336 28.2119 17.7354C30.5035 14.8005 32.1205 11.5558 33.0898 8.18555C34.9297 11.0086 36 14.3791 36 18C36 27.9411 27.9412 36 18 36C17.2363 36 16.4838 35.9517 15.7451 35.8594C17.8804 34.3235 19.8364 32.4654 21.5342 30.291C24.1137 26.9873 25.8394 23.291 26.7471 19.4648C20.6547 26.1086 11.9633 29.249 3.41797 28.5537C1.26815 25.5885 3.27077e-06 21.9426 0 18C0 8.05888 8.0588 0 18 0Z" fill="white"/>
</svg>
