<svg width="1165" height="226" viewBox="0 0 1165 226" fill="none" xmlns="http://www.w3.org/2000/svg">
<path d="M0.643462 117.298C0.574022 117.227 0.479226 117.187 0.379836 117.185C0.280447 117.184 0.184621 117.222 0.113422 117.292C0.0422229 117.361 0.00146356 117.456 9.35793e-05 117.555C-0.00127733 117.654 0.0368699 117.75 0.106049 117.822C0.106049 117.822 0.106049 117.822 0.106049 117.822C16.0557 134.25 32.4078 150.105 49.8849 164.963C94.0234 203.214 153.455 237.331 213.317 219.178C271.63 202.099 316.947 159.482 359.805 118.209L359.767 118.244C424.041 63.7575 494.926 1.52112 582.874 2.00127C663.021 5.28467 725.641 64.3742 780.48 118.212L780.507 118.237C827.232 160.786 876.477 204.887 939.012 221.185C1002.91 238.255 1065.74 203.192 1113.67 163.734C1131.41 149.333 1148.25 133.857 1164.64 117.828C1164.71 117.759 1164.75 117.664 1164.75 117.565C1164.75 117.465 1164.71 117.37 1164.64 117.298C1164.57 117.227 1164.48 117.187 1164.38 117.185C1164.28 117.184 1164.18 117.222 1164.11 117.292C1164.11 117.292 1164.11 117.292 1164.11 117.292C1147.68 133.249 1130.8 148.649 1113.05 162.966C1065.03 202.234 1002.53 236.764 939.37 219.711C877.449 203.447 828.359 159.437 781.771 116.883L781.797 116.908C726.923 62.959 664.199 3.40635 582.931 0.00208455C493.768 -0.393189 422.869 62.2786 358.563 116.876L358.525 116.912C315.809 158.184 270.633 200.716 212.925 217.74C153.803 235.842 94.7593 202.284 50.5228 164.209C33.0315 149.438 16.6411 133.656 0.643462 117.298Z" fill="#37B478"/>
</svg>
