<svg width="150" height="65" viewBox="0 0 150 65" fill="none" xmlns="http://www.w3.org/2000/svg">
<path d="M56.9058 57.4978C62.4627 54.4514 64.4483 47.5513 61.3484 42.0902C58.2486 36.6291 51.2274 34.6777 45.6705 37.7241C40.1136 40.7706 38.128 47.6706 41.2279 53.1317C44.3277 58.5928 51.3489 60.5442 56.9058 57.4978Z" fill="white"/>
<path d="M31.9783 39.43C27.3785 31.3366 16.979 28.4446 8.75075 32.9651C0.515398 37.4856 -2.42733 47.7059 2.17247 55.7922C6.77227 63.8856 17.1718 66.7776 25.4 62.2571C33.6282 57.7366 36.5781 47.5163 31.9783 39.43Z" fill="white"/>
<path d="M59.7703 9.22461C57.2347 4.76728 51.5063 3.17388 46.9708 5.65875C42.4353 8.15064 40.8139 13.7802 43.3424 18.2375C45.878 22.6948 51.6063 24.2883 56.1418 21.8034C60.6774 19.3185 62.2987 13.6819 59.7703 9.22461Z" fill="white"/>
<path d="M23.886 25.714C30.6214 22.0147 33.0285 13.6546 29.2715 7.03533C25.5074 0.416025 17.0006 -1.94952 10.2652 1.74269C3.52977 5.44192 1.12273 13.802 4.87971 20.4213C8.64383 27.0406 17.1506 29.4062 23.886 25.714Z" fill="white"/>
<path d="M86.0195 11.0254L86.0195 29.5496L82.4268 29.5496L82.4268 11.0254L86.0195 11.0254Z" fill="white"/>
<path d="M103.14 11.0254L104.511 11.0254C105.954 11.0254 107.125 12.1766 107.125 13.5945L107.125 29.5496L103.654 29.5496L96.1685 18.6064L96.1685 29.5496L92.1758 29.5496L92.1758 11.0254L95.947 11.0254L103.14 22.1792L103.14 11.0254Z" fill="white"/>
<path d="M123.81 11.0254L125.196 11.0254C126.639 11.0254 127.803 12.1696 127.803 13.5875L127.803 29.5496L124.332 29.5496L116.846 18.6064L116.846 29.5496L112.854 29.5496L112.854 11.0254L116.625 11.0254L123.817 22.1792L123.817 11.0254L123.81 11.0254Z" fill="white"/>
<path d="M87.3254 53.2549L83.6685 53.2549L83.6685 38.0228L78.8115 38.0228L78.8115 34.7236L89.861 34.7236C91.1467 34.7236 92.1824 35.7485 92.1824 37.0049L92.1824 38.0228L87.3254 38.0228L87.3254 53.2549Z" fill="white"/>
<path d="M136.688 45.6388L136.688 53.3602L133.096 53.3602L133.096 34.8359L136.688 34.8359L136.688 42.3327L143.588 42.3327L143.588 34.8359L145.309 34.8359C146.345 34.8359 147.188 35.6642 147.188 36.682L147.188 53.3602L143.595 53.3602L143.595 45.6388L136.688 45.6388Z" fill="white"/>
<path d="M140.138 29.3886C135.003 29.3886 130.824 25.2823 130.824 20.2353C130.824 15.1884 135.003 11.082 140.138 11.082C145.274 11.082 149.452 15.1884 149.452 20.2353C149.452 25.2823 145.274 29.3886 140.138 29.3886ZM140.138 14.5917C136.967 14.5917 134.395 17.1257 134.395 20.2353C134.395 23.3449 136.974 25.8789 140.138 25.8789C143.302 25.8789 145.881 23.3449 145.881 20.2353C145.881 17.1257 143.302 14.5917 140.138 14.5917Z" fill="white"/>
<path d="M121.732 53.2549C116.596 53.2549 112.418 49.1485 112.418 44.1016C112.418 39.0546 116.596 34.9482 121.732 34.9482C124.203 34.9482 126.617 35.938 128.36 37.6718L125.817 40.1356C124.746 39.0686 123.26 38.4579 121.732 38.4579C118.561 38.4579 115.989 40.992 115.989 44.1016C115.989 47.2112 118.568 49.7452 121.732 49.7452C123.582 49.7452 125.332 48.8607 126.403 47.3796L129.31 49.4223C127.567 51.8229 124.732 53.2549 121.732 53.2549Z" fill="white"/>
<path d="M109.532 38.4924L109.532 34.9336L97.9682 34.9336L97.9682 34.9406L96.1611 34.9406L96.1611 49.8077L96.1611 53.3595L96.1611 53.3666L97.9682 53.3666L99.7753 53.3666L109.532 53.3666L109.532 49.8077L99.7753 49.8077L99.7753 45.9821L106.639 45.9821L106.639 42.4303L99.7753 42.4303L99.7753 38.4924L109.532 38.4924Z" fill="white"/>
</svg>
