<svg width="85" height="37" viewBox="0 0 85 37" fill="none" xmlns="http://www.w3.org/2000/svg">
<path d="M32.6186 32.7887C35.7675 31.0546 36.8927 27.1268 35.1361 24.0182C33.3795 20.9096 29.4009 19.7988 26.2519 21.5329C23.103 23.267 21.9778 27.1948 23.7344 30.3034C25.491 33.412 29.4697 34.5228 32.6186 32.7887Z" fill="white"/>
<path d="M18.4931 22.5037C15.8866 17.8967 9.99349 16.2505 5.33083 18.8237C0.664129 21.3969 -1.00342 27.2146 1.60314 31.8176C4.20969 36.4246 10.1028 38.0708 14.7654 35.4976C19.4281 32.9244 21.0997 27.1067 18.4931 22.5037Z" fill="white"/>
<path d="M34.242 5.31046C32.8051 2.77321 29.5591 1.86619 26.989 3.28066C24.4188 4.69912 23.5001 7.90364 24.9329 10.4409C26.3697 12.9781 29.6158 13.8851 32.1859 12.4707C34.756 11.0562 35.6748 7.8477 34.242 5.31046Z" fill="white"/>
<path d="M13.9079 14.6963C17.7247 12.5906 19.0886 7.83172 16.9597 4.06381C14.8267 0.295896 10.0062 -1.05064 6.18944 1.05108C2.3727 3.15679 1.00871 7.91563 3.13766 11.6835C5.27067 15.4514 10.0912 16.798 13.9079 14.6963Z" fill="white"/>
<path d="M49.0544 6.33496L49.0544 16.8795L47.0186 16.8795L47.0186 6.33496L49.0544 6.33496Z" fill="white"/>
<path d="M58.7568 6.33496L59.5339 6.33496C60.3515 6.33496 61.0153 6.99025 61.0153 7.79738L61.0153 16.8795L59.0482 16.8795L54.8065 10.6503L54.8065 16.8795L52.5439 16.8795L52.5439 6.33496L54.681 6.33496L58.7568 12.6841L58.7568 6.33496Z" fill="white"/>
<path d="M70.4695 6.33496L71.2547 6.33496C72.0723 6.33496 72.732 6.98625 72.732 7.79338L72.732 16.8795L70.765 16.8795L66.5233 10.6503L66.5233 16.8795L64.2607 16.8795L64.2607 6.33496L66.3978 6.33496L70.4736 12.6841L70.4736 6.33496L70.4695 6.33496Z" fill="white"/>
<path d="M49.7953 30.3733L47.723 30.3733L47.723 21.7027L44.9707 21.7027L44.9707 19.8247L51.2321 19.8247C51.9606 19.8247 52.5475 20.4081 52.5475 21.1233L52.5475 21.7027L49.7953 21.7027L49.7953 30.3733Z" fill="white"/>
<path d="M77.7673 26.038L77.7673 30.4332L75.7314 30.4332L75.7314 19.8887L77.7673 19.8887L77.7673 24.156L81.6771 24.156L81.6771 19.8887L82.6526 19.8887C83.2395 19.8887 83.7171 20.3602 83.7171 20.9395L83.7171 30.4332L81.6812 30.4332L81.6812 26.038L77.7673 26.038Z" fill="white"/>
<path d="M79.7222 16.7879C76.8121 16.7879 74.4443 14.4504 74.4443 11.5775C74.4443 8.70465 76.8121 6.36719 79.7222 6.36719C82.6323 6.36719 85.0001 8.70465 85.0001 11.5775C85.0001 14.4504 82.6323 16.7879 79.7222 16.7879ZM79.7222 8.36502C77.9251 8.36502 76.4681 9.80745 76.4681 11.5775C76.4681 13.3476 77.9292 14.79 79.7222 14.79C81.5152 14.79 82.9764 13.3476 82.9764 11.5775C82.9764 9.80745 81.5152 8.36502 79.7222 8.36502Z" fill="white"/>
<path d="M69.2915 30.3733C66.3814 30.3733 64.0137 28.0359 64.0137 25.163C64.0137 22.2901 66.3814 19.9526 69.2915 19.9526C70.692 19.9526 72.06 20.516 73.0476 21.503L71.6067 22.9054C70.9996 22.2981 70.1577 21.9505 69.2915 21.9505C67.4945 21.9505 66.0374 23.3929 66.0374 25.163C66.0374 26.9331 67.4985 28.3755 69.2915 28.3755C70.3398 28.3755 71.3315 27.872 71.9386 27.029L73.5859 28.1917C72.5983 29.5582 70.9915 30.3733 69.2915 30.3733Z" fill="white"/>
<path d="M62.3786 21.9701L62.3786 19.9443L55.8258 19.9443L55.8258 19.9483L54.8018 19.9483L54.8018 28.4111L54.8018 30.433L54.8018 30.437L55.8258 30.437L56.8498 30.437L62.3786 30.437L62.3786 28.4111L56.8498 28.4111L56.8498 26.2335L60.7394 26.2335L60.7394 24.2117L56.8498 24.2117L56.8498 21.9701L62.3786 21.9701Z" fill="white"/>
</svg>
