<svg width="353" height="119" viewBox="0 0 353 119" fill="none" xmlns="http://www.w3.org/2000/svg">
<g clip-path="url(#clip0_2834_3450)">
<path d="M64.1675 17.5185C65.4968 16.0515 68.9663 13.8219 70.712 12.7569C82.1083 5.8327 95.036 1.8252 108.351 1.08895C122.536 0.381947 134.681 2.4697 148.311 5.66095C157.497 7.7707 166.616 10.1652 175.653 12.8407C182.019 14.7 188.356 16.7144 194.811 18.2509C198.083 19.0297 221.495 23.5027 222.145 23.9557C222.718 23.9509 223.203 23.9567 223.775 23.9074C222.905 24.4822 222.998 24.2227 222.818 24.9885C223.495 25.791 225.658 25.8112 226.718 25.902L228.108 26.0179C226.885 26.2064 223.523 26.479 222.705 26.9097C222.393 26.942 219.188 26.8359 218.56 26.8384C216.17 27.0462 215.388 27.0387 213.17 27.7647C217.225 28.5884 231.605 30.2407 234.035 31.3574C235.458 30.8684 247.635 30.5724 249.243 31.1452C245.958 31.9849 242.71 32.4522 239.378 33.0177C234.54 33.8389 229.965 34.6609 225.053 35.0485C222.333 35.263 215.88 35.0815 213.96 36.1585L213.843 36.7054C223.37 38.7702 242.125 37.9307 252.118 37.0002C255.77 36.6602 266.21 34.6497 270.363 33.971C275.285 32.8202 279.918 32.1987 284.97 30.8984C286.903 30.0197 291.98 28.7702 294.095 28.1462C299.23 26.6299 304.455 25.2382 309.548 23.5584L310.453 24.4139C299.738 29.0462 293.86 31.4892 282.423 34.1675C281.685 34.352 280.975 34.5432 280.223 34.6684C274.033 36.1207 268.26 37.6157 261.94 38.4987C238.063 41.4854 213.01 41.4182 189.533 35.6209C187.244 35.0557 184.378 34.7262 182.002 34.2925C179.535 34.3577 176.496 33.6414 173.983 33.3754C165.77 32.5067 158.336 30.4097 150.403 28.2034L126.702 21.5222C124.787 21.2547 123.215 21.0657 121.289 20.9319C115.189 20.7734 110.207 21.4469 104.164 22.2592C92.7093 23.7542 81.3768 26.0727 70.255 29.1967C65.9905 30.3852 55.9728 34.0942 52.0188 34.3614C52.6063 33.9699 53.135 33.5752 53.7018 33.1542C53.1913 32.8814 53.152 32.7022 52.7773 32.2129L51.6493 32.9614L51.4653 33.0799L50.451 32.926C49.1513 30.798 57.0788 24.5047 58.9595 23.4999L58.4023 23.3004C58.533 22.2657 63.192 18.3102 64.1675 17.5185Z" fill="#FEFEFE"/>
<path d="M136.081 15.7539L136.748 16.0587C135.804 16.6639 135.855 16.4102 135.678 17.2057C136.476 17.8222 138.34 17.8494 139.489 18.3542L138.085 18.8889L137.96 19.2462C138.248 19.4064 138.592 19.6119 138.885 19.7489C136.281 19.5724 132.093 19.2304 129.628 19.5812C128.284 19.4172 128.124 18.6789 127.478 17.6039C124.607 17.5577 121.503 17.7597 118.689 17.4984C122.317 16.8209 127.242 17.5629 131.065 16.4822C133.026 16.5317 134.255 16.3819 136.081 15.7539Z" fill="#94CF40"/>
<path d="M144.362 15.1699L146.383 15.2877C160.219 15.0594 167.92 16.2872 181.456 18.3344C190.089 20.2439 198.682 22.3567 207.378 24.0434C208.043 24.1724 208.078 24.4739 208.428 24.9959C210.2 24.7479 212.27 24.6502 213.81 25.7902C215.885 26.6639 216.318 27.0047 218.56 26.8382C216.17 27.0459 215.388 27.0384 213.17 27.7644C217.225 28.5882 231.605 30.2404 234.035 31.3572C235.458 30.8682 247.635 30.5722 249.243 31.1449C245.958 31.9847 242.71 32.4519 239.378 33.0174C234.54 33.8387 229.965 34.6607 225.053 35.0482C222.333 35.2627 215.88 35.0812 213.96 36.1582L213.843 36.7052C223.37 38.7699 242.125 37.9304 252.118 36.9999C255.77 36.6599 266.21 34.6494 270.363 33.9707C275.285 32.8199 279.918 32.1984 284.97 30.8982C286.903 30.0194 291.98 28.7699 294.095 28.1459C299.23 26.6297 304.455 25.2379 309.548 23.5582L310.453 24.4137C299.738 29.0459 293.86 31.4889 282.423 34.1672C281.685 34.3517 280.975 34.5429 280.223 34.6682C274.033 36.1204 268.26 37.6154 261.94 38.4984C238.063 41.4852 213.01 41.4179 189.533 35.6207C187.244 35.0554 184.378 34.7259 182.002 34.2922C179.535 34.3574 176.496 33.6412 173.983 33.3752C165.77 32.5064 158.336 30.4094 150.403 28.2032L126.702 21.5219C124.787 21.2544 123.215 21.0654 121.289 20.9317L121.358 20.6707C122.343 20.1434 127.752 20.0149 129.628 19.5814C132.093 19.2307 136.282 19.5727 138.885 19.7492C138.593 19.6122 138.249 19.4067 137.96 19.2464L138.085 18.8892L139.489 18.3544C138.34 17.8497 136.476 17.8224 135.679 17.2059C135.855 16.4104 135.804 16.6642 136.748 16.0589C139.35 15.8207 142.397 16.4907 144.362 15.1699Z" fill="#EF4004"/>
<path d="M146.383 15.2879C160.219 15.0596 167.92 16.2874 181.456 18.3346C190.089 20.2441 198.682 22.3569 207.378 24.0436C208.043 24.1726 208.078 24.4741 208.428 24.9961C210.2 24.7481 212.27 24.6504 213.81 25.7904C215.885 26.6641 216.318 27.0049 218.56 26.8384C216.17 27.0461 215.388 27.0386 213.17 27.7646C207.305 27.6341 200.3 29.0301 193.241 28.8699C189.378 28.7494 185.524 28.4426 181.691 27.9501C178.858 27.5784 175.991 26.9691 173.159 27.0434C172.02 26.6309 170.9 26.3254 169.723 26.0476C164.513 24.8194 159.428 23.3329 154.318 21.7364C151.483 19.9234 151.235 19.9979 148.035 18.9144C148.744 18.1384 148.827 17.9254 149.792 17.6764C148.405 15.4371 149.979 15.6499 146.383 15.2879Z" fill="#EAE83D"/>
<path d="M146.383 15.2879C160.219 15.0596 167.92 16.2874 181.456 18.3346C190.089 20.2441 198.682 22.3569 207.378 24.0436C208.043 24.1726 208.078 24.4741 208.428 24.9961C206.313 25.4846 201.879 26.3094 199.793 25.6089C191.259 23.0009 163.143 17.0894 155.143 18.6796C153.644 18.6914 151.225 18.0569 149.792 17.6764C148.405 15.4371 149.979 15.6499 146.383 15.2879Z" fill="#94CF40"/>
<path d="M155.143 18.6796C163.143 17.0893 191.259 23.0008 199.793 25.6088C197.624 26.0803 194.278 25.9936 192.002 26.0603C179.242 26.4356 167.013 23.3138 155.143 18.6796Z" fill="#FEFEFE"/>
<path d="M173.159 27.0433C175.991 26.9691 178.858 27.5783 181.691 27.9501C185.524 28.4426 189.378 28.7493 193.241 28.8698C200.3 29.0301 207.305 27.6341 213.17 27.7646C217.225 28.5883 231.605 30.2406 234.035 31.3573C235.457 30.8683 247.635 30.5723 249.242 31.1451C245.957 31.9848 242.71 32.4521 239.377 33.0176C234.54 33.8388 229.965 34.6608 225.052 35.0483C222.332 35.2628 215.88 35.0813 213.96 36.1583L213.842 36.7053C212.145 36.7821 200.232 34.9143 198.2 34.5588L197.987 33.8621C198.434 31.9841 202.894 34.1883 204.686 33.0723C199.017 32.8916 191.409 33.0086 186.034 31.4466C181.985 30.2696 177.291 28.4276 173.159 27.0433Z" fill="#FEFEFE"/>
<path d="M234.035 31.3571C235.458 30.8681 247.635 30.5721 249.243 31.1449C245.958 31.9846 242.71 32.4518 239.378 33.0173C234.54 33.8386 229.965 34.6606 225.053 35.0481C222.333 35.2626 215.88 35.0811 213.96 36.1581L213.843 36.7051C212.145 36.7819 200.232 34.9141 198.2 34.5586L197.987 33.8619C198.435 31.9839 202.894 34.1881 204.686 33.0721C205.723 33.0676 215.583 32.7986 215.79 32.9094C216.698 32.9084 217.813 32.5891 218.798 32.6009C224.225 32.6659 228.695 32.0879 234.035 31.3571Z" fill="#286F96"/>
<path d="M126.702 21.5213C132.967 20.4461 154.417 27.1658 161.239 28.3491C162.247 28.5238 182.028 34.3138 182.001 34.2916C179.534 34.3568 176.496 33.6406 173.983 33.3746C165.77 32.5058 158.336 30.4088 150.403 28.2026L126.702 21.5213Z" fill="#286F96"/>
<path d="M152.372 21.3291L154.318 21.7356C159.427 23.3321 164.513 24.8186 169.722 26.0469C170.899 26.3246 172.019 26.6301 173.159 27.0426C177.291 28.4269 181.985 30.2688 186.034 31.4458C191.409 33.0078 199.017 32.8909 204.686 33.0716C202.894 34.1876 198.434 31.9834 197.987 33.8614L198.2 34.5581C196.191 34.3181 193.921 33.5259 191.891 33.2464C184.101 32.1749 177.308 29.9649 169.88 27.5136C164.302 25.6726 158.071 24.2806 152.315 22.9196L152.693 22.6941C152.354 22.1476 152.389 21.9484 152.372 21.3291Z" fill="#478194"/>
<path d="M144.362 15.1699L146.383 15.2877C149.979 15.6497 148.405 15.4369 149.791 17.6762C148.827 17.9252 148.744 18.1382 148.035 18.9142C145.892 18.4172 144.932 18.3487 142.753 18.7062C141.452 18.6644 140.776 18.6789 139.489 18.3544C138.34 17.8497 136.476 17.8224 135.678 17.2059C135.855 16.4104 135.804 16.6642 136.748 16.0589C139.35 15.8207 142.396 16.4907 144.362 15.1699Z" fill="#ABD525"/>
<path d="M139.489 18.3545C140.776 18.679 141.452 18.6645 142.753 18.7062C144.932 18.3487 145.892 18.4172 148.035 18.9142C151.235 19.9977 151.483 19.9232 154.318 21.7362L152.372 21.3297C152.389 21.949 152.354 22.1482 152.693 22.6947L152.315 22.9202C147.609 21.8527 143.585 21.0307 138.885 19.7492C138.592 19.6122 138.248 19.4067 137.96 19.2465L138.085 18.8893L139.489 18.3545Z" fill="#478194"/>
<path d="M142.753 18.7063C144.932 18.3488 145.892 18.4173 148.035 18.9143C151.235 19.9978 151.483 19.9233 154.318 21.7363L152.372 21.3298C149.637 20.3993 145.138 19.969 142.753 18.7063Z" fill="#FEFEFE"/>
<path d="M280.223 34.6682C279.783 34.3927 279.655 34.3992 279.138 34.2364C278.628 33.5862 278.715 33.9294 278.708 33.2309C279.33 32.7784 279.66 32.8572 280.435 32.8477C281.503 32.9314 281.835 32.7524 282.438 33.3752L282.423 34.1672C281.685 34.3517 280.975 34.5429 280.223 34.6682Z" fill="#F2691A"/>
<path d="M68.429 18.1026C87.0655 11.6954 112.207 8.24739 131.863 11.5951C136.545 12.3926 139.747 13.9429 144.091 15.0996L144.362 15.1699C142.397 16.4906 139.35 15.8206 136.748 16.0589L136.082 15.7541C134.256 16.3821 133.026 16.5319 131.065 16.4824C127.242 17.5631 122.317 16.8211 118.689 17.4986C121.503 17.7599 124.607 17.5579 127.478 17.6041C128.125 18.6791 128.284 19.4174 129.628 19.5814C127.752 20.0149 122.343 20.1434 121.358 20.6706L121.289 20.9316C115.189 20.7731 110.207 21.4466 104.164 22.2589C92.7093 23.7539 81.3768 26.0724 70.255 29.1964C65.9905 30.3849 55.9728 34.0939 52.0188 34.3611C52.6063 33.9696 53.135 33.5749 53.7018 33.1539C53.1913 32.8811 53.152 32.7019 52.7773 32.2126L51.6493 32.9611L51.4653 33.0796L50.451 32.9256C49.1513 30.7976 57.0788 24.5044 58.9595 23.4996L58.4023 23.3001C58.533 22.2654 63.192 18.3099 64.1675 17.5181C63.5748 18.4076 63.2503 18.8829 62.5435 19.6786L62.4468 20.3054C62.7195 20.4201 62.968 20.5074 63.2193 20.6571C64.1108 20.4576 67.4243 18.6286 68.429 18.1026Z" fill="#0C7597"/>
<path d="M68.429 18.1026C87.0655 11.6954 112.207 8.24739 131.863 11.5951C136.545 12.3926 139.747 13.9429 144.091 15.0996L144.362 15.1699C142.397 16.4906 139.35 15.8206 136.748 16.0589L136.082 15.7541C134.256 16.3821 133.026 16.5319 131.065 16.4824C126.247 15.0834 115.283 14.3534 109.681 13.6551C97.1223 13.6349 78.0618 16.9864 66.7458 22.3841C62.836 24.8321 58.903 27.2134 55.354 30.1726C54.5125 30.8741 53.666 31.5714 52.7773 32.2126L51.6493 32.9611L51.4653 33.0796L50.451 32.9256C49.1513 30.7976 57.0788 24.5044 58.9595 23.4996L58.4023 23.3001C58.533 22.2654 63.192 18.3099 64.1675 17.5181C63.5748 18.4076 63.2503 18.8829 62.5435 19.6786L62.4468 20.3054C62.7195 20.4201 62.968 20.5074 63.2193 20.6571C64.1108 20.4576 67.4243 18.6286 68.429 18.1026Z" fill="#EAE83D"/>
<path d="M109.681 13.6546C117.124 11.5149 128.081 13.1661 135.575 15.2289C135.741 15.2749 135.971 15.6086 136.081 15.7536C134.255 16.3816 133.026 16.5314 131.065 16.4819C126.247 15.0829 115.282 14.3529 109.681 13.6546Z" fill="#FEFEFE"/>
<path d="M59.9797 24.691C61.7887 23.9625 64.9154 22.5858 66.7457 22.3838C62.8359 24.8318 58.9029 27.213 55.3539 30.1723C54.5124 30.8738 53.6659 31.571 52.7772 32.2123L51.6492 32.9608C53.3747 29.5033 56.4009 26.258 59.9797 24.691Z" fill="#FEFEFE"/>
<path d="M58.9596 23.4991L58.4023 23.2996C58.5331 22.2648 63.1921 18.3093 64.1676 17.5176C63.5748 18.4071 63.2503 18.8823 62.5436 19.6781L62.4468 20.3048C62.7196 20.4196 62.9681 20.5068 63.2193 20.6566C61.8426 21.6556 60.5706 22.5763 59.1406 23.4956L58.9596 23.4991Z" fill="#84B6C0"/>
<path d="M107.941 18.0578C110.234 18.6835 115.566 17.544 118.689 17.498C121.503 17.7593 124.607 17.5573 127.478 17.6035C128.125 18.6785 128.284 19.4168 129.628 19.5808C127.752 20.0143 122.343 20.1428 121.358 20.67L121.289 20.931C115.189 20.7725 110.207 21.446 104.164 22.2583C92.7093 23.7533 81.3768 26.0718 70.255 29.1958C65.9905 30.3843 55.9728 34.0933 52.0188 34.3605C52.6063 33.969 53.135 33.5743 53.7018 33.1533C57.1455 31.5973 60.3068 29.763 63.6935 28.107L64.8635 27.8658C69.4893 25.7333 76.5373 23.4448 81.4745 22.2648C84.0358 21.3805 90.477 20.232 93.211 19.9173C94.7363 19.3378 103.909 18.4918 105.845 18.4103C106.52 18.3188 107.263 18.175 107.941 18.0578Z" fill="#DBB90A"/>
<path d="M93.211 19.9181C94.7363 19.3386 103.909 18.4926 105.845 18.4111L106.918 18.6576L106.823 18.9766C105.33 19.6924 94.9068 21.0329 92.951 21.0631C90.4643 21.9459 85.6853 22.7126 83.0268 23.1819C80.0765 23.8706 77.156 24.6806 74.2728 25.6101C71.976 26.3401 67.0485 28.3114 64.8635 27.8666C69.4893 25.7341 76.5373 23.4456 81.4745 22.2656C84.0358 21.3814 90.477 20.2329 93.211 19.9181Z" fill="#EF4004"/>
<path d="M63.6936 28.1074C71.5671 21.3601 98.2634 13.7394 107.941 18.0581C107.263 18.1754 106.52 18.3191 105.845 18.4106C103.909 18.4921 94.7364 19.3381 93.2111 19.9176C90.4771 20.2324 84.0359 21.3809 81.4746 22.2651C76.5374 23.4451 69.4894 25.7336 64.8636 27.8661L63.6936 28.1074Z" fill="#FEFEFE"/>
<path d="M64.1675 17.5185C65.4968 16.0515 68.9663 13.8219 70.712 12.7569C82.1083 5.8327 95.036 1.8252 108.351 1.08895C122.536 0.381947 134.681 2.4697 148.311 5.66095C157.497 7.7707 166.616 10.1652 175.653 12.8407C182.019 14.7 188.356 16.7144 194.811 18.2509C198.083 19.0297 221.495 23.5027 222.145 23.9557C222.718 23.9509 223.203 23.9567 223.775 23.9074C222.905 24.4822 222.998 24.2227 222.818 24.9885C223.495 25.791 225.658 25.8112 226.718 25.902L228.108 26.0179C226.885 26.2064 223.523 26.479 222.705 26.9097C222.393 26.942 219.188 26.8359 218.56 26.8384C216.318 27.0049 215.885 26.6642 213.81 25.7904C212.27 24.6504 210.2 24.7482 208.428 24.9962C208.078 24.4742 208.043 24.1727 207.378 24.0437C198.682 22.3569 190.089 20.2442 181.456 18.3347C181.393 18.2522 181.342 18.1587 181.268 18.0869C179.634 16.5179 150.189 8.65569 145.602 7.72469C138.661 6.31544 131.559 5.3042 124.518 4.5217C105.87 2.44945 83.4293 6.11919 68.429 18.1029C67.4243 18.6289 64.1108 20.4579 63.2193 20.6574C62.968 20.5077 62.7195 20.4204 62.4468 20.3057L62.5435 19.6789C63.2503 18.8832 63.5748 18.408 64.1675 17.5185Z" fill="#99D0E1"/>
<path d="M222.145 23.9555C222.718 23.9507 223.203 23.9565 223.775 23.9072C222.905 24.482 222.998 24.2225 222.818 24.9882C223.495 25.7907 225.658 25.811 226.718 25.9017L228.108 26.0177C226.885 26.2062 223.523 26.4787 222.705 26.9095C222.393 26.9417 219.188 26.8357 218.56 26.8382C216.318 27.0047 215.885 26.664 213.81 25.7902C215.893 25.6812 220.368 24.9392 222.145 23.9555Z" fill="#F5F164"/>
<path d="M41.249 44.8604C43.6463 45.6214 49.2495 45.3038 51.9395 45.2773C52.1698 50.4763 54.2041 57.3839 55.0791 62.6221C58.0201 80.7854 61.3117 98.8902 64.9502 116.927L53.4648 117.005C53.2568 112.539 50.8437 101.877 49.9736 97.0254C41.5451 97.0844 33.116 97.0883 24.6875 97.0381L21.792 97.0273C18.2717 103.612 14.6473 110.641 10.7285 116.963C7.47993 116.997 4.2601 116.922 0.989258 116.982C3.32426 113.106 5.77671 108.433 7.99121 104.428L19.8369 83.0898C26.8746 70.3953 34.3524 57.6174 41.249 44.8604ZM42.915 59.4092C42.0833 61.5029 37.87 68.6914 36.4443 71.1201C33.2561 76.5516 29.8722 83.345 26.4404 88.457L32.625 88.4678L48.6416 88.459L45.166 69.3398C44.577 66.2351 43.6294 62.8559 43.2314 59.7734L42.915 59.4092Z" fill="#585757"/>
<path d="M185.268 63.1094C189.601 62.8741 198.388 63.8756 201.076 67.8174C204.71 73.1465 202.144 82.6869 200.984 88.624L197.253 107.443C196.694 110.299 195.87 113.908 195.5 116.731L195.468 116.991L184.32 116.949C184.891 115.006 185.431 112.762 185.962 110.79C180.316 116.644 165.86 121.549 159.332 114.594C158.28 113.473 157.825 112.465 157.193 111.108C156.646 109.544 155.978 107.706 156.1 106.049C157.454 87.6554 176.552 85.3375 190.907 85.4805C191.262 82.8234 192.454 76.1369 191.373 74.2754C187.515 67.6381 169.697 73.362 165.219 75.5957C165.393 74.1947 166.313 67.6124 166.837 67.1074C169.772 64.2782 181.388 63.2947 185.268 63.1094ZM189.115 92.415C187.193 92.442 185.272 92.5015 183.352 92.5928C178.458 93.1828 172.151 94.8806 168.931 98.9238C166.637 101.804 165.809 106.378 169.291 108.645C170.437 109.39 169.696 109.281 173.5 109.5C176.83 109.692 181.08 107.569 185.271 104.128C186.462 103.151 187.27 101.792 187.636 100.296C188.273 97.6849 188.763 95.2399 189.115 92.415Z" fill="#585757"/>
<path d="M333.912 63.109C342.492 62.8503 353.215 65.1014 351.915 76.277C351 84.1438 348.967 92.4354 347.462 100.24L345.768 109.288C345.32 111.757 345.69 111.99 344.43 114.317L344.662 116.976C341.022 117.005 337.385 116.985 333.747 116.918C334.027 114.304 334.068 113.503 334.898 110.987C333.82 111.988 332.645 112.876 331.385 113.636C326.44 116.671 319.703 119.023 313.875 117.583C310.635 116.781 307.848 114.724 306.13 111.865C302.2 101.916 309.017 92.6705 318.055 88.9352C325.695 85.7777 331.805 85.404 339.89 85.4665C340.26 82.7557 341.56 75.7428 340.058 73.7673C335.795 68.1638 318.259 73.0437 314.069 75.82C314.322 73.3722 315.248 69.2738 315.74 66.7546C320.178 64.4367 328.795 63.3553 333.912 63.109ZM337.952 92.0007C332.675 92.1296 328.745 92.2943 323.813 94.5807C319.025 96.8007 316.653 98.9505 316 104.057C315.774 105.829 316.629 107.247 318.225 108.13C322.132 110.29 324.025 109.309 328.202 107.851C330.86 106.923 335.815 103.714 336.785 101.018C337.258 99.7071 338.155 93.9336 338.26 92.4557L338.06 92.0387L337.952 92.0007Z" fill="#585757"/>
<path d="M141.283 63.1058C149.066 63.0725 158.971 65.928 159.119 75.3606C159.187 79.6936 157.576 82.7912 154.525 85.806C147.806 92.4466 136.9 94.5191 127.743 94.5384C125.667 94.5404 123.631 94.5354 121.577 94.5276C121.546 96.8933 121.425 99.6436 122.012 101.937C125.118 114.073 143.866 108.852 152.259 106.531L152.318 106.853C151.723 109.425 151.509 112.276 150.83 115.159C140.503 118.609 125.477 120.176 116.382 112.924C112.848 110.106 110.97 104.391 110.828 99.9808C110.532 90.7896 113.007 80.4795 119.24 73.4808C125.738 66.3173 131.818 63.7085 141.283 63.1058ZM139.893 71.3597C134.918 70.9369 131.574 73.3803 128.424 77.011C126.827 78.8512 124.086 83.7001 123.245 86.0804C126.471 86.1401 128.924 86.174 132.5 85.4993C139.738 84.1336 152.275 82.5904 148.673 76.1653C146.761 72.7562 143.788 71.6906 139.893 71.3597Z" fill="#585757"/>
<path d="M241.86 63.0966C258.408 62.5421 253.568 77.9131 251.693 88.2439C249.935 97.8661 247.998 107.455 245.88 117.005C242.308 117.018 238.738 116.962 235.168 116.842C236.975 109.113 238.423 101.273 239.84 93.4034C240.425 90.1599 244.443 74.0986 241.57 72.2751C235.748 68.5761 227.673 74.9386 223.795 79.3679C223.125 80.1901 222.303 81.4969 222.01 82.5446C219.333 92.1584 218.23 102.219 216.035 111.967C215.89 112.618 215.233 116.7 214.975 116.748C212.035 117.298 207.47 116.937 204.427 116.906C207.825 102.317 210.038 87.0691 212.975 72.3511C213.495 69.7404 214.44 66.8961 214.29 64.2546C217.865 64.3916 221.625 64.4111 225.22 64.4961C224.825 66.8569 224.32 69.1981 223.708 71.5121C229.073 65.8401 234.205 63.8391 241.86 63.0966Z" fill="#585757"/>
<path d="M271.07 52.8734C273.42 52.8919 275.72 52.8559 278.065 52.7534C279.305 52.6992 279.975 52.7687 280.655 53.8219C281.043 56.5002 279.713 57.6299 279.483 59.7354C279.178 62.5172 279.893 61.4824 278.28 64.2107C282.578 64.2227 286.873 64.3214 291.165 64.5064C290.79 67.2439 290.463 69.8269 289.89 72.5329C285.608 72.4524 281.325 72.4394 277.043 72.4939C276.583 74.5294 276.315 76.7714 275.935 78.8459C274.393 87.2457 272.565 95.6072 271.21 104.038C270.605 107.815 271.338 108.364 274.595 109.856C277.34 109.368 279.77 108.998 282.56 108.957C282.55 110.173 282.588 111.101 282.313 112.3C282.073 112.924 281.25 116.66 281.523 116.361C279.408 118.7 268.64 118.152 266.3 117.342C262.453 116.013 261.54 114.359 260.498 111.807C258.29 106.404 267.45 75.3832 266.01 72.7524C264.385 72.3102 261.555 72.4734 259.828 72.5132C260.118 69.8819 260.745 67.1234 261.063 64.2034C263.148 64.2289 266.035 64.1604 268.015 64.5584C268.913 61.7294 269.83 54.1661 270.328 53.0364L271.07 52.8734Z" fill="#585757"/>
<path d="M82.906 40.9883L93.8745 41.0575C93.0052 46.0123 91.485 51.6435 90.4843 56.8633L78.8607 116.992C75.2987 116.983 71.6808 116.89 68.1145 116.83C70.6835 105.802 72.4808 94.6508 74.6005 83.513L82.906 40.9883Z" fill="#585757"/>
<path d="M103.349 40.9922L114.105 41.0454C112.903 49.6467 110.438 61.2044 108.696 69.8122L103.075 98.8247C102.048 104.129 100.305 111.75 99.6313 116.952L88.9043 116.982C92.4255 100.251 95.41 83.2552 98.6615 66.4662L101.63 51.4357C102.226 48.4452 103.255 43.9097 103.349 40.9922Z" fill="#585757"/>
<path d="M295.153 64.1885C298.648 64.3487 302.56 64.2605 306.09 64.2507C302.483 81.5335 299.255 99.5752 295.833 116.974L285.238 116.965C288.73 101.444 290.818 85.3315 294.463 69.8032C294.905 67.9175 295.6 66.034 295.153 64.1885Z" fill="#585757"/>
<path d="M344.035 5.91113L344.295 6.33389C339.167 7.87414 335.762 9.92789 331.175 11.9429C326.712 13.9031 316.435 17.8406 311.755 18.5911C307.795 19.6619 303.98 21.2304 300.062 22.4749C293.32 24.5996 286.445 26.2706 279.48 27.4774C270.615 28.9651 261.83 29.5404 252.915 30.5004C251.835 30.6164 250.265 30.8499 249.242 31.1449C247.635 30.5721 235.457 30.8681 234.035 31.3571C231.605 30.2404 217.225 28.5881 213.17 27.7644C215.387 27.0384 216.17 27.0459 218.56 26.8381C219.187 26.8356 222.392 26.9416 222.705 26.9094C223.522 26.4786 226.885 26.2061 228.107 26.0176C229.977 25.8974 231.892 25.3479 233.72 24.8949C242.995 25.8091 257.285 25.8529 266.285 23.8616C267.497 24.4411 268.052 24.1721 269.3 24.4499C268.352 24.5229 267.712 24.4796 266.897 24.9581L266.657 25.3296C266.925 25.9736 266.702 25.7654 267.202 26.1079C269.665 25.9219 271.99 25.8594 274.28 24.9329C276.365 24.4541 278.757 23.4511 280.787 22.6754C283.44 22.1286 286.107 21.6374 288.77 21.1501C304.932 18.1919 320.865 13.3814 336.54 8.49089C338.832 7.77564 341.862 6.87413 344.035 5.91113Z" fill="#94CF40"/>
<path d="M344.035 5.91113L344.295 6.33389C339.168 7.87414 335.763 9.92789 331.175 11.9429C326.713 13.9031 316.435 17.8406 311.755 18.5911C308.798 18.1849 303.983 20.0646 300.815 20.6424C294.085 21.8696 282.858 25.0121 276.128 24.9399L274.28 24.9329C276.365 24.4541 278.758 23.4511 280.788 22.6754C283.44 22.1286 286.108 21.6374 288.77 21.1501C304.933 18.1919 320.865 13.3814 336.54 8.49089C338.833 7.77564 341.863 6.87413 344.035 5.91113Z" fill="#99D0E1"/>
<path d="M233.72 24.8946C242.995 25.8088 257.285 25.8526 266.285 23.8613C267.498 24.4408 268.053 24.1718 269.3 24.4496C268.353 24.5226 267.713 24.4793 266.898 24.9578L266.658 25.3293C266.925 25.9733 266.703 25.7651 267.203 26.1076C256.975 28.1746 242.285 27.3873 231.655 27.5418C229.05 27.5796 224.56 26.7926 222.705 26.9091C223.523 26.4783 226.885 26.2058 228.108 26.0173C229.978 25.8971 231.893 25.3476 233.72 24.8946Z" fill="#99D0E1"/>
<path d="M299.117 45.0371C301.355 45.3876 307.057 45.2729 309.777 45.3646C309.005 48.9094 308.372 52.3596 307.512 55.9129C304.01 56.0169 300.515 55.9216 296.97 56.0511C297.585 52.4404 298.4 48.6459 299.117 45.0371Z" fill="#585757"/>
<path d="M285.93 17.8379L286.202 18.4799C284.085 19.5202 281.842 20.5762 279.767 21.6767C279.045 23.3294 272.832 24.3724 271 24.7796L271.32 24.8916L270.762 24.9216C275.727 24.8136 278.13 22.6404 280.787 22.6756C278.757 23.4514 276.365 24.4544 274.28 24.9332C271.99 25.8597 269.665 25.9222 267.202 26.1082C266.702 25.7657 266.925 25.9739 266.657 25.3299L266.897 24.9584C267.712 24.4799 268.352 24.5231 269.3 24.4501C268.052 24.1724 267.497 24.4414 266.285 23.8619C268.345 23.5136 269.195 23.2317 271.19 22.5412C275.862 20.7399 281.125 19.4989 285.93 17.8379Z" fill="#1B7C99"/>
<path d="M272.405 23.5995C275.6 23.4635 276.822 22.796 279.767 21.6758C279.045 23.3285 272.832 24.3715 271 24.7788L271.32 24.8908L270.762 24.9208C275.727 24.8128 278.13 22.6395 280.787 22.6748C278.757 23.4505 276.365 24.4535 274.28 24.9323C271.99 25.8588 269.665 25.9213 267.202 26.1073C266.702 25.7648 266.925 25.973 266.657 25.329L266.897 24.9575C267.712 24.479 268.352 24.5223 269.3 24.4493C268.052 24.1715 267.497 24.4405 266.285 23.861C268.345 23.5128 269.195 23.2308 271.19 22.5403L272.405 23.5995Z" fill="#D9E3EE"/>
<path d="M266.285 23.8618C268.345 23.5135 269.195 23.2315 271.19 22.541L272.405 23.6003C271.257 24.0645 270.53 24.48 269.3 24.45C268.052 24.1723 267.497 24.4413 266.285 23.8618Z" fill="#478194"/>
<path d="M223.775 23.9065C226.035 23.5623 243.83 20.8545 244.345 21.2288C243.295 21.8163 235.752 24.1523 233.72 24.8943C231.892 25.3473 229.977 25.8968 228.107 26.017L226.717 25.901C225.657 25.8103 223.495 25.79 222.817 24.9875C222.997 24.2218 222.905 24.4813 223.775 23.9065Z" fill="#EAE83D"/>
<path d="M52.7772 32.2129C53.1519 32.7021 53.1912 32.8814 53.7017 33.1541C53.1349 33.5751 52.6062 33.9699 52.0187 34.3614C50.7267 34.9819 49.2854 35.5761 47.9609 36.1514C48.8462 35.2486 50.4394 33.9871 51.4652 33.0799L51.6492 32.9614L52.7772 32.2129Z" fill="#427A72"/>
<path d="M316.35 21.2715C314.362 22.5242 312.567 23.4105 310.452 24.414L309.547 23.5585C311.822 22.82 314.09 22.0575 316.35 21.2715Z" fill="#F2691A"/>
<path d="M290.245 16.2402C289.242 17.1405 287.465 17.8932 286.202 18.4795L285.93 17.8375C287.352 17.2662 288.792 16.7337 290.245 16.2402Z" fill="#758D93"/>
<path d="M344.035 5.91123C344.882 5.54323 345.965 4.94398 346.832 5.01798C346.455 5.55473 344.965 6.09424 344.295 6.33399L344.035 5.91123Z" fill="#D9E3EE"/>
</g>
<defs>
<clipPath id="clip0_2834_3450">
<rect width="353" height="119" fill="white"/>
</clipPath>
</defs>
</svg>
