<svg width="800" height="94" viewBox="0 0 800 94" fill="none" xmlns="http://www.w3.org/2000/svg">
<path d="M564.433 6.14673C570.286 6.14397 576.194 5.93433 581.904 6.49829C608.224 9.09835 620.961 32.0324 617.179 56.7913C616.041 64.2657 613.086 76.8126 606.726 81.8108C606.363 82.2239 605.984 82.6226 605.591 83.0071C594.8 93.5317 574.667 92.3293 560.736 92.3469C552.059 92.3756 543.382 92.3391 534.706 92.2385C534.408 82.2988 534.621 71.2967 534.621 61.2854L534.702 6.17505L564.433 6.14673ZM579.914 30.3655C576.289 27.3817 568.428 27.1349 563.739 27.2336L563.728 69.8586C570.653 70.0525 577.388 71.0526 582.367 65.2034C588.23 56.5181 588.66 37.5706 579.914 30.3655Z" fill="#6F6F74"/>
<path d="M32.623 6.17432C45.1726 6.21004 58.9139 4.72158 69.834 12.064C78.3689 17.8026 80.104 29.2389 76.5273 38.3276C74.0599 44.5382 68.5066 46.9171 62.7998 49.147C65.0012 49.5108 66.1771 49.8243 68.1953 50.7925C73.4553 53.289 77.4823 57.8065 79.3623 63.3169C80.4883 66.5467 81.1048 73.9609 79.6445 76.9731C76.4192 85.0802 70.5924 88.9636 62.2617 90.6802C52.2555 92.7416 41.4976 92.3482 31.3037 92.3306L0.856445 92.3501L0.878906 6.19873C11.4052 6.05053 22.0921 6.14432 32.623 6.17432ZM47.3711 62.1655C42.8915 58.7418 35.9555 59.5777 30.541 59.6489C30.3909 64.2256 30.4509 68.7742 30.4844 73.3521C36.0144 73.46 42.3683 74.2804 47.1094 71.5933C49.2816 69.0182 50.4994 64.5567 47.3711 62.1655ZM44.9775 26.4624C39.6357 24.355 36.2023 24.8927 30.4404 24.9771L30.4648 38.9849C35.336 39.0539 41.5331 39.7985 45.502 37.1538C48.9288 33.349 47.9732 30.1044 44.9775 26.4624Z" fill="#6F6F74"/>
<path d="M121.596 6.15576C130.045 6.15459 136.945 5.84251 145.474 7.01611C166.163 9.66167 175.258 31.5007 163.207 48.2759C161.479 50.6817 158.707 52.8462 156.774 55.3042C158.336 58.5461 161.47 62.752 163.452 65.9604C168.75 74.5376 175.471 83.5567 180.486 92.1919C176.445 92.3766 172.314 92.3548 168.264 92.3794C160.679 92.3878 153.095 92.3501 145.512 92.2671C142.322 88.6983 132.634 72.8988 129.389 67.9526L117.251 67.9341C117.629 75.1629 117.325 84.7694 117.302 92.144C107.813 92.5817 97.3224 92.3382 87.7529 92.2993C87.5058 82.2415 87.6973 71.4601 87.7002 61.355L87.6816 6.1792L121.596 6.15576ZM134.71 30.5317C131 25.9738 122.603 26.8723 117.288 26.9849C117.297 33.6639 117.17 40.8104 117.328 47.4487C120.495 47.4924 132.083 48.1946 133.707 44.9204C138.124 41.1527 138.253 34.8846 134.71 30.5317Z" fill="#6F6F74"/>
<path d="M371.943 6.15137L401.27 6.17604L401.325 65.2397L401.332 82.7552C401.332 84.5993 401.835 91.2795 400.594 92.2074C391.047 92.4057 381.497 92.4255 371.95 92.2665L371.913 62.4821L349.912 62.5665L349.905 92.1024C340.323 92.583 329.855 92.4104 320.246 92.1887C319.651 63.9229 320.51 34.638 320.168 6.18654L349.887 6.18236L349.911 35.1779L371.906 35.1793L371.943 6.15137Z" fill="#6F6F74"/>
<path d="M262.485 2.71006C269.927 1.56247 281.538 3.49768 288.349 6.6166C299.599 11.7678 304.718 18.5612 309.088 29.7085C305.68 31.1541 285.91 39.8407 284.156 39.183C283.764 37.3038 282.536 36.5178 281.398 35.1312C274.728 26.9586 262.221 27.3329 255.131 34.8765C244.813 45.8537 251.694 65.9565 267.544 65.5768C272.718 65.4531 277.962 63.2481 281.136 59.0516C282.372 57.4172 283.211 55.625 284.637 54.0949C286.481 53.0212 305.964 53.5364 309.55 53.561L309.622 62.2931C309.665 72.2553 309.645 82.2178 309.562 92.1796C302.84 92.5126 295.747 92.3522 288.996 92.2677L288.958 82.7186C271.441 95.0187 250.046 97.0646 233.324 82.6492C215.799 67.5424 216.606 34.6539 231.479 18.0887C239.11 9.58905 251.204 3.46638 262.485 2.71006Z" fill="#6F6F74"/>
<path d="M626.44 6.17505L692.641 6.18452C692.721 13.0625 692.659 20.0394 692.659 26.9255L655.889 27.016L655.893 38.9619C667.767 39.1018 679.885 38.9802 691.778 38.9832L691.759 60.7038C681.232 60.4181 669.251 60.7192 658.643 60.7321C657.402 60.7537 657.347 60.5742 656.363 61.1521C655.316 63.0439 655.889 69.8049 655.944 72.4009L692.641 72.4486C692.696 79.0573 692.699 85.6659 692.652 92.2746C671.593 92.5922 647.48 92.6234 626.444 92.2331C626.121 82.3131 626.341 70.9905 626.349 60.9781L626.44 6.17505Z" fill="#6F6F74"/>
<path d="M408.078 6.18215L486.821 6.18164L486.814 30.621C478.967 30.491 470.323 29.1322 462.164 28.8536L462.186 67.8963L462.205 92.5115C452.555 92.7873 442.446 92.6253 432.782 92.5644C432.569 71.5304 432.789 49.9222 432.837 28.8671C425.255 29.0147 415.895 30.1286 408.103 30.6361L408.078 6.18215Z" fill="#6F6F74"/>
<path d="M745.203 6.16504C748.17 10.5534 752.227 18.4396 755.172 23.2508C757.056 26.3268 762.81 36.0089 764.029 38.8771C758.598 39.4378 752.51 41.0424 748.798 45.2287C738.634 56.6886 746.411 66.6974 751.038 78.0568C752.833 82.4674 753.836 87.5093 753.917 92.1435C744.116 92.496 733.505 92.326 723.635 92.3242L695.618 92.2875C696.687 89.9334 699.727 84.9639 701.097 82.5838L712.186 63.3164C723.08 44.4121 734.107 24.9003 745.203 6.16504Z" fill="#6F6F74"/>
<path d="M184.825 6.18286L214.433 6.18382L214.44 63.257C214.444 71.2965 214.911 84.6787 214.325 92.1366C205.088 92.6511 194.188 92.3643 184.841 92.2934C184.43 63.897 184.807 34.64 184.825 6.18286Z" fill="#6F6F74"/>
<path d="M495.413 6.20136C504.508 5.86454 515.686 6.17272 524.95 6.16912L524.931 92.179C515.296 92.5749 505.096 92.3502 495.428 92.2635L495.413 6.20136Z" fill="#6F6F74"/>
<path d="M779.954 65.2324C780.512 65.6044 794.201 89.4675 795.846 92.1318C793.316 92.3801 789.949 92.3419 787.342 92.3779C781.794 92.369 776.245 92.3184 770.697 92.2266C770.734 81.7823 775.383 74.071 779.954 65.2324Z" fill="#6F6F74"/>
</svg>
