<svg width="293" height="67" viewBox="0 0 293 67" fill="none" xmlns="http://www.w3.org/2000/svg">
<g clip-path="url(#clip0_2834_3340)">
<path d="M34.7854 0.49707C44.8745 0.650489 51.3684 2.47945 59.4424 8.80258C57.0283 11.4961 53.7698 14.5261 51.1949 17.2111C49.6249 15.855 47.8536 14.7508 45.9442 13.938C40.0648 11.3783 32.2683 11.0126 26.2029 13.3021C9.75098 19.4967 9.71384 47.3384 25.8928 53.8794C32.6609 56.6157 41.3434 56.0122 48.0359 53.3437C47.8368 49.4074 48.0019 44.0092 48.0003 39.9601L35.0165 39.9769C35.1704 37.1651 35.4679 31.722 35.8755 28.9777C37.7777 28.9395 39.7742 28.9662 41.6843 28.962L60.3782 28.9577C60.3745 39.3491 60.2418 50.0264 60.4075 60.3947C53.2472 64.4232 45.2079 66.6379 36.9928 66.8451C27.5438 67.1445 17.4223 64.4407 10.3542 57.8544C-2.26075 46.0994 -2.28743 22.8407 9.51273 10.4944C16.4088 3.27908 25.0723 0.769746 34.7854 0.49707Z" fill="#182A55"/>
<path d="M235.289 21.0433C236.048 21.008 236.809 20.987 237.568 20.9805C247.653 20.9593 255.412 25.5635 258.01 35.57C259.12 39.8437 259.078 43.3803 259.083 47.7328L227.079 47.7404C228.842 55.0883 234.638 57.7701 241.865 56.326C245.123 55.6751 247.407 53.5624 249.74 51.3591L252.706 53.5967C254.04 54.4927 256.034 56.1258 257.365 57.1465C253.752 61.9151 248.408 65.0757 242.485 65.948C236.054 66.9323 229.171 65.7211 223.986 61.86C210.127 51.5381 213.278 27.032 230.405 22.0505C232.144 21.5447 233.534 21.3007 235.289 21.0433ZM227.116 38.72L237.308 38.7117L247.364 38.7135C246.517 33.3415 243.327 29.7453 237.55 30.0621C231.813 30.3793 228.398 33.1031 227.116 38.72Z" fill="#182A55"/>
<path d="M83.5539 21.0487C84.6084 21.0029 85.6638 20.9802 86.7192 20.9805C91.9014 20.9719 97.79 22.1167 101.612 25.8754C106.711 30.8907 105.644 39.1429 105.645 45.7534L105.649 65.1707L95.3367 65.1921C95.1751 63.6161 95.0949 62.5219 95.0763 60.9339C94.258 61.9674 93.273 62.8572 92.1617 63.5668C86.0586 67.5254 74.8174 67.2865 69.4673 62.0239C68.6584 61.2282 68.1356 60.4748 67.5222 59.5251C66.4193 57.5132 65.9222 55.2632 65.9224 52.9895C65.9241 37.9405 83.7717 37.9199 94.4043 37.8751C94.3606 32.7835 91.602 30.4035 86.6935 30.1059C81.6646 29.8011 77.6069 31.3318 73.8484 34.6495C71.6165 32.4809 69.327 30.0527 67.0984 27.8265C71.5537 23.6572 77.6573 21.8204 83.5539 21.0487ZM83.3341 57.2602C88.5604 57.2255 93.8978 54.1974 94.3534 48.5535C94.4086 47.8709 94.3963 47.1369 94.3909 46.4504L94.3903 46.3738C92.7467 46.3595 90.4409 46.3328 88.8057 46.5117C85.174 46.7811 78.1288 47.3078 77.5704 51.9601C77.1581 55.3939 80.4271 57.0255 83.3341 57.2602Z" fill="#182A55"/>
<path d="M192.658 21.0459C193.306 21.0082 193.953 20.9864 194.603 20.9805C198.589 20.9742 202.792 21.9969 205.656 24.9296C211.158 30.5636 210.19 39.8766 210.184 47.1675L210.188 65.1781C206.311 65.1728 202.229 65.1076 198.368 65.2138L198.378 48.0125C198.379 44.6352 198.441 41.4471 198.15 38.0724C197.544 31.0469 190.088 29.8788 185.266 33.6818C182.782 36.2345 182.353 38.8154 182.316 42.2994C182.292 44.6866 182.31 47.0812 182.31 49.4684L182.319 65.1696C178.579 65.1684 174.318 65.0726 170.622 65.2238L170.619 21.9942L181.53 21.9664C181.52 23.7974 181.62 25.7676 181.64 27.6276C184.377 23.3546 187.776 21.8114 192.658 21.0459Z" fill="#182A55"/>
<path d="M142.297 9.86319L154.003 9.85156L154.001 21.9999C157.796 21.9175 161.82 21.9795 165.632 21.9741C165.245 25.2344 165.044 28.8041 164.72 32.1189C161.146 32.0989 157.573 32.1006 153.999 32.1242L153.988 45.1851C153.986 54.2949 153.496 57.8562 164.409 55.4553L165.656 55.0881C165.225 57.7772 164.99 62.0936 164.736 64.9682C162.097 65.6261 159.39 65.9691 156.672 65.9901C145.207 65.9982 142.073 60.6581 142.286 49.8635C142.348 46.7229 142.295 43.2423 142.295 40.0802L142.297 9.86319Z" fill="#182A55"/>
<path d="M264.152 22.0057C267.76 21.9156 271.632 21.973 275.256 21.963C275.445 23.7003 275.48 25.5492 275.546 27.3016C279.726 21.7585 284.408 21.9709 290.838 21.9715C290.695 25.0786 290.324 29.0203 289.979 32.1292C289.158 32.1142 288.337 32.106 287.517 32.1047C284.273 32.1083 281.246 32.464 278.877 34.915C275.928 37.9639 275.942 41.0545 275.956 44.9289L275.946 65.184L264.158 65.189L264.152 22.0057Z" fill="#182A55"/>
<path d="M112.861 22.0036L123.991 21.9678C124.075 23.2995 124.257 26.2331 124.148 27.4549C127.836 22.1529 132.491 21.9778 138.472 21.9686C138.392 23.9031 137.835 30.4999 137.528 32.1281C136.842 32.1135 136.156 32.1065 135.47 32.1073C132.441 32.1226 129.745 32.6149 127.553 34.8672C124.346 38.1613 124.561 42.0089 124.591 46.2145L124.607 65.1873C120.845 65.0898 116.693 65.1758 112.91 65.1906C112.682 54.7925 113.065 44.0052 112.909 33.5679C112.851 29.7395 113.001 25.8289 112.861 22.0036Z" fill="#182A55"/>
<path d="M285.447 54.4583C286.829 54.3609 287.983 54.411 289.25 55.0627C290.593 55.7454 291.604 56.9386 292.055 58.3737C292.533 59.873 292.399 61.4994 291.682 62.9003C290.731 64.718 289.394 65.3607 287.574 65.9266C285.952 66.0732 284.649 65.9783 283.222 65.0712C281.921 64.2467 281.007 62.9324 280.69 61.4263C279.962 57.9843 282.09 55.1359 285.447 54.4583ZM287.492 64.8516C290.081 64.2704 291.699 61.6944 291.099 59.113C290.498 56.5316 287.908 54.9327 285.329 55.5514C282.775 56.1639 281.195 58.7194 281.789 61.2744C282.383 63.8294 284.93 65.4267 287.492 64.8516Z" fill="#182A55"/>
<path d="M284.216 56.8341C285.7 56.8087 289.929 56.4651 289.154 59.1391C288.861 60.1527 288.446 60.2288 287.569 60.664C287.669 61.4064 289.162 62.8153 289.224 63.531L288.988 63.6338C288.419 63.5816 288.416 63.6738 288.046 63.3557C287.383 62.4198 286.823 60.5271 285.603 60.6237C284.745 61.411 285.673 62.8221 285.198 63.6137C284.802 63.6234 284.684 63.6343 284.339 63.41C284.114 63.0738 284.216 57.6867 284.216 56.8341ZM285.286 59.7451C286.38 59.7393 286.856 59.7728 287.911 59.5297C288.001 59.0061 288.097 58.6988 287.888 58.2101C287.335 57.502 286.139 57.7263 285.29 57.7043L285.286 59.7451Z" fill="#182A55"/>
</g>
<defs>
<clipPath id="clip0_2834_3340">
<rect width="292.863" height="67" fill="white"/>
</clipPath>
</defs>
</svg>
