<svg width="392" height="199" viewBox="0 0 392 199" fill="none" xmlns="http://www.w3.org/2000/svg">
<path d="M201.639 73.4292C213.393 73.5788 225.235 73.3402 236.989 73.4803C246.803 73.6025 256.899 75.1662 264.019 82.5583C274.96 93.9177 275.951 113.112 271.701 127.547C270.207 132.624 267.432 136.837 263.669 140.54C261.026 143.387 254.934 147.01 251.109 147.92C238.145 151.003 224.013 149.818 210.755 150.036C207.702 150.086 204.599 149.908 201.645 150.211C201.433 148.064 201.659 141.136 201.664 138.592L201.694 112.864L201.684 85.6051C201.674 82.3181 201.262 76.3779 201.639 73.4292ZM226.227 131.022C233.168 131.001 238.854 131.816 244.729 127.701C248.674 123.889 249.403 118.615 249.518 113.32C249.634 108.093 248.915 100.12 244.99 96.2083C240.005 91.2422 233.114 93.1193 227.175 92.5785L226.401 92.7256C225.781 93.76 226.277 127.344 226.227 131.022Z" fill="#959597"/>
<path d="M314.268 71.6258C334.063 69.911 352.982 78.4078 355.211 100.154C355.291 100.929 355.376 101.712 355.462 102.487C352.589 102.285 348.596 102.394 345.628 102.401L332.301 102.403C331.62 99.2861 330.719 95.6588 328.29 93.4511C325.627 91.0211 321.713 90.1006 318.176 90.2611C305.414 90.8406 303.687 105.361 304.363 115.345C304.721 120.604 306.044 126.229 310.063 129.844C316.317 135.469 328.624 133.98 331.64 125.551C332.163 124.098 331.978 121.8 333.024 120.626C334.45 120.063 344.132 120.364 346.355 120.337C349.499 120.272 352.646 120.317 355.788 120.472C354.9 138.611 343.215 149.883 325.378 151.757C301.003 154.318 281.738 142.057 279.849 116.484C278.116 93.0327 289.078 73.7015 314.268 71.6258Z" fill="#959597"/>
<path d="M165.875 73.2718C174.164 73.1441 182.604 73.3062 190.927 73.2426C190.762 75.4637 190.837 78.5709 190.836 80.8631L190.836 93.7492L190.825 133.814C190.824 135.713 191.022 149.167 190.771 150.285C189.614 150.211 188.332 150.201 187.172 150.217C180.161 150.315 172.999 149.976 166.012 150.424C165.739 145.484 165.949 139.026 165.945 133.955L165.941 101.715L165.922 82.1735C165.913 79.8353 165.669 75.2744 165.875 73.2718Z" fill="#959597"/>
<g clip-path="url(#clip0_2827_2797)">
<path d="M51.291 54.1823C52.5128 53.9503 56.6522 54.0684 58.2071 54.0795L71.5239 54.1382L92.5791 54.0762C95.9001 54.054 101.951 53.8556 105.054 54.2043C105.747 54.1605 106.199 54.084 106.856 54.3141C106.218 54.9408 104.432 61.6034 104.056 62.8353C102.034 69.2573 100.103 75.7075 98.2642 82.1842C97.824 83.7163 95.7936 91.3992 94.9803 92.2904L94.1079 91.3292C90.3158 90.9996 82.5111 84.4462 79.5589 84.6616L78.7074 83.3758C78.506 83.707 78.268 84.0727 78.0977 84.4153C77.1702 86.5324 75.0031 90.11 73.8033 92.2197C71.3776 96.5215 68.9214 100.806 66.4351 105.073C65.3236 106.938 64.0807 108.715 62.9747 110.593L62.2491 111.867C61.1299 111.789 48.9118 119.51 46.8928 120.383L46.55 121.153C46.1759 121.06 33.4654 111.357 32.2069 110.372C30.9553 109.406 28.1989 106.919 26.6351 106.691C26.1459 106.62 25.8499 107.008 25.5442 107.307C24.8763 105.855 23.6794 104.251 23 102.727L23.1854 102.308C23.7643 100.486 26.3163 96.3515 27.3372 94.5789L33.717 83.4285L41.8877 69.2128C43.2706 66.7574 49.7371 55.0477 51.291 54.1823Z" fill="#247EBE"/>
<path d="M77.9127 67.7712C79.639 69.7092 77.5017 81.0492 79.1135 83.3758C78.9122 83.707 78.6741 84.0727 78.5039 84.4153C76.564 84.3188 66.3359 91.5741 64.2183 91.4423C64.7525 90.1817 67.5253 85.4286 68.3751 83.9639C71.4287 78.7005 74.5762 72.8117 77.9127 67.7712Z" fill="#247EBE"/>
<path d="M105.46 54.2044C106.153 54.1607 106.605 54.0841 107.262 54.3142C106.624 54.941 104.838 61.6036 104.462 62.8355C102.44 69.2575 100.509 75.7077 98.6701 82.1843C98.23 83.7165 96.1995 91.3993 95.3862 92.2906L94.5139 91.3294C94.2152 90.4621 91.5705 85.9358 90.9647 84.8152C87.3668 78.1585 83.5689 71.7887 79.6089 65.3436C81.3264 64.3594 84.5491 63.1981 86.523 62.425L98.0725 57.8828C100.416 56.9424 103.525 55.7412 105.46 54.2044Z" fill="#1865A7"/>
<path d="M107.262 54.3142C108.376 55.6048 110.781 60.0327 111.714 61.6772L118.535 73.5601L129.602 92.6229C130.999 95.048 133.756 99.4258 134.687 101.849C135.237 102.891 133.839 105.098 133.146 105.92C125.735 119.195 117.898 132.388 110.279 145.558C109.627 146.686 108.993 147.926 108.315 149.017C107.854 149.785 107.551 150.284 106.669 150.628C98.705 140.386 87.9231 130.937 79.5122 121.167L80.9066 120.833C83.5352 117.917 90.7794 115.689 94.9351 111.825C95.2352 111.82 95.2649 111.781 95.55 111.684C95.604 111.143 95.5323 111.23 95.1852 110.7C93.5775 108.776 91.581 104.958 90.2051 102.737C86.5975 96.9148 83.4145 90.4928 79.9652 84.6617C82.9174 84.4464 90.7221 90.9998 94.5142 91.3294L95.3865 92.2906C96.1998 91.3993 98.2303 83.7165 98.6704 82.1843C100.51 75.7077 102.44 69.2575 104.462 62.8355C104.839 61.6036 106.625 54.9409 107.262 54.3142Z" fill="#1865A7"/>
<path d="M107.262 54.3142C108.377 55.6048 110.781 60.0327 111.714 61.6772L118.535 73.5601L129.602 92.6229C130.999 95.048 133.756 99.4258 134.688 101.849C125.496 101.103 114.961 97.0817 105.812 95.5568C102.477 95.0008 99.3906 93.3666 95.7338 93.0461L95.3867 92.2906C96.2 91.3993 98.2304 83.7165 98.6706 82.1843C100.51 75.7077 102.441 69.2575 104.462 62.8355C104.839 61.6036 106.625 54.9409 107.262 54.3142Z" fill="#247EBE"/>
<path d="M112.045 121.09C115.257 118.372 119.007 115.726 122.319 113.1C124.732 111.188 130.144 106.073 133.146 105.92C125.735 119.195 117.898 132.388 110.279 145.558C109.627 146.686 108.993 147.926 108.315 149.017C107.854 149.785 107.551 150.284 106.669 150.628C98.705 140.386 87.9231 130.937 79.5122 121.167L80.9066 120.833C81.7154 121.15 109.806 121.214 111.735 120.904L112.045 121.09Z" fill="#1865A7"/>
<path d="M112.045 121.09C115.257 118.372 119.007 115.726 122.319 113.1C124.732 111.188 130.144 106.073 133.146 105.92C125.735 119.195 117.898 132.388 110.279 145.558C109.627 146.686 108.993 147.926 108.315 149.017C108.104 145.704 109.005 140.936 109.517 137.609C110.389 132.107 111.232 126.6 112.045 121.09Z" fill="#0B4F8A"/>
<path d="M79.9648 84.6617C82.917 84.4464 90.7217 90.9998 94.5138 91.3294L95.3862 92.2905L95.7333 93.0461L95.9544 94.1309C98.2756 96.1695 106.192 111.194 108.226 114.673C109.145 116.245 110.536 119.397 111.735 120.904C109.806 121.214 81.715 121.15 80.9062 120.833C83.5348 117.917 90.7791 115.689 94.9347 111.825C95.2348 111.82 95.2645 111.781 95.5496 111.684C95.6036 111.143 95.5319 111.23 95.1848 110.7C93.5771 108.776 91.5807 104.958 90.2048 102.737C86.5971 96.9148 83.4141 90.4927 79.9648 84.6617Z" fill="#247EBE"/>
<path d="M79.9648 84.6617C82.917 84.4464 90.7217 90.9998 94.5138 91.3294L95.3862 92.2905L95.7333 93.0461L95.9544 94.1309C95.4076 97.292 96.1482 109.009 95.1848 110.7C93.5771 108.776 91.5807 104.958 90.2048 102.737C86.5971 96.9148 83.4141 90.4927 79.9648 84.6617Z" fill="#4997CF"/>
<path d="M79.2337 121.219L79.512 121.167C87.9229 130.936 98.7048 140.386 106.668 150.628C102.77 150.925 97.8431 150.796 93.8507 150.795L72.9131 150.776C68.7116 150.764 64.5098 150.775 60.3083 150.807C57.5977 150.83 53.5687 150.972 51 150.589C52.6892 148.8 54.5505 147.039 56.2844 145.207C63.8172 137.1 71.4679 129.103 79.2337 121.219Z" fill="#247EBE"/>
<path d="M63.9082 111.896C66.497 111.343 92.4074 111.281 94.9349 111.825C90.7792 115.689 83.535 117.917 80.9064 120.833L79.512 121.167L79.2337 121.219L78.1507 120.809C75.7629 118.461 65.7777 114.513 63.9082 111.896Z" fill="#4997CF"/>
</g>
<g clip-path="url(#clip1_2827_2797)">
<path d="M107.709 54.1823C106.487 53.9503 102.348 54.0684 100.793 54.0795L87.4761 54.1382L66.4209 54.0762C63.0999 54.054 57.0491 53.8556 53.9455 54.2043C53.2527 54.1605 52.8005 54.084 52.144 54.3141C52.7817 54.9408 54.5676 61.6034 54.9442 62.8353C56.9659 69.2573 58.8966 75.7075 60.7358 82.1842C61.176 83.7163 63.2064 91.3992 64.0197 92.2904L64.8921 91.3292C68.6842 90.9996 76.4889 84.4462 79.4411 84.6616L80.2926 83.3758C80.494 83.707 80.732 84.0727 80.9023 84.4153C81.8298 86.5324 83.9969 90.11 85.1967 92.2197C87.6224 96.5215 90.0786 100.806 92.5649 105.073C93.6764 106.938 94.9193 108.715 96.0253 110.593L96.7509 111.867C97.8701 111.789 110.088 119.51 112.107 120.383L112.45 121.153C112.824 121.06 125.535 111.357 126.793 110.372C128.045 109.406 130.801 106.919 132.365 106.691C132.854 106.62 133.15 107.008 133.456 107.307C134.124 105.855 135.321 104.251 136 102.727L135.815 102.308C135.236 100.486 132.684 96.3515 131.663 94.5789L125.283 83.4285L117.112 69.2128C115.729 66.7574 109.263 55.0477 107.709 54.1823Z" fill="#247EBE"/>
<path d="M81.4935 67.7712C79.7672 69.7092 81.9045 81.0492 80.2927 83.3758C80.4941 83.707 80.7321 84.0727 80.9024 84.4153C82.8422 84.3188 93.0703 91.5741 95.188 91.4423C94.6538 90.1817 91.881 85.4286 91.0311 83.9639C87.9775 78.7005 84.8301 72.8117 81.4935 67.7712Z" fill="#247EBE"/>
<path d="M53.9458 54.2044C53.253 54.1607 52.8008 54.0841 52.1443 54.3142C52.7819 54.941 54.5679 61.6036 54.9445 62.8355C56.9662 69.2575 58.8969 75.7077 60.7361 82.1843C61.1763 83.7165 63.2067 91.3993 64.02 92.2906L64.8924 91.3294C65.1911 90.4621 67.8358 85.9358 68.4415 84.8152C72.0395 78.1585 75.8374 71.7887 79.7974 65.3436C78.0798 64.3594 74.8571 63.1981 72.8833 62.425L61.3337 57.8828C58.9904 56.9424 55.8816 55.7412 53.9458 54.2044Z" fill="#1865A7"/>
<path d="M52.144 54.3142C51.0299 55.6048 48.6252 60.0327 47.6926 61.6772L40.8712 73.5601L29.804 92.6229C28.4073 95.048 25.6506 99.4258 24.7188 101.849C24.1694 102.891 25.567 105.098 26.2604 105.92C33.6712 119.195 41.508 132.388 49.1272 145.558C49.7796 146.686 50.4135 147.926 51.0909 149.017C51.5521 149.785 51.8555 150.284 52.7375 150.628C60.7012 140.386 71.4832 130.937 79.894 121.167L78.4997 120.833C75.8711 117.917 68.6268 115.689 64.4712 111.825C64.1711 111.82 64.1414 111.781 63.8563 111.684C63.8023 111.143 63.874 111.23 64.221 110.7C65.8288 108.776 67.8252 104.958 69.2011 102.737C72.8088 96.9148 75.9918 90.4928 79.441 84.6617C76.4889 84.4464 68.6842 90.9998 64.8921 91.3294L64.0197 92.2906C63.2064 91.3993 61.176 83.7165 60.7358 82.1843C58.8966 75.7077 56.9659 69.2575 54.9442 62.8355C54.5676 61.6036 52.7817 54.9409 52.144 54.3142Z" fill="#1865A7"/>
<path d="M52.1439 54.3142C51.0297 55.6048 48.625 60.0327 47.6924 61.6772L40.871 73.5601L29.8038 92.6229C28.4071 95.048 25.6504 99.4258 24.7186 101.849C33.9107 101.103 44.4456 97.0817 53.594 95.5568C56.9292 95.0008 60.0156 93.3666 63.6725 93.0461L64.0195 92.2906C63.2062 91.3993 61.1758 83.7165 60.7356 82.1843C58.8965 75.7077 56.9657 69.2575 54.944 62.8355C54.5674 61.6036 52.7815 54.9409 52.1439 54.3142Z" fill="#247EBE"/>
<path d="M47.3608 121.09C44.1489 118.372 40.399 115.726 37.0869 113.1C34.6744 111.188 29.2621 106.073 26.2604 105.92C33.6712 119.195 41.508 132.388 49.1272 145.558C49.7796 146.686 50.4135 147.926 51.0909 149.017C51.5521 149.785 51.8555 150.284 52.7375 150.628C60.7012 140.386 71.4832 130.937 79.894 121.167L78.4997 120.833C77.6909 121.15 49.5998 121.214 47.6712 120.904L47.3608 121.09Z" fill="#1865A7"/>
<path d="M47.3608 121.09C44.1488 118.372 40.3989 115.726 37.0869 113.1C34.6744 111.188 29.2621 106.073 26.2604 105.92C33.6712 119.195 41.508 132.388 49.1271 145.558C49.7795 146.686 50.4134 147.926 51.0909 149.017C51.3027 145.704 50.4014 140.936 49.8897 137.609C49.0177 132.107 48.1747 126.6 47.3608 121.09Z" fill="#0B4F8A"/>
<path d="M79.4414 84.6617C76.4892 84.4464 68.6845 90.9998 64.8924 91.3294L64.0201 92.2905L63.673 93.0461L63.4518 94.1309C61.1307 96.1695 53.2146 111.194 51.1805 114.673C50.2611 116.245 48.8698 119.397 47.6716 120.904C49.6002 121.214 77.6912 121.15 78.5 120.833C75.8715 117.917 68.6272 115.689 64.4715 111.825C64.1715 111.82 64.1417 111.781 63.8566 111.684C63.8026 111.143 63.8743 111.23 64.2214 110.7C65.8291 108.776 67.8256 104.958 69.2015 102.737C72.8091 96.9148 75.9921 90.4927 79.4414 84.6617Z" fill="#247EBE"/>
<path d="M79.4414 84.6617C76.4892 84.4464 68.6845 90.9998 64.8924 91.3294L64.0201 92.2905L63.673 93.0461L63.4518 94.1309C63.9987 97.292 63.2581 109.009 64.2214 110.7C65.8291 108.776 67.8256 104.958 69.2015 102.737C72.8091 96.9148 75.9921 90.4927 79.4414 84.6617Z" fill="#4997CF"/>
<path d="M80.1725 121.219L79.8942 121.167C71.4834 130.936 60.7014 140.386 52.7378 150.628C56.6359 150.925 61.5631 150.796 65.5556 150.795L86.4931 150.776C90.6947 150.764 94.8964 150.775 99.0979 150.807C101.809 150.83 105.838 150.972 108.406 150.589C106.717 148.8 104.856 147.039 103.122 145.207C95.589 137.1 87.9384 129.103 80.1725 121.219Z" fill="#247EBE"/>
<path d="M95.498 111.896C92.9093 111.343 66.9989 111.281 64.4713 111.825C68.627 115.689 75.8713 117.917 78.4999 120.833L79.8942 121.167L80.1725 121.219L81.2555 120.809C83.6434 118.461 93.6285 114.513 95.498 111.896Z" fill="#4997CF"/>
</g>
<defs>
<clipPath id="clip0_2827_2797">
<rect width="55" height="97" fill="white" transform="translate(79.4062 53)"/>
</clipPath>
<clipPath id="clip1_2827_2797">
<rect width="55" height="97" fill="white" transform="matrix(-1 0 0 1 80 53)"/>
</clipPath>
</defs>
</svg>
