<svg width="149" height="212" viewBox="0 0 149 212" fill="none" xmlns="http://www.w3.org/2000/svg">
<path d="M21.8333 12.9946C23.2102 13.1108 25.1766 13.0494 26.5892 13.0472L34.8363 13.0366L61.2448 13.0374L103.761 13.0403C111.169 13.0408 119.346 13.2021 126.706 12.9956C126.518 30.4204 126.665 48.0808 126.665 65.5343L126.692 117.818C126.611 117.867 126.529 117.916 126.447 117.966C121.818 117.894 115.413 117.913 110.998 117.912L42.8343 117.91H29.481C27.2763 117.91 23.8304 117.807 21.7226 118.038L21.7469 36.5983C21.7467 33.8299 21.5395 13.771 21.8333 12.9946Z" fill="#220E5D"/>
<path d="M51.9191 68.9728L59.2303 68.9373C60.5229 68.9325 61.9012 68.8603 63.1751 69.0009C64.6621 69.1649 65.2541 69.6692 65.3125 71.1764C65.3927 73.6414 65.2329 76.0948 65.3305 78.5647C65.3989 80.2935 65.5964 81.733 64.1585 82.9192C60.8404 83.1219 55.5118 82.9261 52.0688 82.8796C51.4856 82.8717 50.9743 82.0173 50.6645 81.5408C50.5424 79.2813 50.6181 76.8313 50.5944 74.5453C50.5749 72.6588 50.1728 70.0753 51.9191 68.9728Z" fill="#FEFEFE"/>
<path d="M52.6729 71.0019L63.273 70.9939C63.2334 74.2706 63.2667 77.6221 63.2652 80.9044L52.6794 80.9215L52.6729 71.0019Z" fill="#220E5D"/>
<path d="M74.0122 38.3389C74.3548 38.5477 83.2527 59.5197 84.2022 61.6894C80.9838 60.5567 77.5113 58.9544 74.2386 57.716C72.9685 57.8621 65.6799 61.0299 63.9546 61.7489C66.2145 56.1158 68.8115 50.564 71.1294 44.949C72.0409 42.7409 73.0081 40.5049 74.0122 38.3389Z" fill="#FE309D"/>
<path d="M74.0745 44.8938C74.3608 45.169 78.7455 55.5898 79.3452 56.9446L74.0544 54.8123C72.2913 55.5118 70.5369 56.2331 68.7915 56.9757C70.3339 53.5777 72.4411 47.8581 74.0745 44.8938Z" fill="#220E5D"/>
<path d="M104.316 68.9789C108.401 68.874 112.864 68.9642 116.979 68.9653L116.953 71.0048L105.193 71.0089L105.199 74.7857C108.326 74.7717 111.479 74.7444 114.606 74.7693C115.193 74.788 116.524 74.9277 116.883 75.4273C117.509 76.3754 117.284 77.758 117.269 78.857C117.245 80.5826 117.802 81.8158 116.204 82.911C112.138 83.0341 107.687 82.9449 103.592 82.9395L103.6 80.9189L115.224 80.909L115.238 76.8319C111.869 76.8487 108.385 76.9836 105.038 76.7127C102.873 76.5375 103.089 74.1769 103.129 72.5807C103.167 71.0408 102.9 69.9279 104.316 68.9789Z" fill="#FEFEFE"/>
<path d="M67.5041 68.9707L70.0666 68.9642C70.6616 69.768 71.4206 70.631 72.0933 71.3819C74.7326 74.3277 77.2895 77.4088 80.0185 80.2677C79.7285 77.6342 79.9286 71.8463 79.9599 68.9766L81.7838 68.9634L81.7701 82.7581C81.4713 83.0736 79.969 82.9612 79.4857 82.9586L73.5348 76.1622C72.2333 74.6722 70.9659 73.113 69.5379 71.748C69.6431 75.3257 69.5562 79.3404 69.5569 82.9521L67.5197 82.9422C67.4522 78.3288 67.5053 73.5933 67.5041 68.9707Z" fill="#FEFEFE"/>
<path d="M89.6467 68.977C93.4734 68.9119 97.4504 68.9683 101.288 68.972L101.282 71.0062C97.7098 70.9695 94.0806 71.003 90.5041 71.0046L90.5104 80.9129L93.3795 80.918L101.291 80.9115L101.275 82.9427C98.3242 82.9523 92.439 83.0597 89.7294 82.8049C87.4416 82.5899 88.6825 71.8846 88.6185 69.9748C88.6047 69.562 89.3082 69.1646 89.6467 68.977Z" fill="#FEFEFE"/>
<path d="M34.917 68.9666L48.6973 68.9683C48.6737 69.6221 48.6864 70.3435 48.6838 71.0034L42.7893 71.0018L42.7849 76.7553L42.7833 82.9509L40.7463 82.9424C40.6865 78.9923 40.7334 74.926 40.7318 70.9669C38.872 71.0307 36.7984 70.9949 34.9225 71.0016L34.917 68.9666Z" fill="#FEFEFE"/>
<path d="M30.8398 68.9658L32.8903 68.9679L32.8913 82.9544L30.8521 82.9427C30.784 78.3308 30.84 73.5879 30.8398 68.9658Z" fill="#FEFEFE"/>
<path d="M84.0928 68.9656L86.1481 68.9686L86.142 82.956L84.1075 82.9345L84.0928 68.9656Z" fill="#FEFEFE"/>
</svg>
