<svg width="144" height="50" viewBox="0 0 144 50" fill="none" xmlns="http://www.w3.org/2000/svg">
<path d="M134.88 34.4205C135.551 34.1792 136.349 33.6456 136.036 32.8218C135.742 32.0449 134.584 31.5129 133.896 31.116L129.167 28.3821C127.982 27.6998 126.142 26.7321 125.206 25.8585C122.804 23.5753 122.124 20.0053 123.518 16.9929C123.939 16.0736 124.54 15.2484 125.284 14.5659C126.376 13.5788 127.993 12.8243 129.278 12.0672C130.148 11.5549 131.241 10.8095 132.156 10.4825C134.001 9.82331 136.307 9.87536 138.082 10.7006C139.951 11.567 141.393 13.1537 142.083 15.1018C142.806 17.0989 142.556 19.5143 141.557 21.3395C140.865 22.6042 140.056 23.4428 138.859 24.2167C137.213 25.3735 136.946 25.0864 135.37 24.0845C136.086 23.4727 136.859 23.1016 137.661 22.6146C139.351 21.589 140.373 20.0482 140.542 18.0552C140.659 16.5793 140.188 15.117 139.232 13.9899C137.816 12.3131 135.16 11.3362 133.08 12.2951C130.854 13.3428 128.54 14.6715 126.56 16.1342C125.445 16.9581 124.862 18.5632 124.771 19.9124C124.504 23.8694 127.491 25.1799 130.394 26.8629L134.802 29.3944C136.947 30.6291 138.661 31.4476 137.783 34.4171C137.31 36.0141 134.937 36.7996 133.544 36.0227C132.217 35.2825 130.713 34.437 129.469 33.5727C129.324 33.4643 128.393 31.4711 128.126 31.0511L128.498 30.8593C129.885 31.5439 131.409 32.5775 132.791 33.3217C133.471 33.6872 134.148 34.1523 134.88 34.4205Z" fill="#A1A1A1"/>
<path d="M121.148 27.9945C123.565 27.7517 126.568 29.3241 127.872 31.3505C129.033 33.1543 129.24 35.0112 129.17 37.1072C129.111 38.9072 129.321 40.8108 128.963 42.5851C128.563 44.4999 127.42 46.1756 125.787 47.2422C124.125 48.3434 122.044 48.7609 120.124 48.3659C115.711 47.4583 113.552 43.6367 113.982 39.3319C114.025 38.9007 115.422 38.2444 115.824 38.0065C115.978 40.6411 115.359 42.6848 117.515 44.8569C119.817 47.1754 123.366 47.161 125.63 44.7944C127.274 43.0753 127.256 41.6129 127.251 39.4202L127.241 36.5647C127.224 34.8079 127.265 33.9793 126.213 32.4571C124.682 30.1959 121.888 29.3557 119.365 30.418C118.187 31.0221 117.028 31.7331 115.884 32.4068C114.494 33.2252 113.09 34.0406 111.694 34.8451C110.408 35.5861 109.236 36.5152 107.671 36.261C106.876 36.1345 106.164 35.6918 105.697 35.0327C104.917 33.9282 104.835 32.0127 105.86 31.0247C107.198 29.7339 109.188 29.0891 110.699 28.0239C112.118 28.422 112.847 28.3882 114.283 28.2173C112.125 29.3268 109.863 30.7748 107.769 32.0309C106.767 32.6321 106.793 33.2235 107.467 34.1075C107.678 34.2078 108.003 34.3248 108.229 34.4133C108.809 34.2418 110.136 33.4152 110.723 33.0754L115.372 30.375C116.259 29.8566 117.594 29.0253 118.491 28.656C119.34 28.3062 120.235 28.0834 121.148 27.9945Z" fill="#A1A1A1"/>
<path d="M120.971 6.86446C121.101 6.84983 121.231 6.83973 121.361 6.83415C125.686 6.6673 124.678 11.6711 124.759 14.5874C123.832 15.5495 123.443 16.3841 122.804 17.5236C122.61 15.0154 122.877 12.3477 122.726 9.82933C122.635 8.33307 120.829 8.39586 120.449 9.41718C120.232 10.0012 120.288 11.6623 120.289 12.344L120.305 18.1149C120.312 20.6793 120.523 22.4228 118.93 24.6797C117.79 26.3237 116.046 27.4437 114.082 27.792C110.95 28.3161 109.067 27.038 106.518 25.5151C105.678 25.0132 104.508 24.4073 103.742 23.8534C102.091 22.643 100.994 20.8168 100.697 18.7858C100.36 16.6124 100.976 14.6433 102.242 12.8963C103.228 11.5345 105.022 10.4569 106.665 10.1781C109.36 9.72078 111.315 10.3721 113.496 11.8981L113.493 14.1677C113.467 14.149 113.441 14.1304 113.415 14.112C111.817 12.9892 109.474 11.6079 107.446 11.9993C104.267 12.6129 102.066 15.3889 102.645 18.6948C103.133 21.7051 105.633 22.7252 107.963 24.0737C109.785 25.1282 111.36 26.3482 113.61 25.9045C114.659 25.7067 115.635 25.2257 116.433 24.5132C118.768 22.4604 118.406 19.985 118.397 17.1565L118.382 11.8108C118.379 9.6556 118.317 7.35772 120.971 6.86446Z" fill="#A1A1A1"/>
<path d="M134.347 12.3169C136.399 12.2139 138.069 12.8075 139.287 14.5594C140.117 15.7655 140.433 17.255 140.164 18.6962C139.569 21.9371 137.049 22.4284 134.955 23.8795C134.309 23.3948 133.835 23.1733 133.129 22.7939C134.659 21.4776 137.185 21.0211 138.077 18.9915C139.357 16.3024 136.288 13.079 133.577 14.4529C131.858 15.3248 129.698 16.6064 128.094 17.6875C126.844 18.53 126.6 21.0373 127.524 22.2157C128.257 23.1482 129.463 23.7295 130.519 24.3389L134.544 26.6754C135.898 27.4538 137.648 28.333 138.771 29.3697C139.349 29.9032 139.714 30.7804 140.022 31.4975C140.048 31.5959 140.071 31.6945 140.095 31.7936C140.791 34.8342 139.037 37.7188 135.995 38.421C133.657 38.9611 131.511 37.4909 129.611 36.2867C129.573 35.4149 129.552 34.7953 129.407 33.9352C130.548 34.678 133.752 36.7617 135.028 36.6261C135.984 36.4898 137.006 36.1594 137.567 35.3067C139.793 31.9218 137.175 30.398 134.663 28.954L129.918 26.2235C127.658 24.9185 125.428 23.892 125.06 20.9341C124.892 19.4688 125.304 17.9959 126.209 16.8341C126.972 15.8639 128.563 15.0608 129.657 14.4314C131.204 13.5415 132.545 12.5358 134.347 12.3169Z" fill="#A1A1A1"/>
<path d="M108.074 26.958C108.236 26.9956 109.928 27.8279 109.987 27.8949C110.003 28.2274 106.788 29.8918 106.281 30.2516C105.938 30.4948 105.627 30.7932 105.389 31.1409C104.884 31.8764 104.664 32.8254 104.825 33.7057C104.997 34.6424 105.488 35.4636 106.275 36.0047C106.954 36.4709 107.875 36.7302 108.694 36.5872C109.787 36.3961 110.791 35.6696 111.732 35.117C113.508 34.0752 119.004 30.6132 120.657 30.3084C122.067 30.0485 123.492 30.4354 124.66 31.2515C125.818 32.0594 126.558 33.2684 126.797 34.6579C127.005 35.8696 127.009 40.7647 126.795 41.9232C126.659 42.6607 126.402 43.3485 125.966 43.9614C125.159 45.0957 123.907 45.9494 122.526 46.178C121.062 46.4298 119.558 46.0726 118.361 45.1884C116.815 44.0666 116.448 42.7237 116.168 40.9696L116.174 37.9038C116.714 37.4901 117.443 37.0711 118.052 36.7676C118.119 38.3665 117.768 41.2293 118.541 42.5871C119.952 45.0624 123.521 44.8709 124.733 42.2814C125.158 41.3739 125.005 40.1485 125.048 39.1659C124.89 36.7982 125.757 34.0008 123.233 32.6184C121.146 31.4752 119.397 32.885 117.627 33.925L113.346 36.4277C112.43 36.9591 111.532 37.4946 110.587 37.9752C108.095 39.2436 105.073 38.2812 103.639 35.8945C102.892 34.6573 102.667 33.172 103.015 31.7679C103.707 29.0281 105.86 28.2795 108.074 26.958Z" fill="#A1A1A1"/>
<path d="M120.858 4.61331C122.439 4.49131 123.759 4.71113 124.991 5.76253C127.509 7.91153 126.72 10.255 126.973 12.9546C126.519 13.1892 125.376 13.9943 125.131 14.0425C124.875 13.6576 125.244 9.6537 124.883 8.80482C123.874 6.36876 121.072 5.62925 119.106 7.45984C118.197 8.30645 118.063 9.5181 118.062 10.6985C118.057 13.9005 118.087 17.022 118.076 20.232C118.062 24.5546 113.505 27.0285 109.858 24.8399C106.387 22.6399 102.727 21.975 102.89 16.9797C102.961 16.3501 103.123 15.8428 103.403 15.2722C104.019 14.0001 105.116 13.0276 106.449 12.57C109.512 11.5379 111.118 13.2475 113.484 14.4297C113.513 15.1214 113.492 15.9255 113.49 16.6257C111.693 15.8542 109.743 13.894 107.737 14.186C105.819 14.465 104.529 16.3218 104.811 18.2397C105.149 20.5363 107.688 21.2411 109.386 22.3276C110.136 22.8074 110.954 23.3001 111.774 23.6353C113.246 24.2344 115.34 23.0843 115.883 21.6487C116.279 20.6288 116.179 19.3387 116.177 18.2302L116.165 12.669C116.162 11.3469 116.056 9.90264 116.36 8.62509C116.922 6.26122 118.573 4.99411 120.858 4.61331Z" fill="#A1A1A1"/>
<path d="M134.31 14.5601C134.549 14.5467 134.791 14.534 135.03 14.5431C135.871 14.5753 136.67 14.9135 137.243 15.5402C137.825 16.1766 138.066 17.0163 138.024 17.87C137.982 18.7006 137.632 19.4767 137.011 20.0333C136.491 20.5 133.256 22.5366 132.614 22.4819C132.231 22.4492 131.26 21.7364 130.995 21.4306C131.316 20.7972 135.729 19.0068 136.106 17.9421C136.183 17.7238 136.16 17.5026 136.064 17.3219C135.391 16.062 134.719 16.2885 133.657 16.9493C132.308 17.7654 130.84 18.4666 129.575 19.4099C129.35 19.5776 129.216 19.9918 129.125 20.2509C129.499 21.4782 130.967 22.0053 132.041 22.6145C133.754 23.5767 135.456 24.5582 137.147 25.5587C138.09 26.1214 139.239 26.7501 140.045 27.4775C141.475 28.7752 142.343 30.5835 142.462 32.5156C142.59 34.883 141.972 36.669 140.395 38.4368C137.32 41.6682 132.994 41.298 129.593 38.868C129.547 38.1891 129.572 37.4265 129.581 36.7391C131.473 37.4564 132.19 38.672 134.577 38.8001C139.933 39.0873 142.651 32.4507 138.664 28.884C137.83 28.1384 136.645 27.5628 135.628 26.9693L129.447 23.4085C127.69 22.3808 126.587 20.8066 127.653 18.6972C127.776 18.455 128.271 17.8743 128.494 17.7507C130.153 16.8319 132.52 15.0161 134.31 14.5601Z" fill="#A1A1A1"/>
<path d="M105.865 25.6396C106.093 25.6052 107.562 26.5399 107.865 26.721C106.053 27.8688 103.717 28.8422 102.952 31.0116C102.781 31.4978 102.507 32.687 102.521 33.1863C102.557 34.7253 103.208 36.1852 104.328 37.2364C105.699 38.5267 107.161 38.9763 109.021 38.7508C110.614 38.5576 112.265 37.386 113.642 36.5789L118.395 33.7818C120.179 32.7492 121.956 31.6502 123.77 33.3821C124.391 33.9613 124.797 34.9296 124.73 35.7999C124.608 37.4066 124.986 40.1113 124.629 41.6106C124.503 42.1604 124.23 42.6657 123.842 43.0729C123.25 43.6853 122.439 44.0339 121.589 44.0408C120.753 44.0491 119.969 43.7631 119.37 43.1712C118.359 42.1734 118.394 40.7192 118.392 39.3998C118.389 38.5614 118.451 37.3435 118.361 36.5406C119.013 36.1807 119.652 35.799 120.279 35.3962C120.325 36.5219 120.076 40.9928 120.611 41.6477C120.772 41.8443 121.11 42.078 121.367 42.1009C121.745 42.1345 122.122 41.9519 122.397 41.7015C122.731 41.3978 122.733 41.0669 122.752 40.6443C122.786 39.8579 122.898 35.2803 122.575 34.9313C122.568 34.9234 122.561 34.9157 122.553 34.9078C122.303 34.6314 121.907 34.4885 121.573 34.3356C120.448 34.8043 119.464 35.4958 118.405 36.1024C116.182 37.3761 113.963 38.6984 111.718 39.9296C109.97 40.8797 107.815 41.0081 105.934 40.4204C101.951 39.1753 99.6865 34.7935 100.976 30.8153C101.837 28.1599 103.472 26.8491 105.865 25.6396Z" fill="#A1A1A1"/>
<path d="M120.899 2.3572C121.114 2.34409 121.331 2.33668 121.548 2.33498C124.563 2.32877 127.102 3.84522 128.44 6.59684C129.222 8.20305 129.177 9.91379 129.174 11.6487C128.554 12.0468 127.974 12.4429 127.302 12.7449C127.136 11.4199 127.393 9.85425 127.08 8.54091C126.711 7.06001 125.693 5.77312 124.393 4.99565C122.169 3.66521 119.725 4.07196 117.806 5.69607C115.468 7.67311 115.826 10.3655 115.828 13.1021L115.842 18.6639C115.844 19.6933 115.973 21.1073 115.411 21.9756C113.374 25.1231 110.045 22.4268 107.885 21.1491C105.862 20.2536 104.237 18.2655 105.486 16.0432C105.874 15.3593 106.519 14.8603 107.277 14.6577C109.375 14.0789 111.619 15.9899 113.508 17.0786L113.492 19.3006C112.712 18.7692 108.825 16.3802 108.114 16.4059C107.858 16.4152 107.667 16.5079 107.491 16.6944C107.217 16.9866 106.961 17.3484 106.981 17.7692C106.996 18.1063 107.23 18.3561 107.47 18.5655C108.21 19.2099 109.189 19.5881 110.027 20.0833C110.725 20.4952 111.416 21.024 112.151 21.358C112.369 21.4573 112.617 21.5393 112.858 21.5155C113.429 21.4593 113.742 20.9122 113.873 20.4087C114.124 19.4393 113.974 18.2016 113.959 17.1997C113.936 15.6647 113.961 14.1309 113.96 12.596C113.959 11.1815 113.871 9.70079 114.136 8.30567C114.367 7.10447 114.889 5.97883 115.655 5.02802C117.088 3.27247 118.708 2.57355 120.899 2.3572Z" fill="#A1A1A1"/>
<path d="M83.9166 14.1134C83.3794 11.6504 83.2128 13.0399 82.35 12.74C82.2235 12.6066 82.2291 12.6307 82.2206 12.4414C82.1911 11.7758 83.2486 11.8795 83.6649 11.8699C84.7153 12.5304 84.6324 12.9345 84.7575 14.08C86.3571 14.1371 88.2605 14.1316 89.8629 14.0849C89.9705 13.7821 90.0914 13.4845 90.2264 13.1929C90.5885 12.4223 90.9745 12.2136 91.7276 11.9391C92.288 12.1574 92.5453 12.2745 92.9672 12.7027C93.1381 13.2253 93.2013 13.4711 93.1064 14.0112L93.0924 14.041C92.8786 14.4968 92.7851 14.6603 92.3112 14.8422C91.5835 15.1217 91.2621 14.7398 90.656 14.6848C90.2243 14.6968 89.7567 14.8853 89.3306 14.8831C85.9486 14.8625 82.5659 14.8818 79.1846 14.8813C78.39 14.8812 76.9739 14.9633 76.2807 14.6313C75.3174 15.0309 74.8758 14.9592 73.9196 14.628C73.1503 15.1372 67.4147 14.9022 66.402 14.5657C65.7559 14.9638 65.0131 15.7394 65.8738 16.4618C66.2543 16.7812 66.8266 16.6379 67.2816 16.5449L67.224 17.3456C66.1924 17.4122 65.7785 17.4552 64.8993 16.8997C64.2539 15.4471 64.709 14.9502 65.8018 14.0029C64.652 12.7272 64.626 12.1266 66.571 11.8903C68.399 11.8266 68.1308 12.8782 67.3912 14.0289C67.8501 14.1638 72.4971 14.1064 73.246 14.0884C73.4794 13.5172 73.7171 12.9064 74.1453 12.4566C74.9271 11.636 75.8939 11.9598 76.3903 12.8797C76.6181 13.3017 76.5879 13.5732 76.5732 14.0391C77.4457 14.1418 78.6678 14.1097 79.5706 14.1084L83.9166 14.1134ZM91.6285 14.1721C92.7246 13.9523 92.3112 12.9629 91.6137 12.6891C91.3338 12.9748 90.9626 13.2994 90.8726 13.6879C90.9225 13.9477 90.8747 13.8576 91.0716 14.0432C91.2537 14.0872 91.4456 14.1369 91.6285 14.1721ZM74.1354 13.9397L75.0242 14.1715C76.1217 13.9654 75.6682 12.9239 75.034 12.6918C74.5587 13.1116 74.4209 13.3695 74.1354 13.9397ZM66.7167 13.5929C66.8991 13.3793 67.0341 13.2547 67.0904 12.9755C66.9662 12.478 66.3658 12.6011 65.9596 12.6741L65.8047 12.7826C65.8679 13.0939 66.329 13.4742 66.5667 13.6672C66.6845 13.6463 66.6544 13.6699 66.7167 13.5929Z" fill="#A1A1A1"/>
<path d="M86.5538 18.167C86.8435 18.1442 87.2274 18.1532 87.5263 18.1526L87.5368 23.0898C86.7085 23.0992 85.4977 22.9538 84.9015 22.984C83.3891 23.0606 81.9231 23.1148 80.4001 23.104C80.0591 23.1015 79.3693 22.8566 79.1211 22.8661C78.6964 22.8824 78.2296 23.0937 77.717 23.0929L65.8768 23.0883C65.469 23.9019 64.5849 24.4105 63.6716 24.5535C63.5397 24.5742 63.4615 24.4557 63.3919 24.3633C63.3839 24.2973 63.3326 23.8792 63.4144 23.8506C64.0053 23.6438 64.5282 23.4268 65.068 23.1082C63.2905 23.08 62.2753 22.1907 63.4238 20.4796C65.2297 19.5046 65.975 20.572 66.0399 22.314C66.87 22.2952 70.6562 22.4083 71.1442 22.1877C71.3973 21.7696 71.3136 20.7422 71.308 20.2206C71.578 20.239 71.945 20.229 72.2228 20.2285L72.215 22.2578C73.8983 22.4624 76.156 22.2591 77.8808 22.2797C78.084 22.2821 78.3927 22.1382 78.541 21.9956C78.7358 21.4561 77.615 20.8453 77.1861 20.665C77.5201 20.2223 78.3674 18.7074 78.7126 18.1299L79.4136 18.5818C79.0684 19.1669 78.726 19.7538 78.3863 20.3427C79.1977 21.0401 79.3546 21.1321 79.4284 22.242C80.3495 22.3737 83.0741 22.312 84.0817 22.2844L84.0999 20.2273C84.4796 20.246 84.7503 20.2362 85.1307 20.216C85.1434 20.8959 85.137 21.5761 85.1124 22.2557C85.5238 22.3071 86.1678 22.3067 86.5981 22.3192C86.4997 21.1882 86.5946 19.4055 86.5538 18.167ZM64.9084 22.323L65.0486 22.2559C65.13 21.8737 64.9503 20.9802 64.4759 20.907C64.3717 20.8909 64.2656 20.8944 64.16 20.898C63.4547 21.7525 63.8996 22.3093 64.9084 22.323Z" fill="#A1A1A1"/>
<path d="M26.0638 10.001L27.0942 10.02C27.1002 11.3655 27.0944 12.7109 27.0767 14.0563C27.5231 14.0928 28.0237 14.103 28.4752 14.1222C28.3763 13.0701 28.4541 11.2031 28.4231 10.0318L29.5095 10.0324C29.4346 11.0712 29.4524 13.8513 29.5198 14.8684C27.9798 14.9177 26.0658 14.8006 24.4669 14.8157L10.2816 14.8783C9.89374 15.7199 9.14484 16.2192 8.22663 16.3001C7.90425 16.3285 7.65464 16.2289 7.64381 15.89C7.88611 15.4402 8.24843 15.5765 8.89003 15.3167C9.0374 15.1907 9.0843 15.1597 9.1814 14.9922C8.54986 14.5108 6.78507 15.1791 7.56415 12.6355L7.5896 12.6083C9.0083 11.1187 10.4299 12.1784 10.4104 14.1167L17.24 14.1089C16.5447 11.5695 16.3991 13.1051 15.5081 12.6695C15.4377 12.1996 15.6989 11.9003 16.1774 11.851C17.6759 11.6968 17.9592 12.9304 18.1103 14.0992C19.8309 14.1142 21.9848 14.1568 23.6839 14.077C23.72 13.4079 23.7137 12.7325 23.715 12.0621L24.6524 12.0939C24.6059 12.5573 24.6202 13.5376 24.6114 14.0408C25.028 14.0819 25.5933 14.1756 25.9791 14.0212C26.1541 13.7883 26.07 10.5357 26.0638 10.001ZM9.21051 14.1219L9.37919 14.071C9.5002 13.7153 9.36309 12.8937 8.94227 12.7166C8.88447 12.6922 8.6149 12.7116 8.53727 12.7167C8.00866 13.6971 8.11863 14.0184 9.21051 14.1219Z" fill="#A1A1A1"/>
<path d="M3.42624 18.1605C3.7043 18.1442 4.08081 18.1072 4.32549 18.2204C4.47544 19.0101 4.30666 21.1866 4.44522 22.3094C5.53476 22.3076 6.62429 22.3125 7.71374 22.3242C8.32904 22.3288 9.64318 22.4582 10.1074 22.0411C10.3413 21.3973 9.39146 20.9238 8.92508 20.6639C9.24317 20.063 10.0583 18.6272 10.4393 18.1221L11.0519 18.599C10.737 19.2466 10.4917 19.7516 10.0552 20.3256C11.2616 21.1281 10.7682 21.5176 11.2928 22.176C11.8477 22.4099 15.8 22.3115 16.6121 22.2796C16.6754 21.6264 16.6663 20.8911 16.6725 20.2276C16.9766 20.2464 17.2882 20.2292 17.5933 20.219L17.5884 22.2811L19.153 22.3105L23.0754 22.3135C23.0348 21.7168 23.0494 20.8734 23.0416 20.2577L24.0443 20.2195C24.022 21.1776 24.0274 22.1361 24.0605 23.0938C22.4192 23.0605 20.7507 23.0966 19.1053 23.0749C18.6079 23.0683 17.6329 22.9727 17.2449 22.9987C15.5096 23.1151 13.8079 23.062 12.072 23.1098C11.9243 23.1506 10.8329 22.8033 10.7915 22.8224C10.0619 23.1581 8.73263 23.106 7.96953 23.0869C7.3164 23.0705 4.10794 23.2321 3.78883 22.8628C3.22363 22.2087 3.42212 19.1171 3.42624 18.1605Z" fill="#A1A1A1"/>
<path d="M59.6464 10.0156C59.9764 10.0278 60.3303 10.0245 60.6626 10.0272C60.5634 11.2022 60.6452 13.631 60.6582 14.8923C59.5387 14.8878 57.2155 14.8122 56.1296 14.7772C54.6269 14.7289 47.5817 15.1675 46.6413 14.6438C46.2159 14.1944 46.3644 10.8579 46.367 10.0299L47.303 10.0268C47.3245 11.3836 47.2921 12.7206 47.3329 14.0877C49.1158 14.1179 51.521 14.1657 53.2918 14.0807L53.2973 12.7194L54.2263 12.7207C54.2233 13.1389 54.2341 13.5737 54.2384 13.9935C55.5977 14.3152 55.3422 13.5463 55.3039 12.474C55.5435 12.4412 56.0107 12.4376 56.2689 12.4285C56.2536 12.9404 56.2636 13.5139 56.2618 14.0307C56.6074 14.0785 56.8795 14.0844 57.2276 14.0941C57.2662 13.5126 57.2432 12.6805 57.2433 12.0806C57.5496 12.0771 57.8559 12.0699 58.162 12.0591C58.1812 12.7125 58.1798 13.3922 58.1875 14.048C58.6758 14.0954 59.1879 14.1038 59.6797 14.1199C59.6599 13.7861 59.6565 13.4197 59.6465 13.0828L59.6464 10.0156Z" fill="#A1A1A1"/>
<path d="M37.1331 18.1638C37.4347 18.1402 37.8013 18.1491 38.1091 18.1492C38.1025 19.309 38.053 21.1915 38.1639 22.2992C39.8325 22.3128 41.6606 22.338 43.32 22.2896C43.3902 21.6065 43.3676 20.9102 43.3602 20.2232L44.2977 20.2508C44.2703 20.8749 44.2847 21.6211 44.2807 22.2547C45.046 22.34 46.1743 22.3105 46.9692 22.3094C48.353 22.3035 49.7367 22.3059 51.1204 22.3167C51.0473 21.9331 50.9876 21.573 50.8662 21.2001C50.6309 20.477 49.5759 21.2235 49.366 20.64C49.4305 20.4082 49.4442 20.369 49.5881 20.1787C51.4577 19.852 51.5252 20.2834 52.0372 21.8915C52.1223 22.159 52.39 22.7971 52.2908 23.0428C51.9127 23.1222 50.8056 23.0848 50.3555 23.0846L45.7397 23.078C45.0891 23.0735 44.594 22.9983 43.9563 22.9391C43.8479 22.929 43.4894 23.0724 43.4305 23.0695C42.4075 23.0196 38.194 23.2815 37.5305 22.8821C36.9386 22.5258 37.2239 19.1112 37.1331 18.1638Z" fill="#A1A1A1"/>
<path d="M34.1334 11.5297C34.3179 11.525 34.3584 11.5233 34.5386 11.5663C34.7993 11.9065 34.6504 13.4156 34.7281 14.0817C36.5027 14.1654 38.7091 14.1103 40.5246 14.1119C40.3822 13.0637 40.5785 12.0664 41.9226 11.9298C42.469 11.8743 42.9488 12.2625 43.3258 12.6358C43.413 13.0733 43.5367 14.418 43.3995 14.8173L43.2428 14.8821L37.304 14.8755C36.0286 14.8761 35.0011 15.0248 33.7683 14.6096C33.3608 14.4724 32.1612 15.1098 31.7635 13.9523C31.5973 13.4685 31.8226 13.0345 31.9949 12.6942C32.097 12.618 34.0796 11.5441 34.1334 11.5297ZM42.2352 14.1403L42.461 14.1019C42.6935 13.7564 42.4941 13.0041 42.1339 12.7657C42.0853 12.7336 41.8337 12.7021 41.7573 12.6896C41.0582 13.4835 41.199 13.9359 42.2352 14.1403ZM32.937 13.9462C33.1876 13.9397 33.4257 13.9672 33.6045 13.7971C33.8596 13.3989 33.7674 13.1549 33.699 12.6827L33.5751 12.6314C33.0829 12.8418 32.4241 13.1382 32.6867 13.7707C32.7582 13.824 32.8615 13.9066 32.937 13.9462Z" fill="#A1A1A1"/>
<path d="M61.1813 18.1528C61.497 18.1354 61.8869 18.1475 62.2092 18.1494C62.1495 19.6774 62.204 21.5472 62.2129 23.0889C60.1349 23.0473 57.9612 23.0809 55.8732 23.0688C55.8178 23.1703 55.7601 23.2705 55.7001 23.3693C55.4059 23.8503 53.9498 24.8086 53.4264 24.4849C53.3418 24.2219 53.3215 24.1606 53.3416 23.8862C53.6263 23.6315 54.2251 23.6742 54.8342 23.1911L54.8252 23.1111L54.6479 23.1079C54.3793 23.0863 54.0129 23.0238 53.7385 22.985C53.1524 22.5626 53.0498 22.359 52.8743 21.6965C53.1754 20.4472 54.1977 19.4772 55.4928 20.5373C55.9454 20.908 55.9052 21.7613 55.881 22.314C57.6239 22.2769 59.482 22.3107 61.2339 22.3118C61.153 20.9515 61.25 19.5296 61.1813 18.1528ZM54.7882 22.3373L54.9518 22.2836C55.0954 21.9082 54.9933 21.1365 54.5757 20.9282C54.5083 20.8946 54.2461 20.8974 54.1615 20.8979C53.4927 21.6165 53.8126 22.3019 54.7882 22.3373Z" fill="#A1A1A1"/>
<path d="M86.8921 28.471C87.4728 28.4343 87.6852 28.7186 88.1696 28.7621L88.2814 28.5961C88.4952 28.4762 88.9234 28.5223 89.1723 28.5208C89.1048 29.6824 89.4796 32.1193 88.7701 33.0087C88.4586 33.3999 87.977 33.6081 87.4897 33.6619C87.0896 33.7059 86.4428 33.6816 86.1186 33.4043C85.9794 33.2856 86.004 33.1361 85.9864 32.9643L86.0771 32.7057C86.428 32.6071 86.9532 32.8682 87.3681 32.8449C87.5811 32.8329 87.7864 32.744 87.9278 32.5808C88.1134 32.3677 88.1837 32.0453 88.171 31.7686C87.8638 31.7448 87.5565 32.0814 87.2577 32.1615C86.9835 32.2348 86.589 32.1146 86.3556 31.967C85.9653 31.7199 85.7424 31.2914 85.6461 30.85C85.5203 30.2715 85.6145 29.623 85.9351 29.1218C86.1917 28.721 86.4357 28.5736 86.8921 28.471ZM87.6627 31.3744C88.01 30.9384 88.2568 30.5661 88.1816 29.9814C88.1507 29.7441 88.0339 29.5379 87.8392 29.3985C87.5924 29.2223 87.3709 29.215 87.0833 29.2305C86.7782 29.5415 86.6699 29.884 86.6741 30.3129C86.6776 30.6526 86.7521 30.9908 87.0046 31.2355C87.1325 31.3598 87.2654 31.4179 87.444 31.41C87.5185 31.4067 87.591 31.3936 87.6627 31.3744Z" fill="#A1A1A1"/>
<path d="M26.8674 27.1992C27.9742 27.3468 30.6404 26.768 30.2808 28.8953C30.2168 29.2737 29.8097 29.508 29.5058 29.6949C29.8831 30.3188 30.3914 31.5137 30.6119 32.2041C30.3116 32.1826 29.6707 32.233 29.4552 32.1015L29.4423 32.0746C29.1326 31.4117 28.9781 30.9044 28.7484 30.2042L27.9916 30.1011C27.9987 30.7915 27.9971 31.4818 27.9869 32.1721C27.5835 32.152 27.2795 32.1824 26.8764 32.2171C26.8899 30.5445 26.8869 28.8718 26.8674 27.1992ZM27.9957 29.3927C28.3059 29.3455 28.8085 29.2925 29.0755 29.1636C29.4433 28.145 28.8503 28.0523 27.9976 28.014L27.9957 29.3927Z" fill="#A1A1A1"/>
<path d="M25.634 35.5369C25.9563 35.5146 26.2846 35.5335 26.6076 35.5407C26.5366 37.285 26.5903 39.0487 26.5924 40.7952C26.306 40.7847 26.0198 40.7697 25.7339 40.7502C25.6899 40.6623 25.645 40.5772 25.5923 40.4941C24.9658 40.7715 24.6018 40.8584 23.9114 40.76C23.8379 40.7271 23.7707 40.6883 23.7104 40.6345C23.2778 40.2487 23.0493 39.6565 23.0079 39.0878C22.9685 38.5472 23.1156 37.938 23.4798 37.5261C23.7419 37.2297 24.0821 37.0802 24.4737 37.0619C24.9254 37.0408 25.2051 37.1629 25.5294 37.4644L25.6226 37.4566C25.7417 36.8761 25.6482 36.1357 25.634 35.5369ZM25.0705 40.085C25.3564 39.7513 25.5263 39.3708 25.6624 38.9549C25.5369 38.5869 25.4151 38.0549 25.0324 37.869C24.9256 37.8172 24.798 37.7929 24.6822 37.7691C24.3657 37.962 24.2396 38.1761 24.151 38.5318C24.0487 38.9426 24.0675 39.3612 24.2864 39.734C24.378 39.8899 24.4995 40.0141 24.6795 40.0554C24.8049 40.0842 24.9423 40.0834 25.0705 40.085Z" fill="#A1A1A1"/>
<path d="M82.8717 28.4719C83.8891 28.2322 84.9093 28.8602 85.1582 29.8799C85.4071 30.8994 84.7926 31.9304 83.7801 32.191C83.1156 32.3621 82.4111 32.1615 81.9351 31.6659C81.4584 31.1703 81.284 30.4559 81.4781 29.7952C81.6714 29.1345 82.2037 28.6292 82.8717 28.4719ZM83.4834 31.5155C83.7949 31.3437 83.9594 31.0887 84.0585 30.753C84.1675 30.3858 84.1661 29.9726 83.9727 29.6328C83.8736 29.4583 83.707 29.2916 83.5045 29.2493C83.3681 29.2206 83.207 29.2342 83.0678 29.2407C82.7873 29.3789 82.5995 29.4817 82.4941 29.7994C82.3844 30.129 82.447 30.5681 82.4941 30.9066C82.8126 31.2835 82.987 31.4459 83.4834 31.5155Z" fill="#A1A1A1"/>
<path d="M76.8678 28.4704C77.8775 28.2459 78.8809 28.8722 79.127 29.8807C79.3738 30.8893 78.774 31.9112 77.7756 32.182C77.0225 32.3863 76.2224 32.1088 75.7555 31.4818C75.3681 30.9619 75.2696 30.2803 75.4946 29.6717C75.7196 29.0631 76.2364 28.6107 76.8678 28.4704ZM76.4438 30.7953C76.6646 31.1068 76.8306 31.4104 77.2348 31.4804C77.3438 31.4993 77.4556 31.4989 77.566 31.4962C77.912 31.1338 78.1398 30.7022 78.1285 30.1877C78.1222 29.9157 78.0371 29.654 77.8346 29.4653C77.6223 29.2677 77.4127 29.2097 77.1287 29.2288C77.0795 29.2321 77.0309 29.2366 76.9824 29.242C76.6808 29.4812 76.4495 29.7004 76.4059 30.1107C76.382 30.3348 76.4115 30.5738 76.4438 30.7953Z" fill="#A1A1A1"/>
<path d="M56.6094 37.1152C57.624 36.8445 58.6649 37.4517 58.9335 38.471C59.2021 39.4903 58.5965 40.5351 57.5813 40.8039C57.0157 40.9536 56.413 40.8332 55.9474 40.4776C55.4818 40.122 55.2054 39.5707 55.1979 38.9833C55.1869 38.1094 55.7685 37.3397 56.6094 37.1152ZM57.4951 40.0349C57.8005 39.7892 57.9358 39.3882 57.9732 39.0058C58.0058 38.6805 57.9048 38.356 57.6937 38.107C57.5766 37.9711 57.3975 37.8507 57.2145 37.8378C57.0474 37.826 56.8654 37.8558 56.6992 37.8755C56.3894 38.1672 56.2573 38.5635 56.2494 38.9847C56.2418 39.3211 56.3725 39.6457 56.6107 39.8823C56.7566 40.0253 56.9246 40.0706 57.1247 40.0654C57.2483 40.0623 57.3723 40.0489 57.4951 40.0349Z" fill="#A1A1A1"/>
<path d="M40.6806 37.1195C41.573 36.8744 42.5114 37.3113 42.9019 38.1538C43.2924 38.9962 43.0212 39.9988 42.26 40.5269C42.0744 40.6557 41.8674 40.7502 41.6489 40.806C40.6394 41.0637 39.6117 40.4563 39.346 39.4447C39.0803 38.4332 39.6759 37.3955 40.6806 37.1195ZM41.5441 40.047C41.8361 39.832 41.9669 39.4857 42.0218 39.1353C42.0767 38.7851 42.0133 38.444 41.8034 38.1534C41.7038 38.0154 41.5327 37.8629 41.3579 37.8379C41.1845 37.813 40.9804 37.8445 40.8059 37.8598C40.4941 38.0986 40.3725 38.4269 40.3208 38.8051C40.2732 39.1533 40.3627 39.4969 40.5792 39.7746C40.6808 39.9049 40.8396 40.0425 41.0104 40.0603C41.183 40.0782 41.3708 40.0578 41.5441 40.047Z" fill="#A1A1A1"/>
<path d="M65.668 35.945C66.4124 35.9422 67.8636 35.7933 68.4729 36.2883C68.764 36.5248 68.9284 36.8975 68.9602 37.2674C68.9937 37.6555 68.883 38.0497 68.6224 38.3428C68.1665 38.8558 67.5135 38.851 66.8847 38.8873L66.8198 38.9416C66.6789 39.2428 66.7793 40.4065 66.7828 40.801C66.3989 40.7706 66.062 40.7686 65.6789 40.8204L65.668 35.945ZM66.7876 38.116C67.0985 38.0723 67.4289 38.0469 67.728 37.9505C67.8432 37.712 67.9535 37.4356 67.8579 37.1716C67.8069 37.0308 67.6734 36.9091 67.5379 36.8477C67.3097 36.7445 67.0254 36.7367 66.7786 36.7135L66.7876 38.116Z" fill="#A1A1A1"/>
<path d="M67.5652 26.9219L68.3616 26.9496L68.3449 28.8731C69.4563 28.0885 70.4868 28.2837 70.6604 29.7501C70.7483 30.4917 70.6865 31.4436 70.6738 32.1993C70.23 32.1613 70.0609 32.1691 69.6159 32.2121L69.6192 30.3943C69.6186 30.1801 69.6418 29.4981 69.4617 29.3749C68.097 28.441 68.3439 31.5099 68.346 32.1979C67.9218 32.1551 67.722 32.1681 67.294 32.1987C67.3128 31.4202 67.2408 27.4436 67.3565 27.0121L67.5652 26.9219Z" fill="#A1A1A1"/>
<path d="M21.0727 26.9229L21.888 26.9493L21.8695 28.8589C21.9334 28.8139 21.9986 28.7708 22.065 28.7298C22.9843 28.1661 23.6561 28.4436 24.1717 29.3409C24.2113 30.2776 24.1922 31.2556 24.1871 32.1962C23.7678 32.1621 23.566 32.1778 23.1442 32.2142C23.1632 31.6113 23.1503 30.944 23.1506 30.336C23.1395 29.731 23.2068 29.3705 22.5731 29.1243C21.6791 29.2223 21.8731 31.4922 21.8763 32.2026C21.432 32.1611 21.2698 32.1677 20.8241 32.2099C20.8409 31.43 20.7232 27.4423 20.8776 27.0014L21.0727 26.9229Z" fill="#A1A1A1"/>
<path d="M28.0624 18.1669C28.3655 18.146 28.6156 18.1083 28.9078 18.1957C29.0662 18.3827 29.01 22.4242 29.0213 23.0929C27.634 23.0762 26.2466 23.0762 24.8593 23.0933L24.8552 22.303L26.1685 22.3053L26.2625 22.2912C26.3697 22.1499 26.3016 19.7032 26.2973 19.354C26.6419 19.3086 26.9297 19.3229 27.2762 19.3311L27.2789 22.3156L28.1081 22.3136C28.028 21.0595 28.0965 19.4792 28.0624 18.1669Z" fill="#A1A1A1"/>
<path d="M4.92017 26.9302C5.13964 26.9231 5.47819 26.9436 5.70731 26.951C5.71667 27.5947 5.71331 28.2385 5.69725 28.8821C8.44525 27.1553 8.1074 30.6291 8.08378 32.1994C7.65255 32.1534 7.46348 32.1709 7.02807 32.2086L7.02876 30.5228C7.03218 30.121 7.07374 29.6583 6.84036 29.328C5.48103 28.4396 5.6977 31.647 5.70043 32.1998C5.27852 32.1583 5.13922 32.1678 4.71615 32.2144C4.71446 31.5175 4.67106 27.38 4.75447 27.0062L4.92017 26.9302Z" fill="#A1A1A1"/>
<path d="M91.3741 20.1484C92.7797 20.1603 93.0757 20.9159 93.0694 22.1573C93.0616 23.7091 92.073 24.341 90.6661 24.5455C90.5543 24.5618 90.4959 24.4571 90.4277 24.3818L90.4207 24.0341C90.5859 23.7519 91.699 23.3203 92.1426 23.0825C91.2539 23.1164 90.2034 23.0085 89.9777 21.9214C89.9046 21.5592 89.9812 21.1828 90.1901 20.8783C90.4966 20.4297 90.8644 20.2449 91.3741 20.1484ZM91.6392 22.3612C91.7623 22.3412 92.0091 22.3401 92.0498 22.2191C92.2551 21.6129 92.0576 20.9196 91.353 20.8963C90.6091 21.3067 90.6914 22.1138 91.4634 22.3187C91.5218 22.3341 91.5801 22.3482 91.6392 22.3612Z" fill="#A1A1A1"/>
<path d="M32.9565 20.1484C33.4582 20.1685 33.8742 20.2016 34.1845 20.6555C34.7413 21.4696 34.7113 23.4159 33.7989 23.9834C33.4463 24.2027 32.5366 24.5195 32.11 24.5426C32.0148 24.5469 31.9387 24.3889 31.8837 24.3089L31.9046 24.0023C32.0573 23.7768 33.2495 23.315 33.6754 23.0876C33.0794 23.1085 32.6581 23.1585 32.1223 22.803C31.4539 22.3597 31.2513 21.4798 31.7543 20.82C32.1095 20.3538 32.3855 20.2412 32.9565 20.1484ZM33.4126 22.352C33.4694 22.3193 33.5716 22.2825 33.5765 22.2259C33.6433 21.4539 33.5681 20.9065 32.7386 20.9038C32.0683 21.6869 32.4348 22.3121 33.4126 22.352Z" fill="#A1A1A1"/>
<path d="M51.1433 26.9293C51.4369 26.9166 51.7794 26.9414 52.0765 26.9548C52.0281 27.4916 52.0424 28.3644 52.0356 28.9262C52.4118 28.6605 52.8173 28.4394 53.2921 28.4279C53.5438 28.4218 53.7869 28.5203 53.9639 28.7002C54.5682 29.3195 54.3982 31.2935 54.3923 32.1925C54.0259 32.1736 53.8079 32.1849 53.4411 32.2126L53.4185 30.42C53.4064 29.8522 53.4786 29.4595 52.88 29.2095C51.794 29.2746 52.0402 31.4001 52.0472 32.1998C51.6429 32.1646 51.5184 32.1543 51.1199 32.2166C51.1163 31.4238 50.9846 27.4671 51.1433 26.9293Z" fill="#A1A1A1"/>
<path d="M75.7849 35.5449C76.1126 35.5146 76.4508 35.5287 76.7806 35.5283C76.7735 36.5452 76.7742 37.5621 76.782 38.579C77.0421 38.0444 77.4506 37.6004 77.8296 37.1478L78.9131 37.1257C78.5806 37.7189 78.0624 38.2608 77.6292 38.7864C78.0335 39.3787 78.5405 39.8579 78.8928 40.496C78.9694 40.5896 78.9792 40.6136 79.0003 40.7335C78.795 40.8586 78.1278 40.7741 77.8739 40.771C77.5624 40.1755 77.1047 39.6713 76.7925 39.0647C76.7785 39.6472 76.7792 40.231 76.7728 40.8136C76.4149 40.7694 76.1203 40.7622 75.7596 40.8015C75.8398 39.0648 75.6197 37.2657 75.7849 35.5449Z" fill="#A1A1A1"/>
<path d="M16.3228 37.0927C16.3947 37.089 16.4665 37.0857 16.5385 37.0829C17.0441 37.0635 17.5289 37.061 17.9217 37.4425C18.5621 38.0644 18.3324 39.9746 18.3377 40.8012L17.534 40.7401L17.4355 40.4751C17.2815 40.4254 17.0413 40.6275 16.8916 40.7021C16.4157 40.9394 15.9224 40.7901 15.4499 40.6264C15.2309 40.3351 15.0653 39.8856 15.0507 39.5206C15.0023 38.323 17.03 38.7949 17.4055 38.4014C17.3658 38.1975 17.3361 38.0507 17.1961 37.893C16.5063 37.6834 16.1079 37.8533 15.4893 38.1664C15.4519 37.8829 15.3651 37.5804 15.529 37.3269C15.7392 37.1526 16.0612 37.137 16.3228 37.0927ZM16.7692 40.1144C17.0386 39.9923 17.278 39.8646 17.3867 39.5652C17.4316 39.4414 17.3961 39.3744 17.3603 39.2543C17.1499 39.0984 16.9312 39.1338 16.673 39.141C16.4705 39.1905 16.241 39.2333 16.1212 39.4239C16.0229 39.5799 16.0402 39.6713 16.0677 39.8443C16.2105 40.0102 16.3068 40.0925 16.5361 40.1079C16.6136 40.1132 16.6915 40.1141 16.7692 40.1144Z" fill="#A1A1A1"/>
<path d="M48.1583 37.0953C48.4741 37.0791 48.8104 37.0464 49.1239 37.099C49.6349 37.1847 49.8744 37.4997 50.1558 37.8946C50.2871 38.8312 50.2239 39.855 50.2345 40.8013C49.9879 40.7952 49.6339 40.8072 49.4082 40.71L49.3411 40.4476C48.9511 40.3922 48.7821 40.998 47.4959 40.7077C47.378 40.6204 47.2768 40.5303 47.2035 40.4008C47.0305 40.0952 46.9537 39.6757 47.0559 39.334C47.3633 38.3066 48.564 38.7625 49.2436 38.3853C49.2814 38.2733 49.3033 38.2541 49.2469 38.1428C48.8595 37.377 47.9964 38.1359 47.4823 37.9704C47.4377 37.9296 47.387 37.8794 47.3652 37.8213C47.2997 37.6459 47.3062 37.518 47.3721 37.3509C47.5738 37.1699 47.8999 37.1463 48.1583 37.0953ZM48.7412 40.1202C48.941 39.9286 49.2948 39.625 49.3008 39.333C49.302 39.2783 49.2443 39.2215 49.2131 39.1771C49.0169 39.1022 48.7974 39.1336 48.5917 39.1445C48.3881 39.1869 48.1413 39.2243 48.02 39.4147C47.9154 39.5787 47.9386 39.6722 47.9782 39.8505C48.0851 39.9954 48.184 40.0843 48.3687 40.1077C48.4907 40.1231 48.6185 40.1211 48.7412 40.1202Z" fill="#A1A1A1"/>
<path d="M70.3836 37.0937L70.5523 37.0846C71.0649 37.0594 71.5578 37.0584 71.9586 37.4381C72.5865 38.0327 72.3784 39.9769 72.3903 40.8001C72.256 40.7918 71.6541 40.7973 71.5726 40.7189C71.5015 40.6503 71.5698 40.4818 71.4495 40.392C71.311 40.483 71.1697 40.5729 71.0255 40.656C70.5551 40.9283 70.0954 40.8164 69.6033 40.6813C69.4563 40.5725 69.3815 40.4467 69.3015 40.2862C69.1642 40.0108 69.0677 39.7223 69.1753 39.4182C69.5997 38.2195 71.0312 38.6854 71.4692 38.466C71.4826 38.3757 71.503 38.2697 71.4938 38.1789C71.4819 38.0591 71.408 37.9679 71.3124 37.9035C70.9088 37.632 70.0061 37.9498 69.5689 38.0447C69.5226 37.795 69.4968 37.5423 69.468 37.2902C69.7685 37.2122 70.0793 37.158 70.3836 37.0937ZM70.8624 40.1142C71.1099 39.981 71.3722 39.8098 71.4558 39.5209C71.491 39.4005 71.446 39.3341 71.4031 39.2243C71.188 39.1011 70.9918 39.1387 70.7478 39.1412C70.5369 39.194 70.2851 39.2406 70.1685 39.4474C70.088 39.5902 70.0968 39.6673 70.1165 39.8231C70.2373 39.9784 70.3217 40.0794 70.5305 40.1036C70.6388 40.1163 70.7534 40.1143 70.8624 40.1142Z" fill="#A1A1A1"/>
<path d="M61.6326 28.4749C62.2309 28.4329 62.6666 28.5346 63.1943 28.8161C63.4952 29.4003 63.6074 30.037 63.7417 30.6744L61.1039 30.6697C61.2722 30.9013 61.4685 31.2375 61.7186 31.3831C62.1297 31.6223 62.5503 31.4747 62.9747 31.3603C63.1037 31.2594 63.1507 31.2056 63.3151 31.1819C63.4053 31.2999 63.4192 31.3346 63.4073 31.484C63.3909 31.688 63.2701 31.8398 63.1195 31.9681C62.8119 32.2303 62.4067 32.3243 62.0105 32.2828C61.3068 32.2092 60.8226 31.8044 60.392 31.2754C60.2402 30.6097 60.1785 29.7918 60.5566 29.1865C60.8157 28.7717 61.1703 28.5828 61.6326 28.4749ZM62.1738 29.9637C62.3936 29.9539 62.5097 29.9868 62.6782 29.8272C62.6827 29.6264 62.6335 29.5425 62.4919 29.3947C62.3247 29.2202 62.1013 29.189 61.8709 29.1683C61.6323 29.2863 61.4812 29.3957 61.2951 29.5882L61.2452 29.7626C61.3433 29.8883 61.4016 29.9668 61.5723 29.9829C61.7647 30.0012 61.9802 29.9746 62.1738 29.9637Z" fill="#A1A1A1"/>
<path d="M42.8021 28.4847C43.2486 28.4479 43.767 28.4264 44.135 28.7229C44.9218 29.3572 44.6206 31.2747 44.7217 32.207C44.4329 32.1882 44.0609 32.2047 43.8013 32.0734L43.7634 31.7984C43.4799 31.7614 43.2565 32.0703 43.0077 32.1877C42.728 32.3197 42.2576 32.1866 41.9845 32.0808C41.7631 31.8484 41.5011 31.5759 41.4471 31.2475C41.3755 30.8133 41.6307 30.4799 41.8714 30.1519C42.4577 29.9141 43.0276 30.0387 43.6151 29.8892L43.6854 29.7582C43.6711 29.6873 43.6567 29.6144 43.6334 29.5458C43.59 29.4181 43.501 29.2991 43.3793 29.2433C42.9466 29.0447 42.2249 29.3477 41.8182 29.5024C41.8211 29.2558 41.7751 28.9156 41.9315 28.7124C42.0859 28.5116 42.5675 28.5119 42.8021 28.4847ZM43.2175 31.516C43.4355 31.3417 43.6467 31.0769 43.6768 30.7888C43.6869 30.6926 43.6316 30.6073 43.5933 30.5201C43.373 30.3905 43.1656 30.4361 42.9143 30.4604C42.7286 30.5619 42.5237 30.6862 42.4539 30.9009C42.4101 31.036 42.415 31.1479 42.4796 31.2753C42.5188 31.3529 42.6096 31.4138 42.6777 31.4649C42.8643 31.5124 43.0255 31.5219 43.2175 31.516Z" fill="#A1A1A1"/>
<path d="M32.1353 28.4818C33.8648 28.3485 34.1626 29.1729 34.2599 30.671C33.4218 30.6619 32.5837 30.6637 31.7456 30.6761C31.8135 30.8007 31.8836 30.924 31.9559 31.0461C32.3924 31.7756 33.2069 31.5513 33.7948 31.1803L33.8473 31.1145L33.9634 31.14C34.4143 33.2177 29.1819 32.4312 31.3687 28.8112C31.6579 28.6436 31.8226 28.591 32.1353 28.4818ZM31.7407 29.9725L32.8537 29.9592C33.0472 29.9537 33.1531 29.9865 33.3028 29.8575C33.2936 29.6546 33.2363 29.5696 33.0817 29.4313C32.8805 29.2512 32.6701 29.1874 32.4056 29.1703C32.045 29.3141 31.9567 29.4626 31.81 29.8057C31.7864 29.8611 31.7634 29.9167 31.7407 29.9725Z" fill="#A1A1A1"/>
<path d="M10.0049 28.4862L10.0508 28.4802C12.3711 28.1947 11.723 30.6122 11.901 32.1911C11.6404 32.1664 11.1888 32.2161 11 32.1086L10.9576 31.7911C10.5126 31.764 10.1504 32.6277 9.21178 32.0718C7.03772 30.0523 10.5702 30.0608 10.9356 29.6409L10.9067 29.5161C10.2097 28.7681 9.63324 29.6211 9.01702 29.2912C8.71819 28.5782 9.57973 28.5371 10.0049 28.4862ZM10.3968 31.5125C10.6085 31.3828 10.8169 31.129 10.8759 30.8819C10.9089 30.7435 10.8676 30.6669 10.8223 30.5385C10.599 30.3785 10.4024 30.4296 10.1366 30.4624C9.94852 30.5575 9.73252 30.6849 9.65848 30.8972C9.60975 31.0369 9.61791 31.147 9.68681 31.2779C9.72626 31.3529 9.81295 31.4094 9.88031 31.4577C10.0569 31.499 10.2156 31.513 10.3968 31.5125Z" fill="#A1A1A1"/>
<path d="M18.1547 28.4856C18.2507 28.4784 18.3469 28.4733 18.4431 28.4701C20.5445 28.4061 20.0237 30.6281 20.0613 32.189C19.8029 32.1722 19.5098 32.207 19.2712 32.1223C19.23 32.0155 19.1967 31.9195 19.1613 31.8106C18.7406 31.7944 18.2067 32.6828 17.3945 32.0257C16.8606 31.6135 16.6634 31.2618 16.934 30.6134C17.3235 29.6799 18.3524 30.1595 19.0811 29.8606L19.1364 29.7182C18.8333 28.4556 17.6644 29.8191 17.292 29.2445C17.2638 28.9852 17.2491 28.9233 17.3642 28.6951C17.5332 28.5296 17.9034 28.5192 18.1547 28.4856ZM18.4755 31.5331C18.7557 31.4464 18.9072 31.3189 19.0464 31.0616C19.1365 30.8951 19.1277 30.7964 19.0991 30.6176C19.0117 30.5086 18.9757 30.4409 18.8255 30.4236C18.6882 30.4078 18.5227 30.4381 18.385 30.453C18.1777 30.5824 17.877 30.731 17.8159 30.9878C17.7818 31.1309 17.8193 31.1885 17.879 31.3145C18.0674 31.468 18.2443 31.4944 18.4755 31.5331Z" fill="#A1A1A1"/>
<path d="M38.9822 28.4783C39.5008 28.4348 40.0578 28.4642 40.4713 28.8201C40.9948 29.2706 41.0514 30.034 41.0974 30.6749L38.5737 30.6636C38.7601 31.0259 38.8973 31.3489 39.3146 31.483C39.7148 31.6115 40.1867 31.4314 40.5401 31.2409L40.6054 31.1663L40.7119 31.1886C40.8904 32.1411 40.2815 32.2913 39.5035 32.2351C37.4191 32.0845 37.3397 30.1876 38.2288 28.7643C38.5002 28.633 38.6987 28.5708 38.9822 28.4783ZM39.5931 29.9633C39.8013 29.9547 39.9413 29.9872 40.1042 29.8453C40.1003 29.6566 40.07 29.5919 39.9309 29.4616C39.7588 29.3005 39.5841 29.2088 39.3504 29.1816L39.3063 29.176C39.2787 29.1728 39.251 29.1713 39.2233 29.1699C39.0005 29.2669 38.8644 29.3641 38.7041 29.5474L38.6608 29.7123C38.7372 29.8356 38.7981 29.9309 38.9498 29.9643C39.1408 30.0063 39.3963 29.9721 39.5931 29.9633Z" fill="#A1A1A1"/>
<path d="M2.01558 27.2131C2.40978 27.1657 3.44902 27.1193 3.76619 27.3568C3.81543 27.5874 3.80921 27.6275 3.76044 27.8603C3.35655 28.3655 2.419 27.6429 2.08284 28.2587C1.45001 29.4179 3.9113 29.1921 4.02014 30.3172C4.13565 31.5111 3.72113 32.0222 2.54361 32.2239C2.06145 32.2384 1.45549 32.1615 0.965924 32.1137L1.01346 31.0133C1.52119 31.3345 2.58878 31.6449 3.02003 31.0853C3.34232 30.0753 1.16075 30.0513 0.931317 29.1608C0.687615 28.215 1.13032 27.4883 2.01558 27.2131Z" fill="#A1A1A1"/>
<path d="M92.3077 28.5212L93.266 28.5195C92.9897 29.4685 92.6086 30.3722 92.2809 31.3029C92.0756 31.8951 91.8914 32.5777 91.5195 33.0866C91.2902 33.4007 90.9738 33.617 90.585 33.6729C90.3277 33.7099 90.0703 33.7027 89.8601 33.5457C89.8369 33.4644 89.8066 33.3728 89.8024 33.2882C89.7806 32.8367 90.5063 32.9356 90.7896 32.6478C91.0392 31.9789 89.8657 29.3123 89.5901 28.5315L90.6518 28.5248C90.8958 29.3715 91.2256 30.1913 91.4688 31.0406C91.7142 30.1948 92.044 29.3645 92.3077 28.5212Z" fill="#A1A1A1"/>
<path d="M61.2173 37.0946C61.3637 37.083 61.5104 37.0753 61.6572 37.0716C61.9995 37.0659 62.2598 37.1403 62.5068 37.3884C63.1961 38.0808 62.9455 39.8974 62.9365 40.7996C62.5765 40.7563 62.2459 40.7702 61.8855 40.8034C61.8719 40.0318 62.0454 39.0872 61.8643 38.3448C61.807 38.1094 61.734 37.9784 61.5267 37.8519C61.3125 37.7892 61.1354 37.8568 60.9309 37.9195C60.4952 38.6924 60.6398 39.9231 60.6384 40.7988C60.2787 40.7589 59.9482 40.7669 59.5881 40.7999L59.5735 37.1373C59.7869 37.1327 60.0583 37.1032 60.265 37.1505C60.4243 37.1869 60.4881 37.282 60.5693 37.4124C60.7516 37.4349 61.0458 37.19 61.2173 37.0946Z" fill="#A1A1A1"/>
<path d="M37.0565 37.0939C37.2844 37.0781 37.5565 37.0526 37.7814 37.0928C38.2077 37.1689 38.4248 37.524 38.6573 37.8503C38.7725 38.8119 38.7373 39.7972 38.7133 40.7634C38.3815 40.747 38.0452 40.7669 37.7131 40.7764C37.7257 40.0933 37.8172 39.3094 37.7252 38.6369C37.6863 38.353 37.6034 38.0681 37.3621 37.893C37.2 37.7754 36.9169 37.8559 36.7333 37.8886C36.209 38.5139 36.4108 40.0104 36.4113 40.7968C36.0446 40.7696 35.733 40.762 35.3679 40.8194C35.3499 39.5904 35.3623 38.3597 35.3627 37.1305C35.5315 37.1309 36.1888 37.0884 36.3006 37.1929C36.3759 37.2631 36.3226 37.3803 36.451 37.4726C36.6365 37.2884 36.7703 37.1612 37.0344 37.099L37.0565 37.0939Z" fill="#A1A1A1"/>
<path d="M32.8682 37.0996C33.0437 37.0811 33.2237 37.0746 33.4001 37.0765C33.7065 37.0797 33.9672 37.1792 34.1798 37.4059C34.806 38.0733 34.5455 39.903 34.5294 40.8001C34.2089 40.7513 33.8987 40.7694 33.5763 40.7855C33.5528 39.9974 33.7033 39.1128 33.5286 38.3434C33.468 38.0767 33.3853 37.9763 33.1656 37.8369C32.9434 37.8162 32.7933 37.8624 32.5868 37.9422C32.0531 38.7979 32.1918 39.829 32.2016 40.7973C31.8768 40.7522 31.5724 40.7704 31.2465 40.795C31.2402 39.5768 31.2408 38.3585 31.2482 37.1403C31.4541 37.1338 31.8161 37.0815 31.9921 37.1958C32.0747 37.2495 32.1373 37.3473 32.231 37.3802C32.3822 37.4333 32.7228 37.1834 32.8682 37.0996Z" fill="#A1A1A1"/>
<path d="M20.7228 37.0919C20.8807 37.0839 21.0388 37.0799 21.1969 37.0801C21.5219 37.0816 21.7788 37.1431 22.0111 37.3872C22.6393 38.0472 22.37 39.9568 22.3574 40.807C22.0245 40.7661 21.7365 40.7636 21.4041 40.81C21.4137 40.0678 21.5372 39.1085 21.3814 38.3882C21.3291 38.147 21.2679 37.9895 21.0584 37.8518C20.8323 37.7948 20.6879 37.8479 20.4739 37.9283C19.8873 38.7484 20.0539 39.8299 20.0724 40.7948C19.7422 40.7552 19.4415 40.7714 19.1115 40.8051C19.1131 39.5823 19.1061 38.3595 19.0906 37.1368C19.3399 37.1359 19.6357 37.0908 19.8539 37.2269C19.93 37.2744 20.0114 37.3474 20.0998 37.3679C20.2813 37.41 20.5602 37.1859 20.7228 37.0919Z" fill="#A1A1A1"/>
<path d="M73.3199 28.4733C73.4056 28.4699 73.4914 28.4684 73.5772 28.4688C73.8873 28.4714 74.1959 28.5401 74.4167 28.7757C75.0277 29.4286 74.7683 31.3112 74.7528 32.1947C74.4315 32.16 74.127 32.1747 73.805 32.1988C73.7748 31.4165 74.0152 30.3222 73.7178 29.5966C73.6545 29.4426 73.5631 29.3312 73.4106 29.2667C73.1877 29.1728 72.9177 29.3041 72.7081 29.3856C72.2827 30.0739 72.4522 31.3966 72.4649 32.2013C72.1365 32.1726 71.8391 32.1775 71.5128 32.2168C71.503 30.9846 71.5023 29.7524 71.5093 28.5202C71.6949 28.5181 71.9263 28.4986 72.1056 28.5445C72.2638 28.5848 72.3734 28.7018 72.5429 28.6994C72.7602 28.6964 73.0991 28.538 73.3199 28.4733Z" fill="#A1A1A1"/>
<path d="M58.6196 27.2242C59.1024 27.2334 61.0803 26.9239 60.467 27.9533C60.1467 28.1313 59.5931 28.0489 59.1931 28.0337C59.1972 28.6254 59.2972 31.8683 59.0904 32.1795L58.8947 32.1631C58.6794 32.1628 58.3463 32.2014 58.1228 32.2201L58.1336 28.0264L56.7847 28.0417C56.774 27.8086 56.7951 27.4871 56.8037 27.2472L58.6196 27.2242Z" fill="#A1A1A1"/>
<path d="M5.61841 12.0664C5.93836 12.0772 6.27589 12.0762 6.59765 12.0806C6.55058 12.9537 6.58412 13.9912 6.60248 14.8743C5.09185 14.8826 3.45917 14.9359 1.95074 14.8312C1.53048 14.8019 1.10502 14.6257 0.878342 14.2478C0.722424 13.866 0.680424 13.2423 0.844437 12.8611C1.01966 12.7196 1.05256 12.6894 1.27294 12.6815C1.72391 12.9756 1.5198 13.6082 1.80318 13.968C2.57651 14.1982 4.70417 14.1092 5.62258 14.1151C5.57211 13.5327 5.58308 12.6461 5.61841 12.0664Z" fill="#A1A1A1"/>
<path d="M45.8788 37.133L46.8634 37.1318C46.7326 37.4424 46.6435 37.7787 46.5425 38.1006C46.23 38.9965 45.8407 39.8698 45.5898 40.7851C45.1981 40.7563 44.8063 40.7701 44.4141 40.7792C44.0845 39.5436 43.5679 38.363 43.1672 37.1484L44.1848 37.1407C44.4344 37.9875 44.7862 38.7979 45.0266 39.6503C45.3172 38.8116 45.614 37.9808 45.8788 37.133Z" fill="#A1A1A1"/>
<path d="M35.7528 28.4744C36.094 28.4527 36.7805 28.4436 37.0774 28.5844C37.1494 28.7908 37.1262 28.879 37.0999 29.0981C36.7403 29.5971 36.3638 28.9679 35.7888 29.2719C35.6956 29.5277 35.6935 29.4307 35.768 29.6769C36.2019 30.1277 37.1275 29.9669 37.3043 30.7063C37.4976 31.5152 36.8324 31.996 36.1628 32.2084C35.8031 32.224 35.0889 32.2371 34.7777 32.1014C34.667 31.9243 34.7111 31.5911 34.8303 31.4224C35.0775 31.2935 36.2425 31.8534 36.1983 31.0532C35.7764 30.4842 34.0524 30.2662 34.8072 29.0044C35.0417 28.6124 35.342 28.5621 35.7528 28.4744Z" fill="#A1A1A1"/>
<path d="M52.1153 36.1689L52.1865 36.1829C52.321 36.3788 52.2506 36.9062 52.2449 37.1512C52.4271 37.1418 52.6447 37.1141 52.8241 37.145C52.9689 37.17 53.0559 37.2931 53.1334 37.4067C53.1562 37.5888 53.1292 37.6111 53.0355 37.7593C52.8191 37.9346 52.5061 37.8764 52.2441 37.8648C52.2387 38.4449 52.1003 39.5068 52.4198 39.9886C52.6262 40.0901 52.7465 40.0195 52.9666 40.0339C53.0737 40.0408 53.0765 40.0637 53.146 40.1432C53.1933 40.3519 53.1767 40.4988 53.13 40.7064C52.9832 40.865 52.8552 40.8264 52.65 40.8343C52.2898 40.8344 51.9471 40.836 51.6422 40.6108C50.9697 40.1139 51.3314 38.7112 51.2131 37.9634C51.0685 37.8044 50.832 37.9116 50.6392 37.8197C50.5552 37.7796 50.5385 37.7587 50.5108 37.6691C50.4751 37.5534 50.5089 37.3394 50.5737 37.2374C50.6441 37.1266 50.971 37.1225 51.1029 37.1033C51.2879 36.8921 51.259 36.7162 51.3643 36.4669C51.5593 36.2767 51.8594 36.2347 52.1153 36.1689Z" fill="#A1A1A1"/>
<path d="M65.5338 28.4752C65.8674 28.4598 66.3809 28.3796 66.6672 28.5698C66.7836 28.7809 66.7576 28.9281 66.7553 29.1641C66.3426 29.5544 66.0723 29.0867 65.6912 29.2661C65.308 29.4466 65.1993 29.9184 65.0697 30.2865C65.1677 30.656 65.2904 31.1156 65.632 31.3311C65.9924 31.5585 66.3733 31.4182 66.7544 31.3273L66.8408 31.4392L66.8489 32.0118C66.776 32.1278 66.7698 32.1493 66.6359 32.1814C66.0752 32.3161 65.3828 32.2665 64.8894 31.9495C64.4814 31.6875 64.2093 31.2693 64.1081 30.7959C63.9938 30.261 64.0654 29.6644 64.3684 29.2026C64.6607 28.7572 65.028 28.5828 65.5338 28.4752Z" fill="#A1A1A1"/>
<path d="M49.2327 28.4768C49.5077 28.4652 49.7947 28.4417 50.0694 28.4573C50.2579 28.4681 50.3444 28.5402 50.4606 28.6744C50.4718 28.8511 50.4649 29.0003 50.4312 29.1742C50.0821 29.4229 49.5036 29.2361 49.0942 29.5041C48.9477 29.5999 48.846 29.7454 48.8114 29.9177C48.7443 30.252 48.8985 30.8282 49.0934 31.1076C49.5288 31.7316 49.9834 31.2899 50.4991 31.396L50.5259 31.5531C50.5365 31.7405 50.5591 31.9315 50.5031 32.1136C50.4632 32.152 50.4192 32.1871 50.3645 32.2002C49.8605 32.3213 49.1879 32.2665 48.7306 32.0059C48.3128 31.7679 48.0385 31.3763 47.917 30.9128C47.7758 30.3737 47.8156 29.7345 48.1016 29.2486C48.3656 28.8001 48.7445 28.5999 49.2327 28.4768Z" fill="#A1A1A1"/>
<path d="M15.2454 28.5317C15.5749 28.5202 15.907 28.5265 16.2368 28.5244C16.2369 29.67 16.4214 31.8837 16.1295 32.9128C16.0221 33.2916 15.8379 33.4341 15.5139 33.6158C15.4812 33.628 15.4478 33.6383 15.4139 33.6468C15.1998 33.7018 14.9049 33.739 14.7103 33.6207C14.6563 33.5176 14.6207 33.4759 14.6402 33.3537C14.6982 32.9897 14.9658 32.8377 15.2401 32.6315C15.3429 31.2888 15.2603 29.8801 15.2454 28.5317Z" fill="#A1A1A1"/>
<path d="M79.9223 26.9247C80.1867 26.9161 80.527 26.9401 80.7977 26.9517C80.7949 27.501 80.8469 31.8911 80.7548 32.154L80.5853 32.1598C80.3547 32.1598 80.0629 32.1792 79.8281 32.1888C79.8344 31.4586 79.7275 27.1931 79.9223 26.9247Z" fill="#A1A1A1"/>
<path d="M29.3616 35.9545L30.3899 35.9502C30.3793 37.5705 30.3798 39.1908 30.3913 40.8111C30.0483 40.7395 29.7114 40.7636 29.3639 40.7797C29.3778 39.1713 29.377 37.5628 29.3616 35.9545Z" fill="#A1A1A1"/>
<path d="M74.7372 37.0742L75.1 37.0728C75.1745 37.1108 75.2413 37.1509 75.2856 37.2243C75.3777 37.3747 75.4537 37.5344 75.3981 37.7132C75.2463 38.1998 74.8174 37.9503 74.4735 38.1364C73.956 38.6935 74.1304 40.0607 74.1388 40.7935C73.8794 40.7766 73.6199 40.7627 73.3605 40.7517L73.3 40.7775L73.2002 40.711C73.1826 40.6083 73.1692 40.5037 73.165 40.3995C73.1446 39.8605 73.0877 37.9662 73.1481 37.524C73.1643 37.405 73.2206 37.2846 73.3056 37.199C73.4512 37.0509 73.5925 37.0596 73.7816 37.0667C74.0608 37.2569 73.9877 37.324 74.0847 37.6293C74.2907 37.4065 74.4714 37.2254 74.7372 37.0742Z" fill="#A1A1A1"/>
<path d="M14.279 28.4665C14.8742 28.4285 14.921 28.8074 14.7375 29.3607C14.6638 29.5829 14.3716 29.2999 14.0195 29.4546C13.5405 29.9867 13.6427 31.446 13.6395 32.1989C13.2782 32.1596 13.1105 32.172 12.7464 32.1983C12.6404 32.0384 12.6767 28.9387 12.6753 28.5293C13.0346 28.5173 13.4855 28.42 13.6319 28.796L13.5604 28.8554C13.6692 28.8438 14.0974 28.5596 14.279 28.4665Z" fill="#A1A1A1"/>
<path d="M88.2952 18.1619C88.5715 18.143 88.9378 18.1514 89.2219 18.1506C89.1846 19.7561 89.2198 21.4874 89.2226 23.1026L88.3043 23.0858C88.3099 21.4445 88.3071 19.8032 88.2952 18.1619Z" fill="#A1A1A1"/>
<path d="M47.1558 28.458C47.3022 28.4577 47.3837 28.4664 47.5132 28.543C47.5942 28.7032 47.6833 28.904 47.6754 29.0877C47.6498 29.68 47.05 29.2488 46.7508 29.5273C46.2667 29.978 46.437 31.568 46.4432 32.2061C46.1753 32.176 45.905 32.1759 45.6358 32.1699L45.5183 32.1408C45.3579 31.2195 45.4848 29.5236 45.4868 28.5221C45.6877 28.5248 45.8905 28.5141 46.0915 28.5096C46.3176 28.6296 46.2329 28.8274 46.3783 29.0221C46.6085 28.6918 46.786 28.588 47.1558 28.458Z" fill="#A1A1A1"/>
<path d="M61.4363 10.0156C61.7397 10.0281 62.0728 10.0261 62.3792 10.0307C62.3659 11.649 62.369 13.2673 62.3885 14.8855L61.445 14.8949L61.4363 10.0156Z" fill="#A1A1A1"/>
<path d="M29.7612 18.1567C30.0593 18.1439 30.4144 18.1543 30.7172 18.1558C30.6607 19.7404 30.7012 21.5037 30.7125 23.0916L29.7969 23.0952C29.7777 21.623 29.8694 19.5707 29.7612 18.1567Z" fill="#A1A1A1"/>
<path d="M44.6429 12.0725C44.931 12.083 45.275 12.0713 45.5677 12.0684C45.5474 13.5895 46.0234 15.3832 44.4346 16.1781C44.0798 16.2715 43.7633 16.3537 43.6257 15.8897C43.7589 15.2892 44.0956 15.4029 44.3696 15.1467C44.8288 14.7176 44.5869 12.8411 44.6429 12.0725Z" fill="#A1A1A1"/>
<path d="M2.37646 20.2339L2.52879 20.2633C2.77281 20.6919 2.58161 23.276 2.29971 23.7703C2.08394 24.1488 1.30683 24.3381 0.929127 24.4354L0.847867 24.3553C0.513826 23.251 1.33783 23.7411 1.58087 23.1055C1.89331 22.2885 1.36969 21.1592 1.7199 20.3653C1.9663 20.1851 2.0309 20.2419 2.37646 20.2339Z" fill="#A1A1A1"/>
<path d="M53.5559 37.1366L54.6258 37.1328L54.6181 40.8055C54.2528 40.7495 53.9307 40.7629 53.5639 40.8018L53.5559 37.1366Z" fill="#A1A1A1"/>
<path d="M53.5769 35.5986L54.6346 35.6034L54.6279 36.5172L53.5469 36.5202C53.5459 36.2131 53.5643 35.9054 53.5769 35.5986Z" fill="#A1A1A1"/>
<path d="M15.3767 27.0029L16.2311 27.0095C16.2406 27.3195 16.2424 27.5427 16.2229 27.8529L16.1124 27.9273L15.2355 27.9381C15.2325 27.633 15.1866 27.2072 15.3767 27.0029Z" fill="#A1A1A1"/>
<path d="M83.9336 18.5939C84.0946 18.53 84.2781 18.5621 84.4082 18.6772C84.5383 18.7922 84.5939 18.9708 84.551 19.1396C84.5081 19.3084 84.3752 19.439 84.2064 19.4778C83.9709 19.5318 83.7332 19.3945 83.6622 19.1627C83.5905 18.9309 83.7093 18.683 83.9336 18.5939Z" fill="#A1A1A1"/>
<path d="M32.9366 10.2685C33.1544 10.1428 33.4323 10.2159 33.5608 10.4327C33.6894 10.6494 33.6209 10.9297 33.4072 11.0622C33.2659 11.1497 33.0885 11.154 32.9433 11.0734C32.7979 10.9927 32.7072 10.8396 32.7058 10.6729C32.7044 10.5062 32.7926 10.3516 32.9366 10.2685Z" fill="#A1A1A1"/>
<path d="M50.5111 23.4975C51.2909 23.478 51.2352 24.0665 50.7916 24.5403C50.5166 24.4593 50.3731 24.3384 50.2578 24.0872C50.2405 23.8242 50.3568 23.7087 50.5111 23.4975Z" fill="#A1A1A1"/>
<path d="M55.322 10.254C55.2109 9.96189 55.2252 10.0824 55.2907 9.7568C55.5564 9.47234 55.8308 9.41485 56.1506 9.67742C56.2614 9.92453 56.235 10.1029 56.0284 10.3008L55.5706 10.3566L55.322 10.254Z" fill="#A1A1A1"/>
<path d="M83.1879 15.4359C83.4178 15.334 83.6864 15.4363 83.7905 15.6655C83.8945 15.8947 83.7961 16.1655 83.5697 16.2731C83.4199 16.3439 83.2442 16.3286 83.1099 16.2331C82.9749 16.1375 82.901 15.9765 82.9179 15.8115C82.9341 15.6464 83.0374 15.503 83.1879 15.4359Z" fill="#A1A1A1"/>
<path d="M24.0185 15.4264C24.1769 15.3694 24.3536 15.4041 24.4788 15.517C24.6039 15.63 24.6574 15.8028 24.6178 15.967C24.5783 16.1313 24.4521 16.2605 24.2894 16.3035C24.0526 16.3661 23.8086 16.2302 23.736 15.9952C23.6634 15.7603 23.7879 15.5095 24.0185 15.4264Z" fill="#A1A1A1"/>
<path d="M71.5381 18.6214C71.7575 18.5118 72.0232 18.5953 72.1414 18.8106C72.2595 19.026 72.1871 19.2965 71.9782 19.4238C71.8348 19.5109 71.6555 19.5121 71.5107 19.427C71.3665 19.3419 71.28 19.1841 71.2857 19.016C71.2913 18.8478 71.3883 18.6964 71.5381 18.6214Z" fill="#A1A1A1"/>
<path d="M43.1103 23.4795C43.8686 23.563 43.7708 24.051 43.3829 24.5077C42.7649 24.5673 42.7029 23.9521 43.1103 23.4795Z" fill="#A1A1A1"/>
<path d="M16.3754 18.6058C16.5279 18.5426 16.7027 18.5674 16.8318 18.6706C16.961 18.7738 17.0243 18.9392 16.9973 19.1028C16.9703 19.2663 16.8571 19.4023 16.7016 19.4581C16.4691 19.5414 16.213 19.4232 16.1244 19.1918C16.0358 18.9605 16.1472 18.7004 16.3754 18.6058Z" fill="#A1A1A1"/>
<path d="M42.2126 10.4175C42.3613 10.349 42.5352 10.3662 42.6676 10.4626C42.8 10.5591 42.8704 10.7196 42.8518 10.8829C42.8331 11.0461 42.7284 11.1865 42.5777 11.2503C42.3497 11.3469 42.0868 11.2419 41.987 11.0144C41.8873 10.7869 41.9878 10.5212 42.2126 10.4175Z" fill="#A1A1A1"/>
<path d="M41.2256 10.4153C41.4537 10.3147 41.7199 10.4188 41.8201 10.6481C41.9203 10.8773 41.8164 11.1446 41.5882 11.2451C41.3601 11.3455 41.0941 11.2413 40.994 11.0123C40.8938 10.7832 40.9976 10.516 41.2256 10.4153Z" fill="#A1A1A1"/>
<path d="M23.5544 23.4727C24.2335 23.5433 24.3545 23.9852 23.895 24.4681C23.8198 24.4803 23.6966 24.4688 23.617 24.4646C23.1729 24.1753 23.3328 23.8691 23.5544 23.4727Z" fill="#A1A1A1"/>
<path d="M17.4428 18.6109C17.5946 18.5444 17.7704 18.5671 17.9004 18.67C18.0305 18.7729 18.0936 18.9394 18.0647 19.1031C18.0358 19.2668 17.9195 19.4012 17.7621 19.4529C17.5343 19.5278 17.2881 19.4098 17.2028 19.1848C17.1175 18.9599 17.2232 18.7072 17.4428 18.6109Z" fill="#A1A1A1"/>
<path d="M3.03034 10.4185C3.2509 10.3245 3.50596 10.4223 3.60816 10.6399C3.66086 10.7522 3.66489 10.8813 3.61928 10.9966C3.54459 11.1854 3.35275 11.3002 3.15186 11.2762C2.95096 11.2522 2.79128 11.0954 2.76278 10.8942C2.73427 10.693 2.84409 10.4978 3.03034 10.4185Z" fill="#A1A1A1"/>
<path d="M84.9234 18.6091C85.0718 18.5473 85.2427 18.5712 85.3692 18.6714C85.4951 18.7716 85.5576 18.9327 85.5323 19.0925C85.5077 19.2522 85.398 19.3858 85.2469 19.4418C85.0198 19.5259 84.7666 19.4117 84.6787 19.1849C84.5901 18.958 84.6991 18.702 84.9234 18.6091Z" fill="#A1A1A1"/>
<path d="M55.0634 10.4117C55.26 10.3458 55.4758 10.4252 55.5835 10.6031C55.6688 10.7441 55.6696 10.9209 55.5857 11.0627C55.4851 11.2328 55.2849 11.316 55.094 11.267C54.9031 11.2181 54.7672 11.0486 54.7601 10.8508C54.753 10.6531 54.8764 10.4743 55.0634 10.4117Z" fill="#A1A1A1"/>
<path d="M33.9691 10.2734C34.1793 10.1669 34.4357 10.2439 34.5532 10.4488C34.6707 10.6538 34.6083 10.9152 34.411 11.0444C34.2734 11.1344 34.0974 11.1407 33.9537 11.0607C33.8101 10.9806 33.7223 10.8274 33.7254 10.6625C33.7287 10.4974 33.8224 10.3478 33.9691 10.2734Z" fill="#A1A1A1"/>
<path d="M56.1113 10.4022C56.3406 10.3537 56.5679 10.4928 56.6302 10.7197C56.6923 10.9467 56.5679 11.183 56.3462 11.2592C56.1244 11.3353 55.882 11.2249 55.7928 11.0072C55.7428 10.8849 55.7494 10.7467 55.811 10.6298C55.8725 10.5129 55.9825 10.4295 56.1113 10.4022Z" fill="#A1A1A1"/>
<path d="M3.25414 10.2579C3.14238 9.86232 3.21132 9.62793 3.6345 9.50293C3.91155 9.53746 3.82008 9.49184 4.02332 9.67087C4.12422 9.88944 4.08329 10.0821 4.00144 10.3045C3.6587 10.3541 3.58852 10.3603 3.25414 10.2579Z" fill="#A1A1A1"/>
<path d="M44.1244 23.4629C44.4453 23.5063 44.6343 23.6719 44.7384 23.9664C44.6779 24.2519 44.7052 24.1608 44.4794 24.4012C44.3641 24.4612 44.3187 24.4565 44.1881 24.4637C43.7403 24.2031 43.9117 23.8301 44.1244 23.4629Z" fill="#A1A1A1"/>
<path d="M4.00605 10.3545C4.27086 10.3842 4.34929 10.3794 4.5349 10.562C4.6449 10.8172 4.63221 10.7132 4.60056 10.9886C4.43369 11.2158 4.51838 11.1534 4.26135 11.2596C4.01992 11.251 3.99193 11.2426 3.79028 11.1092L3.80205 10.6548L4.00605 10.3545Z" fill="#A1A1A1"/>
<path d="M56.0283 10.3008L56.1113 10.4025C55.9824 10.4297 55.8724 10.5131 55.8109 10.63C55.7494 10.7469 55.7427 10.8852 55.7927 11.0074L55.5856 11.0628C55.6695 10.921 55.6686 10.7442 55.5834 10.6032L55.5706 10.3566L56.0283 10.3008Z" fill="#A1A1A1"/>
<path d="M3.25406 10.2578C3.58844 10.3601 3.65862 10.3539 4.00136 10.3044L4.00613 10.3547L3.80214 10.6551L3.6081 10.6406C3.5059 10.4229 3.25084 10.3252 3.03027 10.4191L3.25406 10.2578Z" fill="#A1A1A1"/>
<path d="M127.615 30.3125C127.92 30.5143 128.18 30.6793 128.498 30.8597L128.125 31.0516C128.03 30.9534 127.711 30.4565 127.615 30.3125Z" fill="#A1A1A1"/>
<path d="M3.60815 10.6406L3.80219 10.6551L3.79042 11.1095L3.61927 10.9973C3.66488 10.8819 3.66085 10.7528 3.60815 10.6406Z" fill="#A1A1A1"/>
<path d="M55.3222 10.2539L55.5708 10.3565L55.5836 10.6031C55.4759 10.4252 55.2601 10.3458 55.0635 10.4117L55.3222 10.2539Z" fill="#A1A1A1"/>
</svg>
