<svg width="406" height="234" viewBox="0 0 406 234" fill="none" xmlns="http://www.w3.org/2000/svg">
<path d="M3.02255 85.0772C8.11916 88.0936 15.8076 93.3659 22.1297 91.7152C22.7761 91.5463 23.4295 91.2325 23.743 90.6066C24.0675 89.9586 23.9155 89.1736 23.663 88.5283C21.6844 83.4683 1.77755 83.6929 0.892625 67.6152C0.744808 64.9297 0.929275 62.0106 1.98682 59.5075C4.02407 54.6853 8.55937 51.0403 13.3464 49.1596C19.9931 46.5481 32.9741 46.794 39.4637 49.6548C39.9998 49.8909 40.5352 50.147 41.0446 50.437C40.0261 55.263 39.3157 63.2375 36.6445 66.822C32.63 65.1002 24.5739 59.9743 20.3404 61.7035C19.5909 62.0097 18.7134 62.7917 18.395 63.5426C18.3052 63.7542 18.3847 64.1086 18.4706 64.3125C20.6607 69.5073 40.8924 70.4102 41.8147 85.1412C41.9523 87.3391 41.7738 89.6948 41.1342 91.8091C39.7601 96.3577 36.6285 100.17 32.4335 102.402C22.5481 107.647 10.4209 105.913 0.15879 102.716L0 102.667V95.8257C1.34426 92.472 0.804958 89.6194 3.02255 85.0772Z" fill="#BA2A29"/>
<path d="M36.1927 0H44.9342C48.5833 1.4002 53.2188 1.98373 56.9883 3.78516C60.2228 5.33088 63.127 7.02555 66.2384 8.77626C72.2872 12.1733 78.2965 15.6406 84.2647 19.1774C87.6293 21.1358 96.8499 26.0672 99.4175 28.2937C95.3392 28.4239 91.0191 28.3723 86.9308 28.3318C58.7774 28.0542 30.5034 28.7022 2.3645 28.2882C5.66712 15.5291 16.1085 6.10857 28.4714 2.1948C30.7079 1.48675 33.9565 0.983572 36.0298 0.0732523L36.1927 0Z" fill="#BA2A29"/>
<path d="M1.18954 130.187C3.57164 129.861 13.1648 129.961 16.0523 130.012C23.6039 130.146 32.3341 129.762 39.7903 130.172L207.172 130.221C204.267 135.955 200.643 142.255 195.294 146.032C188.647 150.726 180.315 155.25 173.219 159.332L134.746 181.536L83.3114 211.256L69.3893 219.254C64.1912 222.275 58.4802 225.956 52.8425 227.796C49.5751 228.863 42.416 230.609 39.0097 229.948C24.9567 229.91 10.12 220.143 4.50473 207.363C3.08679 204.136 1.44575 199.43 1.36652 195.879C1.34608 195.847 1.32169 195.816 1.30522 195.781C0.86923 194.858 0.6431 131.968 1.18954 130.187Z" fill="#B32625"/>
<path d="M351.018 48.0943C356.24 48.0641 365.113 47.7515 370.022 48.1498C371.08 50.8262 373.536 55.2587 374.935 57.9234L385.147 77.1491C385.305 74.9826 385.186 71.0085 385.195 68.6628C385.154 61.8395 385.17 55.0163 385.241 48.1932C390.442 48.0303 396.653 48.0392 401.852 48.1475C402.217 60.42 401.881 74.1588 401.893 86.5955L401.902 98.4706C401.902 99.5987 401.98 103.041 401.794 104.015L401.308 104.199L381.772 104.194C378.765 98.3531 375.723 92.5292 372.647 86.7228C370.997 83.5688 368.381 78.2291 366.514 75.4241C366.832 84.3309 366.772 95.3068 366.592 104.205L350.278 104.213L350.314 64.1813C350.31 62.1592 350.104 49.4718 350.394 48.2831L351.018 48.0943Z" fill="#BA2A29"/>
<path d="M130.304 48.0156C137.284 48.2277 144.767 48.1223 151.78 48.0859C152.445 50.9625 153.472 53.8332 154.213 56.7109C158.302 72.5892 163.252 88.3365 167.236 104.231C161.155 104.291 154.927 104.222 148.835 104.2C148.474 102.518 147.908 99.0551 147.764 97.3525C147.474 96.3295 147.589 96.0886 146.923 95.4756C143.684 95.0243 136.324 95.5676 132.401 95.3428C132.165 97.7968 131.891 99.7073 131.491 102.127L131.304 104.236L113.224 104.194C114.601 100.593 115.761 95.8638 116.913 92.0977C120.465 80.4827 123.82 68.796 127.475 57.2109C128.443 54.1431 129.231 51.053 130.304 48.0156ZM140.752 63.4795C139.012 69.8657 137.261 76.249 135.562 82.6465H145.109L140.752 63.4795Z" fill="#BA2A29"/>
<path d="M248.15 48.2367C261.918 47.7955 277.692 48.1259 291.572 48.1856C291.702 52.8029 291.52 57.5826 291.597 62.247C290.112 62.7863 280.802 62.5302 278.807 62.3851L278.794 89.6278C278.791 94.0863 278.819 98.6459 278.75 103.112C278.741 103.834 278.73 103.881 278.357 104.34C273.339 103.994 266.056 104.211 260.914 104.24C260.768 99.6678 260.889 94.4257 260.894 89.8094L260.953 62.5066C256.897 62.6389 252.281 62.5073 248.184 62.4815C247.942 58.0453 248.067 52.6885 248.15 48.2367Z" fill="#BA2A29"/>
<path d="M56.9703 48.2325C71.2262 47.9462 86.132 48.1651 100.467 48.0925C100.508 51.5636 100.707 59.1165 100.421 62.4547C98.3126 62.504 89.1439 62.7319 87.4773 62.3555C87.7036 63.6781 87.5754 73.1478 87.5738 75.0409C87.5312 84.7756 87.5566 94.5104 87.6501 104.245C81.7955 104.167 75.8589 104.204 69.9975 104.196C69.7626 94.4224 70.1545 84.4724 69.9911 74.6789C69.9269 70.8256 69.8862 66.3915 70.0937 62.5644C68.2327 62.5666 58.4668 62.6944 57.1368 62.3361L56.9346 61.9787C56.8587 57.8286 56.7801 52.3705 56.9703 48.2325Z" fill="#BA2A29"/>
<path d="M56.9703 48.2325C71.2262 47.9462 86.132 48.1651 100.467 48.0925C100.508 51.5636 100.707 59.1165 100.421 62.4547C100.273 61.8306 100.269 61.0545 100.237 60.4017L99.9625 61.7719C99.6878 60.8283 99.8167 50.9555 99.7692 48.9547C85.9922 49.2385 71.3295 48.9894 57.47 48.9718C57.4792 51.1806 57.8807 60.5945 56.9346 61.9787C56.8587 57.8286 56.7801 52.3705 56.9703 48.2325Z" fill="#B63639"/>
<path d="M327.705 48.2106C328.105 49.3546 327.876 62.6878 327.874 65.1228L327.897 104.233C321.999 104.17 316.099 104.18 310.198 104.264L309.997 104.036C309.714 103.13 309.433 51.7935 309.908 48.2657C315.098 47.9793 322.401 48.1884 327.705 48.2106Z" fill="#BA2A29"/>
<path d="M208.62 48.1045C211.988 48.0535 215.821 47.9916 219.105 48.7842C229.429 51.2757 233.854 60.3737 231.434 70.459C230.282 75.4371 227.16 79.7354 222.782 82.3711C224.536 84.5105 234.77 99.0288 234.953 101.228C234.99 101.666 234.949 101.781 234.649 102.106C232.881 104.027 219.143 105.774 216.066 105.82C214.669 103.724 213.021 100.282 211.929 97.998C210.564 94.6341 208.926 91.283 207.43 87.959L202.734 87.9375L202.754 104.303C196.904 104.193 191.052 104.166 185.201 104.22C184.985 92.876 185.198 81.0502 185.169 69.6592C185.153 63.5171 184.839 53.9606 185.28 48.1914C192.921 48.0262 200.948 48.128 208.62 48.1045ZM203 60V75H206C209.866 75 213 71.866 213 68V67C213 63.1341 209.866 60 206 60H203Z" fill="#BA2A29"/>
</svg>
