<svg width="405" height="153" viewBox="0 0 405 153" fill="none" xmlns="http://www.w3.org/2000/svg">
<g clip-path="url(#clip0_2834_2902)">
<path d="M49.5098 76.407C36.1336 63.6885 23.4106 49.9513 10.1285 37.1075C4.96274 32.1123 0.884816 28.051 0.437216 20.4695C0.090666 15.2895 1.86492 10.1913 5.35244 6.34553C11.018 0.128784 21.1308 -1.90046 28.6178 2.58504C34.5358 6.61679 39.3516 12.5403 44.4956 17.5055C55.3308 27.9648 65.6943 39.2508 76.6713 49.5275C85.4793 58.6175 94.5988 67.3945 103.41 76.479C97.3121 82.777 91.1446 89.0078 84.9091 95.17C82.4843 97.6 79.1486 100.755 76.8813 103.248C62.7821 116.653 49.3943 131.245 35.3796 144.78C30.6836 149.318 27.4323 152.338 20.5503 152.735C14.8908 153.06 9.99712 151.463 5.94587 147.455C2.33279 143.858 0.308016 138.965 0.322341 133.865C0.352716 125.493 4.53927 121.455 10.1405 115.885C13.5443 112.5 16.9808 109.013 20.3753 105.605L49.5098 76.407Z" fill="#0AB64A"/>
<path d="M76.6714 49.5275C80.1416 45.1645 87.7349 38.1084 91.8939 33.9162L101.983 23.7187C106.97 18.682 111.554 13.2805 119.009 12.5325C124.311 12.0007 129.148 13.1897 133.303 16.5677C137.266 19.7957 139.784 24.465 140.306 29.549C141.486 41.0137 131.702 48.0767 124.359 55.4317L103.448 76.4162C110.86 84.5979 119.719 92.5624 127.397 100.62C130.083 103.44 135.437 108.172 137.39 111.285C139.52 114.64 140.563 118.567 140.375 122.537C140.117 127.597 137.846 132.342 134.068 135.72C130.22 139.107 125.178 140.815 120.063 140.462C116.821 140.262 113.691 139.2 110.996 137.387C105.778 133.912 97.5076 124.08 92.5489 119.507C90.1356 117.28 77.6629 105.115 76.8814 103.247C79.1486 100.755 82.4844 97.6 84.9091 95.17C91.1446 89.0077 97.3121 82.777 103.41 76.479C94.5989 67.3945 85.4794 58.6175 76.6714 49.5275Z" fill="#B0D7AC"/>
<path d="M304.626 53.9466C314.415 53.4801 323.223 55.5687 330.618 62.4153C335.97 67.4424 339.133 74.3715 339.421 81.7083C339.563 85.5745 337.765 90.2508 333.913 90.926C330.198 91.5775 323.588 91.2401 319.733 91.2376C309.666 91.1888 299.597 91.2142 289.53 91.3137C291.3 98.539 295.2 103.56 302.675 105.565C308.385 106.993 315.357 106.197 320.205 102.714C322.42 101.123 323.992 98.9569 326.455 97.5882C333.792 95.2969 338.095 103.02 333.318 108.647C322.378 121.539 298.84 121.584 286.068 111.549C272.548 100.925 271.138 78.4638 281.608 65.2717C286.796 58.7408 295.005 54.9873 303.14 54.0628C303.633 54.0093 304.131 53.9703 304.626 53.9466ZM325.913 79.9749C322.623 70.5336 315.92 65.4008 305.632 66.2796C297.46 67.8316 291.82 71.7331 289.503 79.9983C296.54 80.0916 303.578 80.1259 310.613 80.1009C315.713 80.1146 320.813 80.0724 325.913 79.9749Z" fill="#454444"/>
<path d="M350.245 54.5054C351.865 54.4067 353.725 54.6672 355.005 55.7222C358.093 58.2682 360.743 61.6879 363.345 64.7259C366.905 68.8552 370.435 73.0082 373.94 77.1844C377.68 72.6364 381.493 68.1507 385.38 63.7284C387.683 61.0627 389.74 58.3699 392.463 56.0634C394.485 54.0249 399.033 54.0207 401.133 56.1209C407.548 62.5349 398.89 69.4484 395.02 73.5952C391.198 77.6637 387.398 81.7544 383.62 85.8677C387.633 90.2289 391.668 94.5677 395.728 98.8832C399.53 102.959 407.58 109.569 402.41 115.657C400.81 117.539 399.035 117.962 396.663 118.059C395.473 117.767 394.135 117.439 393.183 116.664C389.853 113.954 386.595 109.768 383.763 106.454C380.513 102.648 376.73 98.4359 373.75 94.5112C373.558 94.7799 373.36 95.0457 373.158 95.3087C372.315 96.4114 371.278 97.6059 370.348 98.6557C365.23 104.427 360.435 110.854 354.94 116.234C352.453 118.667 348.178 118.589 345.783 116.162C339.74 110.035 347.425 104.011 351.19 99.9637C355.49 95.2922 359.838 90.6652 364.233 86.0834C360.55 82.1387 345.635 67.3689 344.588 63.3812C344.093 61.5017 344.165 59.5094 345.19 57.8119C346.36 55.8742 348.105 54.9934 350.245 54.5054Z" fill="#454444"/>
<path d="M182.569 34.0355C185.076 33.925 187.243 33.9572 189.144 35.902C191.067 37.8632 191.307 40.746 191.298 43.351C191.285 47.375 191.277 51.4005 191.265 55.4252L206.056 55.3855C209.034 55.3792 215.234 54.9065 217.569 56.846C221.171 59.8375 220.202 67.3202 214.871 68.0097C211.738 68.4147 208.732 68.267 205.554 68.2522L191.212 68.2297C191.255 74.4942 191.26 80.759 191.227 87.0237C191.223 90.1045 191.05 95.3045 191.632 98.1565C191.939 99.7007 192.616 101.147 193.604 102.373C196.977 106.55 203.894 107.048 208.002 103.617C209.848 102.075 211.077 100.042 212.979 98.4137C214.477 97.7132 217.639 97.228 218.89 98.036C228.261 104.084 217.79 115.637 210.549 117.349C203.435 119.262 194.975 119.432 188.251 115.874C175.738 109.248 177.016 94.69 177.036 82.8142L177.056 65.2915L177.026 50.0427C177.022 47.1047 176.956 44.1895 177.11 41.2545C177.322 37.2097 178.568 35.1667 182.569 34.0355Z" fill="#454444"/>
<path d="M262.027 54.3113C265.705 54.0818 270.432 54.1193 271.55 58.2536C274.727 70.0013 263.467 67.2956 257.685 69.2271C246.052 73.1128 245.337 82.7741 245.37 93.8571L245.432 106.094C245.442 108.682 245.635 112.539 244.337 114.797C242.077 118.719 237.244 118.619 233.754 116.609C231.673 114.659 231.34 113.392 231.303 110.593C231.119 96.6483 231.264 82.6933 231.225 68.7466C231.335 65.9163 231.027 62.5748 231.436 59.8033C232.239 54.3646 240.194 52.7331 243.59 56.7696C245.672 59.2478 245.362 61.7688 245.185 64.6626C250.492 58.0816 253.297 55.4093 262.027 54.3113Z" fill="#454444"/>
</g>
<defs>
<clipPath id="clip0_2834_2902">
<rect width="405" height="153" fill="white"/>
</clipPath>
</defs>
</svg>
