<svg width="36" height="36" viewBox="0 0 36 36" fill="none" xmlns="http://www.w3.org/2000/svg">
<g clip-path="url(#clip0_584_814)">
<path d="M8.69059 9.63807C6.62675 9.5108 4.6445 9.12211 2.76766 8.49952C5.95693 3.39155 11.5875 0 18 0C21.2981 0 24.3887 0.897764 27.0476 2.46283C22.4167 7.26467 15.8274 10.0783 8.69059 9.63807ZM36 18.2098C36 15.6954 35.4968 13.2979 34.5856 11.1206C33.9056 9.4936 32.9977 7.98701 31.9029 6.63864C27.2584 11.6675 20.5127 14.6394 13.1923 14.1888C8.9626 13.9308 5.05931 12.5584 1.74764 10.3742C0.625614 12.751 0 15.4065 0 18.2098C0 20.7242 0.503211 23.1217 1.41443 25.2991C2.95467 28.983 5.65773 32.0443 9.0578 34.0187C13.2365 27.074 20.7983 22.5129 29.2849 22.5301C31.2569 20.7277 33.5247 19.2624 36 18.2133V18.2064V18.2098ZM29.2849 22.5301C25.504 25.9801 22.8179 30.6616 21.8659 36C22.9539 35.7592 24.0045 35.4187 25.0076 34.9887C29.9513 32.8733 33.7662 28.5909 35.286 23.3178C33.8104 22.9257 32.2735 22.6746 30.6925 22.5748C30.2233 22.5473 29.7541 22.5301 29.2883 22.5301" fill="white"/>
</g>
<defs>
<clipPath id="clip0_584_814">
<rect width="36" height="36" fill="white"/>
</clipPath>
</defs>
</svg>
