<svg width="32" height="32" viewBox="0 0 32 32" fill="none" xmlns="http://www.w3.org/2000/svg">
<path d="M24.5269 9.36283C23.4673 9.3649 22.6057 8.50694 22.6037 7.44731C22.6016 6.38768 23.4596 5.52609 24.5197 5.52402C25.5798 5.52195 26.4414 6.38042 26.4435 7.44005C26.445 8.49968 25.587 9.36076 24.5269 9.36283Z" fill="white"/>
<path fill-rule="evenodd" clip-rule="evenodd" d="M16.0153 24.2147C11.4788 24.2235 7.79347 20.5532 7.78467 16.0155C7.77584 11.479 11.4471 7.79308 15.9837 7.78427C20.5212 7.77546 24.2071 11.4479 24.2159 15.9839C24.2247 20.5215 20.5523 24.2059 16.0153 24.2147ZM15.9894 10.6671C13.0449 10.6723 10.6613 13.0648 10.6664 16.0098C10.6721 18.9554 13.0651 21.3386 16.0096 21.3329C18.9552 21.3271 21.3388 18.9352 21.3331 15.9896C21.3274 13.044 18.9344 10.6614 15.9894 10.6671Z" fill="white"/>
<path fill-rule="evenodd" clip-rule="evenodd" d="M5.49227 0.861972C6.50835 0.463834 7.67111 0.19115 9.37354 0.110798C11.0801 0.0288968 11.625 0.010228 15.9692 0.00193683C20.3144 -0.00635437 20.8592 0.0102248 22.5658 0.0859112C24.2688 0.159524 25.4321 0.428065 26.4502 0.822058C27.5036 1.22797 28.3973 1.77438 29.2879 2.66137C30.1786 3.5494 30.727 4.44003 31.1381 5.49187C31.5357 6.50899 31.8084 7.67074 31.8893 9.37423C31.9701 11.0803 31.9898 11.6246 31.9981 15.9694C32.0064 20.3137 31.9888 20.859 31.9141 22.5667C31.84 24.2686 31.572 25.4324 31.178 26.4501C30.7711 27.5035 30.2257 28.3972 29.3387 29.2878C28.4517 30.179 27.5601 30.7269 26.5083 31.1385C25.4911 31.5356 24.3294 31.8083 22.627 31.8897C20.9204 31.9706 20.3756 31.9898 16.0298 31.9981C11.6861 32.0064 11.1413 31.9898 9.43473 31.9146C7.73177 31.8399 6.56796 31.5719 5.55033 31.1785C4.49695 30.771 3.60323 30.2261 2.71261 29.3386C1.82148 28.4511 1.27251 27.56 0.861944 26.5081C0.46381 25.4915 0.192143 24.3293 0.110764 22.6273C0.0293812 20.9202 0.0102068 20.3748 0.00191875 16.0306C-0.00640125 11.6858 0.0107156 11.1415 0.0853556 9.43487C0.160533 7.7314 0.427516 6.56808 0.821506 5.54941C1.22844 4.49652 1.77379 3.60331 2.66182 2.71217C3.54881 1.82155 4.44044 1.27202 5.49227 0.861972ZM6.58872 28.4905C7.15325 28.7077 8.0003 28.9669 9.56019 29.0348C11.2481 29.1079 11.7535 29.124 16.0246 29.1157C20.2973 29.1079 20.8028 29.0898 22.4901 29.0105C24.0485 28.9363 24.8955 28.674 25.4585 28.4542C26.2055 28.1623 26.7374 27.8135 27.2962 27.2541C27.855 26.6927 28.2008 26.1592 28.4901 25.4122C28.7078 24.8471 28.9665 23.9995 29.0344 22.4396C29.1086 20.7527 29.1241 20.2468 29.1158 15.9746C29.108 11.7034 29.0899 11.1975 29.0096 9.51005C28.9359 7.95119 28.6741 7.10411 28.4538 6.54164C28.162 5.79358 27.8141 5.26274 27.2532 4.70337C26.6923 4.14401 26.1589 3.79926 25.4108 3.51C24.8473 3.29175 23.9992 3.03358 22.4404 2.96567C20.7524 2.89154 20.2465 2.87649 15.9743 2.8848C11.7032 2.89309 11.1978 2.91019 9.51041 2.99004C7.95107 3.06416 7.10502 3.32596 6.541 3.54629C5.7945 3.83814 5.26262 4.18496 4.70328 4.7464C4.14494 5.30783 3.79917 5.84023 3.50992 6.58882C3.29324 7.15285 3.03246 8.00096 2.9656 9.55982C2.89197 11.2477 2.87644 11.7537 2.88473 16.0249C2.89251 20.2971 2.91065 20.803 2.98997 22.4894C3.06306 24.0493 3.32691 24.8953 3.54621 25.4599C3.83806 26.2059 4.18592 26.7378 4.74631 27.2971C5.30774 27.8544 5.84117 28.2012 6.58872 28.4905Z" fill="white"/>
</svg>
