<svg width="36" height="36" viewBox="0 0 36 36" fill="none" xmlns="http://www.w3.org/2000/svg">
<path fill-rule="evenodd" clip-rule="evenodd" d="M18 0C26.669 0.00023012 33.9051 6.12913 35.6152 14.29C31.5145 14.7581 27.5472 16.606 24.4668 19.8174C20.2035 24.2622 18.6228 30.2966 19.6797 35.9209C19.1266 35.9721 18.5664 36 18 36C10.733 36 4.47255 31.6931 1.62988 25.4932C6.05964 25.1371 10.3736 23.1816 13.6279 19.6611C18.6856 14.1894 19.7722 6.46567 17.0361 0.0253906C17.3551 0.00856787 17.6768 0 18 0ZM35.6826 21.3721C34.2267 29.0537 27.8909 35.0063 20.0205 35.8857C20.6901 32.6053 22.2632 29.4679 24.752 26.873C27.7776 23.7186 31.6593 21.8801 35.6826 21.3721ZM16.2305 0.0859375C16.5654 4.95097 14.9746 9.93808 11.4033 13.8018C8.31123 17.1466 4.26272 19.0784 0.0673828 19.5684C0.0227692 19.0515 0 18.5284 0 18C0 8.65579 7.11966 0.974687 16.2305 0.0859375Z" fill="white"/>
</svg>
