<svg width="36" height="36" viewBox="0 0 36 36" fill="none" xmlns="http://www.w3.org/2000/svg">
<path d="M17.1699 0C16.331 2.51374 14.9854 4.79976 13.25 6.73535C15.9216 5.07118 18.1495 2.77578 19.7324 0.0644531C22.2208 0.302199 24.561 1.04626 26.6494 2.19336C23.4036 4.52202 20.9158 7.93415 19.8018 12.0771C18.6744 16.2706 19.1407 20.5176 20.833 24.1816C20.7871 22.4958 20.9803 20.7749 21.4404 19.0635C22.9769 13.3498 27.1264 9.0267 32.2734 7.01855C34.6098 10.0566 35.9999 13.8606 36 17.9902C36 23.9449 33.1106 29.2233 28.6592 32.502C25.1562 30.6167 22.441 27.6629 20.833 24.1816C20.9386 28.0535 22.3124 31.744 24.6504 34.7305C22.593 35.5494 20.3491 36 18 36C8.05886 35.9999 0 27.9367 0 17.9902C2.49407e-05 16.2906 0.23495 14.6458 0.674805 13.0869C5.67176 12.6069 10.101 10.2477 13.25 6.73535C10.3418 8.54682 6.91076 9.61292 3.22461 9.66016C2.83045 9.6652 2.43849 9.65674 2.0498 9.63867C4.93794 4.12837 10.5936 0.298718 17.1699 0Z" fill="white"/>
</svg>
