<svg width="100" height="100" viewBox="0 0 100 100" fill="none" xmlns="http://www.w3.org/2000/svg">
<g clip-path="url(#clip0_2846_1980)">
<path d="M48.5253 44.3582C47.7128 45.1707 47.7128 46.4916 48.5253 47.3041C49.3378 48.1166 50.6587 48.1166 51.4712 47.3041L65.4462 33.3291H77.7962C80.5795 33.3291 83.1962 32.2457 85.1628 30.2791L95.2212 20.2207C95.817 19.6249 95.9962 18.7291 95.6712 17.9499C95.3503 17.1707 94.5878 16.6624 93.7462 16.6624H79.1628V2.08324C79.1628 1.24157 78.6545 0.479068 77.8753 0.158235C77.0962 -0.166765 76.2045 0.0124017 75.6045 0.608235L65.5462 10.6666C63.5795 12.6332 62.4962 15.2499 62.4962 18.0332V30.3832L48.5253 44.3582ZM66.667 18.0332C66.667 16.3624 67.317 14.7957 68.4962 13.6124L75.0003 7.10823V18.7457C75.0003 19.8957 75.9337 20.8291 77.0837 20.8291H88.7212L82.217 27.3332C81.0337 28.5124 79.467 29.1624 77.7962 29.1624H66.667V18.0332ZM50.0003 20.8291C36.2128 20.8291 25.0003 32.0416 25.0003 45.8291C25.0003 59.6166 36.2128 70.8291 50.0003 70.8291C63.7878 70.8291 75.0003 59.6166 75.0003 45.8291C75.0003 45.1791 74.9753 44.5416 74.9253 43.9082C74.8378 42.7624 75.6962 41.7582 76.842 41.6707C78.0212 41.5916 78.992 42.4416 79.0795 43.5874C79.1378 44.3291 79.167 45.0749 79.167 45.8332C79.167 61.9166 66.0837 74.9999 50.0003 74.9999C33.917 74.9999 20.8337 61.9166 20.8337 45.8332C20.8337 29.7499 33.917 16.6666 50.0003 16.6666C50.7545 16.6666 51.5045 16.6957 52.2462 16.7541C53.392 16.8416 54.2503 17.8457 54.1628 18.9916C54.0753 20.1374 53.0878 20.9666 51.9253 20.9082C51.292 20.8582 50.6503 20.8332 50.0045 20.8332L50.0003 20.8291ZM44.1087 39.9374C42.5337 41.5124 41.667 43.6041 41.667 45.8291C41.667 48.0541 42.5337 50.1457 44.1087 51.7207C47.2587 54.8707 52.742 54.8707 55.892 51.7207C57.0545 50.5582 57.842 49.0999 58.1628 47.4999C58.392 46.3707 59.4962 45.6332 60.617 45.8707C61.7462 46.0999 62.4753 47.1999 62.2462 48.3249C61.7587 50.7332 60.5795 52.9249 58.8337 54.6666C54.1837 59.5124 45.8087 59.5166 41.1587 54.6666C36.3087 50.0166 36.3087 41.6416 41.1587 36.9916C42.9003 35.2499 45.092 34.0666 47.5003 33.5791C48.6378 33.3582 49.7253 34.0832 49.9545 35.2082C50.1837 36.3374 49.4545 37.4332 48.3253 37.6624C46.7253 37.9874 45.267 38.7707 44.1045 39.9332L44.1087 39.9374ZM87.2545 96.9374C87.7962 97.9541 87.4087 99.2124 86.392 99.7541C85.3962 100.292 84.117 99.9166 83.5753 98.8916L75.5795 83.8416C68.267 88.7791 59.4628 91.6624 49.9962 91.6624C40.5295 91.6624 31.7253 88.7749 24.4128 83.8416L16.417 98.8916C15.8753 99.9166 14.5962 100.292 13.6003 99.7541C12.5837 99.2166 12.1962 97.9541 12.7378 96.9374L21.0337 81.3207C10.7545 72.9082 4.16699 60.1291 4.16699 45.8332C4.16699 20.5624 24.7295 -9.82124e-05 50.0003 -9.82124e-05C53.692 -9.82124e-05 57.3628 0.437402 60.9128 1.30407C62.0295 1.57907 62.717 2.70407 62.442 3.82073C62.167 4.94157 61.0337 5.61657 59.9253 5.3499C56.7003 4.5624 53.3628 4.1624 50.0045 4.1624C27.0253 4.16657 8.33366 22.8582 8.33366 45.8332C8.33366 68.8082 27.0253 87.4999 50.0003 87.4999C72.9753 87.4999 91.667 68.8082 91.667 45.8332C91.667 42.4832 91.267 39.1457 90.4795 35.9124C90.2087 34.7916 90.892 33.6666 92.0087 33.3957C93.1378 33.1207 94.2545 33.8082 94.5253 34.9249C95.392 38.4832 95.8295 42.1541 95.8295 45.8374C95.8295 60.1332 89.242 72.9124 78.9545 81.3249L87.2503 96.9416L87.2545 96.9374Z" fill="#37B478"/>
</g>
<defs>
<clipPath id="clip0_2846_1980">
<rect width="100" height="100" fill="white"/>
</clipPath>
</defs>
</svg>
