<svg width="100" height="100" viewBox="0 0 100 100" fill="none" xmlns="http://www.w3.org/2000/svg">
<g clip-path="url(#clip0_2846_1982)">
<path d="M50.1625 0.00833333C50.1083 0.00833333 50.0542 0 50 0C49.9792 0 49.9625 0 49.9417 0C49.9333 0 49.9292 0 49.9208 0C22.3875 0.0458333 0 22.4583 0 50C0 77.5417 22.4292 100 50 100C77.5708 100 100 77.5708 100 50C100 22.4292 77.6583 0.0958333 50.1625 0.00833333ZM90.775 29.1667H70.7167C66.2708 18.0458 59.4167 9.24583 55.1708 4.47917C70.7292 6.23333 83.925 15.8083 90.7792 29.1667H90.775ZM70.8333 50C70.8333 55.8625 69.6167 61.4708 67.7875 66.6667H32.2125C30.3833 61.4708 29.1667 55.8625 29.1667 50C29.1667 44.1375 30.3833 38.525 32.2083 33.3333H67.7875C69.6167 38.5292 70.8333 44.1375 70.8333 50ZM66.1583 70.8333C61.0375 82.6583 53.175 91.625 50 94.95C46.825 91.625 38.9625 82.6583 33.8417 70.8333H66.1542H66.1583ZM33.8375 29.1667C38.9583 17.3292 46.825 8.36667 50 5.04583C53.175 8.37083 61.0375 17.3375 66.1583 29.1667H33.8375ZM44.8208 4.47917C40.55 9.27083 33.7042 18.0792 29.2792 29.1667H9.225C16.0792 15.8125 29.2667 6.24167 44.8208 4.47917ZM7.35 33.3333H27.7833C26.1042 38.5292 25 44.1208 25 50C25 55.8792 26.1042 61.4667 27.7875 66.6667H7.35C5.32083 61.4917 4.16667 55.8833 4.16667 50C4.16667 44.1167 5.32083 38.5083 7.35 33.3333ZM9.225 70.8333H29.2875C33.7333 81.9542 40.5875 90.7542 44.8333 95.5208C29.275 93.7667 16.0792 84.1917 9.225 70.8333ZM55.1667 95.5208C59.4125 90.7542 66.2667 81.95 70.7125 70.8333H90.7708C83.9167 84.1917 70.725 93.7667 55.1667 95.5208ZM92.65 66.6667H72.2125C73.8958 61.4667 75 55.8792 75 50C75 44.1208 73.8958 38.5333 72.2125 33.3333H92.65C94.6792 38.5083 95.8333 44.1167 95.8333 50C95.8333 55.8833 94.6792 61.4917 92.65 66.6667Z" fill="#37B478"/>
</g>
<defs>
<clipPath id="clip0_2846_1982">
<rect width="100" height="100" fill="white"/>
</clipPath>
</defs>
</svg>
