<svg width="100" height="100" viewBox="0 0 100 100" fill="none" xmlns="http://www.w3.org/2000/svg">
<g clip-path="url(#clip0_2847_1987)">
<path d="M56.25 100H45.4375C44.7792 100 44.1583 99.6875 43.7625 99.1583C43.3708 98.6292 43.25 97.9417 43.4417 97.3125C44.9625 92.3125 45.8333 87.975 45.8333 85.4208C45.8333 79.3875 41.4542 75.0042 35.4167 75.0042C29.3792 75.0042 25 79.3875 25 85.4208C25 87.975 25.8708 92.3125 27.3917 97.3125C27.5833 97.9417 27.4667 98.6292 27.0708 99.1583C26.675 99.6875 26.0542 100 25.3958 100H18.75C8.4125 100 0 91.5875 0 81.25V43.75C0 33.4125 8.4125 25 18.75 25H22.5417C21.4458 20.875 20.8333 17.175 20.8333 14.5833C20.8333 6.27083 27.1042 0 35.4167 0C43.7292 0 50 6.27083 50 14.5833C50 17.075 49.3708 20.7083 48.2042 25H56.25C66.5875 25 75 33.4125 75 43.75V47.5417C79.1167 46.4458 82.8167 45.8333 85.4167 45.8333C93.7292 45.8333 100 52.1042 100 60.4167C100 68.7292 93.7292 75 85.4167 75C82.9292 75 79.2917 74.3708 75 73.2V81.25C75 91.5875 66.5875 100 56.25 100ZM48.2042 95.8333H56.25C64.2917 95.8333 70.8333 89.2917 70.8333 81.25V70.4333C70.8333 69.775 71.1458 69.15 71.675 68.7625C72.2042 68.3667 72.8875 68.2458 73.5208 68.4417C78.525 69.9625 82.8583 70.8333 85.4125 70.8333C91.45 70.8333 95.8292 66.45 95.8292 60.4167C95.8292 54.3833 91.45 50 85.4125 50C82.6958 50 78.2458 50.8583 73.5208 52.2958C72.8875 52.4875 72.2042 52.3708 71.675 51.975C71.1458 51.5833 70.8333 50.9625 70.8333 50.3042V43.7542C70.8333 35.7125 64.2917 29.1708 56.25 29.1708H45.4375C44.7792 29.1708 44.1583 28.8583 43.7625 28.3292C43.3708 27.8 43.25 27.1125 43.4417 26.4833C44.9625 21.4833 45.8333 17.1458 45.8333 14.5917C45.8333 8.55833 41.4542 4.175 35.4167 4.175C29.3792 4.175 25 8.55833 25 14.5917C25 17.3 25.8583 21.75 27.2958 26.4833C27.4875 27.1167 27.3708 27.8 26.975 28.3292C26.5833 28.8583 25.9625 29.1708 25.3042 29.1708H18.7542C10.7125 29.1708 4.17083 35.7125 4.17083 43.7542V81.2542C4.17083 89.2958 10.7125 95.8375 18.7542 95.8375H22.6333C21.4667 91.5458 20.8375 87.9125 20.8375 85.4208C20.8375 77.1083 27.1083 70.8375 35.4208 70.8375C43.7333 70.8375 50.0042 77.1083 50.0042 85.4208C50.0042 87.9125 49.375 91.5458 48.2083 95.8375L48.2042 95.8333Z" fill="#37B478"/>
</g>
<defs>
<clipPath id="clip0_2847_1987">
<rect width="100" height="100" fill="white"/>
</clipPath>
</defs>
</svg>
