<svg width="36" height="37" viewBox="0 0 36 37" fill="none" xmlns="http://www.w3.org/2000/svg">
<path d="M32.2465 32.7296C35.3954 30.9955 36.5206 27.0678 34.764 23.9591C33.0074 20.8505 29.0288 19.7397 25.8799 21.4738C22.731 23.2079 21.6058 27.1357 23.3624 30.2443C25.119 33.3529 29.0976 34.4637 32.2465 32.7296Z" fill="white"/>
<path d="M18.1211 22.4446C15.5145 17.8376 9.62142 16.1914 4.95876 18.7646C0.292059 21.3378 -1.37549 27.1555 1.23107 31.7585C3.83762 36.3655 9.7307 38.0117 14.3934 35.4385C19.056 32.8653 20.7276 27.0476 18.1211 22.4446Z" fill="white"/>
<path d="M33.8699 5.25137C32.4331 2.71413 29.187 1.80711 26.6169 3.22158C24.0468 4.64004 23.128 7.84456 24.5608 10.3818C25.9976 12.9191 29.2437 13.8261 31.8138 12.4116C34.3839 10.9971 35.3027 7.78862 33.8699 5.25137Z" fill="white"/>
<path d="M13.5354 14.6372C17.3521 12.5315 18.7161 7.77263 16.5871 4.00472C14.4541 0.236814 9.63362 -1.10972 5.81688 0.991994C2.00014 3.09771 0.636148 7.85654 2.7651 11.6245C4.89811 15.3924 9.71862 16.7389 13.5354 14.6372Z" fill="white"/>
</svg>
