<svg width="150" height="150" viewBox="0 0 150 150" fill="none" xmlns="http://www.w3.org/2000/svg">
<g clip-path="url(#clip0_213_675)">
<path d="M75.35 70.0687L125.594 112.056L90.0063 138.75C81.1188 145.419 68.8938 145.419 60.0063 138.75L21.675 110C18.4313 107.569 14.4813 106.25 10.425 106.25H6.25625C2.8 106.25 0 103.45 0 99.9999V30.8562C0 27.6812 2.36875 25.0374 5.525 24.6812C14.0063 23.7374 21.6438 20.3312 29.4563 15.7812C40.6938 9.99993 55.4375 12.0624 64.5563 20.6062L68.4125 24.3124L43.3688 48.7562C36.6625 55.4562 35.5938 66.0499 40.8813 73.3687C44.1313 77.8874 50.0125 81.2374 56.1563 81.2374C61.1125 81.2374 65.8688 79.2874 69.3063 75.8437L75.35 70.0624V70.0687ZM124.713 15.7812C114.15 10.4999 100.975 11.8749 91.5375 19.2062L52.1438 57.6562C49.825 59.9812 49.3 63.6999 51.0125 66.0749C52.1375 67.6374 53.7688 68.5749 55.6313 68.7312C57.475 68.8874 59.2625 68.2187 60.5563 66.9187L83.1688 45.4874C89.1 39.8562 97.6938 48.8437 91.8125 54.5187L84.4313 61.3749L138.138 106.256H143.744C147.194 106.256 149.994 103.456 149.994 100.006V30.6437C149.994 27.5812 147.756 25.0499 144.738 24.5062C134.15 22.5937 124.706 15.7874 124.706 15.7874L124.713 15.7812Z" fill="#262626"/>
</g>
<defs>
<clipPath id="clip0_213_675">
<rect width="150" height="150" fill="white"/>
</clipPath>
</defs>
</svg>
