<svg width="150" height="150" viewBox="0 0 150 150" fill="none" xmlns="http://www.w3.org/2000/svg">
<path d="M66.5686 141.325C66.8999 142.188 67.3749 142.956 67.8186 143.75H12.5436C10.8561 143.75 9.24362 143.069 8.06237 141.856C6.88737 140.65 6.24987 139.012 6.29362 137.331C7.22487 102.869 23.5811 87.5 59.3311 87.5C62.2436 87.5 64.9811 87.6437 67.6374 87.85C65.2686 92.7 62.9936 98.6937 62.4936 115.625C62.4936 130 65.8811 139.544 66.5624 141.325H66.5686ZM59.3374 75C82.7874 75 93.7124 64.075 93.7124 40.625C93.7124 17.175 82.7874 6.25 59.3374 6.25C35.8874 6.25 24.9624 17.175 24.9624 40.625C24.9624 64.075 35.8874 75 59.3374 75ZM143.519 109.925C142.812 100.562 140.631 94.7063 140.519 94.4188C139.856 92.7 138.469 91.3625 136.731 90.7625C136.481 90.675 132.469 89.3438 124.912 88.4062C124.7 83.9375 123.894 80.9812 123.787 80.625C123.25 78.875 121.975 77.45 120.294 76.725C119.625 76.4375 115.962 74.9937 109.375 74.9937C102.787 74.9937 99.1249 76.4375 98.4561 76.725C96.7749 77.45 95.4999 78.875 94.9624 80.625C94.8561 80.975 94.0499 83.9375 93.8374 88.4062C86.2811 89.3438 82.2686 90.675 82.0186 90.7625C80.2811 91.3625 78.8936 92.7 78.2311 94.4188C78.1186 94.7063 75.9374 100.562 75.2311 109.925C81.4686 108.35 92.8311 106.25 109.375 106.25C125.919 106.25 137.281 108.344 143.519 109.925ZM109.375 125C105.975 125 103.237 122.275 103.156 118.894C87.6999 119.456 78.3999 121.906 75.3686 122.863C76.1811 131.319 78.1311 136.562 78.2311 136.831C78.8936 138.55 80.2811 139.887 82.0186 140.488C82.4061 140.619 91.6499 143.75 109.369 143.75C127.087 143.75 136.337 140.625 136.719 140.488C138.456 139.887 139.844 138.55 140.506 136.831C140.612 136.562 142.556 131.313 143.369 122.863C140.362 121.919 131.056 119.463 115.581 118.9C115.5 122.281 112.762 125.006 109.362 125.006L109.375 125Z" fill="#262626"/>
</svg>
