<svg width="150" height="150" viewBox="0 0 150 150" fill="none" xmlns="http://www.w3.org/2000/svg">
<g clip-path="url(#clip0_213_668)">
<path d="M145.738 44.5C143.113 43.25 140.069 43.5875 137.531 45.6313L118.75 68.75V51.2687C118.756 48.3563 117.131 45.7562 114.5 44.4938C111.875 43.2438 108.831 43.5813 106.294 45.625L87.5063 68.7563V51.275C87.5125 48.3625 85.8875 45.7625 83.2562 44.5C80.6312 43.25 77.5875 43.5875 75.05 45.6313L51.7812 68.825L39.6 9.85625C38.3688 4.14375 33.225 0 27.3875 0H12.5C5.59375 0 0 5.59375 0 12.5V118.75C0 136.006 13.9938 150 31.25 150H118.75C136.006 150 150 136.006 150 118.75V51.275C150 48.3625 148.369 45.7625 145.738 44.5ZM62.5 112.5C62.5 115.95 59.7 118.75 56.25 118.75H50C46.55 118.75 43.75 115.95 43.75 112.5V106.25C43.75 102.8 46.55 100 50 100H56.25C59.7 100 62.5 102.8 62.5 106.25V112.5ZM93.75 112.5C93.75 115.95 90.95 118.75 87.5 118.75H81.25C77.8 118.75 75 115.95 75 112.5V106.25C75 102.8 77.8 100 81.25 100H87.5C90.95 100 93.75 102.8 93.75 106.25V112.5ZM125 112.5C125 115.95 122.2 118.75 118.75 118.75H112.5C109.05 118.75 106.25 115.95 106.25 112.5V106.25C106.25 102.8 109.05 100 112.5 100H118.75C122.2 100 125 102.8 125 106.25V112.5Z" fill="#262626"/>
</g>
<defs>
<clipPath id="clip0_213_668">
<rect width="150" height="150" fill="white"/>
</clipPath>
</defs>
</svg>
